<svg width="272" height="271" viewBox="0 0 272 271" fill="none" xmlns="http://www.w3.org/2000/svg">
<path d="M136.071 270.27C61.4665 270.27 0.987335 235.353 0.987335 192.281C0.987335 149.209 61.4665 114.292 136.071 114.292C210.676 114.292 271.155 149.209 271.155 192.281C271.155 235.353 210.676 270.27 136.071 270.27Z" fill="#F5F5F5"/>
<path d="M112.95 235.162C99.2321 235.162 88.1118 228.742 88.1118 220.822C88.1118 212.903 99.2321 206.482 112.95 206.482C126.667 206.482 137.788 212.903 137.788 220.822C137.788 228.742 126.667 235.162 112.95 235.162Z" fill="#E0E0E0"/>
<path d="M48.334 226.669C34.6163 226.669 23.496 220.248 23.496 212.329C23.496 204.409 34.6163 197.989 48.334 197.989C62.0516 197.989 73.1719 204.409 73.1719 212.329C73.1719 220.248 62.0516 226.669 48.334 226.669Z" fill="#E0E0E0"/>
<path d="M184.192 256.663C170.475 256.663 159.354 250.242 159.354 242.323C159.354 234.403 170.475 227.983 184.192 227.983C197.91 227.983 209.03 234.403 209.03 242.323C209.03 250.242 197.91 256.663 184.192 256.663Z" fill="#E0E0E0"/>
<path d="M224.901 195.168C224.901 195.168 225.55 180.006 231.906 171.567C238.263 163.127 246.054 161.915 249.913 164.292C252.734 166.02 252.356 171.158 247.476 174.496C242.596 177.833 233.191 186.386 231.72 191.963L224.901 195.168Z" fill="#37474F"/>
<path d="M229.103 192.959C229.206 192.951 229.302 192.904 229.37 192.826C229.438 192.749 229.474 192.648 229.469 192.545C228.815 178.787 240.873 170.21 244.157 168.667C244.251 168.623 244.324 168.543 244.36 168.446C244.396 168.348 244.392 168.24 244.349 168.145C244.303 168.051 244.223 167.977 244.124 167.942C244.025 167.906 243.916 167.91 243.821 167.953C240.453 169.55 228.01 178.391 228.683 192.563C228.689 192.667 228.736 192.764 228.813 192.834C228.891 192.904 228.993 192.94 229.097 192.935L229.103 192.959Z" fill="white"/>
<path d="M227.902 190.378C228.769 190.366 229.602 190.042 230.249 189.466C230.987 188.655 230.927 187.413 231.27 186.368C231.828 184.652 233.52 183.487 235.285 183.121C237.074 182.842 238.904 182.965 240.639 183.481C244.181 184.352 247.584 182.173 251.132 182.431C252.411 182.472 253.656 182.86 254.733 183.553C255.264 183.905 255.699 184.383 255.999 184.944C256.299 185.506 256.454 186.134 256.45 186.771C256.328 187.824 255.803 188.79 254.985 189.466C254.165 190.139 253.261 190.704 252.296 191.146L249.181 192.737C248.642 192.976 248.146 193.3 247.71 193.697C247.299 194.138 246.988 194.664 246.801 195.237C246.613 195.81 246.553 196.418 246.624 197.017C246.864 198.217 247.824 199.13 248.13 200.306C248.508 201.849 247.566 203.499 246.21 204.334C244.801 205.096 243.192 205.411 241.6 205.234C240.009 205.144 238.436 204.826 236.846 204.796C235.77 204.719 234.694 204.954 233.749 205.474C232.681 206.247 231.911 207.364 231.57 208.637C231.364 209.454 231.036 210.235 230.597 210.954C230.057 211.638 229.329 212.149 228.502 212.425C226.904 213.013 225.149 213.013 223.55 212.425C222.236 211.921 221.594 210.438 221.102 209.154C220.61 207.809 220.376 206.383 220.411 204.952C220.487 201.272 221.318 197.648 222.854 194.304C223.593 192.767 224.655 191.23 226.288 190.702C226.816 190.551 227.356 190.443 227.902 190.378Z" fill="#455A64"/>
<path d="M224.493 206.873C224.566 206.873 224.636 206.85 224.696 206.808C224.755 206.767 224.799 206.707 224.823 206.639C228.527 196.02 246.048 186.783 252.434 185.72C252.48 185.713 252.523 185.696 252.562 185.672C252.601 185.648 252.635 185.616 252.662 185.579C252.688 185.541 252.707 185.499 252.718 185.454C252.728 185.41 252.73 185.363 252.722 185.318C252.715 185.273 252.699 185.229 252.674 185.19C252.65 185.151 252.618 185.117 252.581 185.091C252.544 185.064 252.501 185.045 252.457 185.034C252.412 185.024 252.366 185.022 252.32 185.03C245.79 186.11 227.92 195.552 224.109 206.404C224.093 206.448 224.086 206.495 224.088 206.541C224.09 206.588 224.102 206.633 224.122 206.675C224.142 206.717 224.17 206.755 224.205 206.785C224.24 206.816 224.281 206.84 224.325 206.855C224.379 206.873 224.436 206.879 224.493 206.873Z" fill="white"/>
<path d="M240.243 201.05C240.31 201.045 240.374 201.02 240.427 200.979C240.481 200.938 240.521 200.882 240.543 200.818C240.565 200.755 240.569 200.686 240.553 200.621C240.537 200.556 240.502 200.496 240.453 200.45C237.588 198.468 234.2 197.38 230.717 197.323C230.632 197.334 230.554 197.376 230.497 197.44C230.44 197.505 230.409 197.588 230.409 197.674C230.409 197.76 230.44 197.843 230.497 197.908C230.554 197.972 230.632 198.014 230.717 198.025C234.049 198.106 237.286 199.148 240.039 201.026C240.103 201.054 240.174 201.062 240.243 201.05Z" fill="white"/>
<path d="M224.301 215.084C224.678 214.827 224.99 214.486 225.211 214.086C225.432 213.687 225.556 213.241 225.573 212.785V87.701C225.547 87.2308 225.411 86.7734 225.175 86.3657C224.939 85.9579 224.611 85.6114 224.217 85.3541L77.0619 0.390124C76.6709 0.144026 76.2201 0.00930016 75.7581 0.000464421C75.2961 -0.00837132 74.8405 0.109018 74.4404 0.339983C74.0402 0.570948 73.7106 0.906733 73.4872 1.31116C73.2637 1.71558 73.1549 2.17331 73.1724 2.63502V127.725C73.1985 128.195 73.3349 128.653 73.5706 129.06C73.8062 129.468 74.1345 129.815 74.5289 130.072L221.684 215.036C222.086 215.248 222.532 215.362 222.987 215.371C223.441 215.379 223.891 215.281 224.301 215.084Z" fill="#455A64"/>
<path d="M221.942 215.15H221.996C222.037 215.174 222.081 215.193 222.128 215.204H222.23C222.29 215.225 222.353 215.239 222.416 215.246C222.456 215.262 222.499 215.272 222.542 215.276L222.746 215.306C223.282 215.379 223.827 215.284 224.307 215.036C224.684 214.781 224.995 214.44 225.215 214.041C225.435 213.643 225.558 213.198 225.573 212.743V103.733L223.028 105.204V214.25C223.028 214.85 222.722 215.222 222.278 215.222C222.218 215.231 222.158 215.231 222.098 215.222C222.042 215.206 221.99 215.182 221.942 215.15Z" fill="#079BE0"/>
<path opacity="0.81" d="M221.942 215.15H221.996C222.037 215.174 222.081 215.193 222.128 215.204H222.23C222.29 215.225 222.353 215.239 222.416 215.246C222.456 215.262 222.499 215.272 222.542 215.276L222.746 215.306C223.282 215.379 223.827 215.284 224.307 215.036C224.684 214.781 224.995 214.44 225.215 214.041C225.435 213.643 225.558 213.198 225.573 212.743V103.733L223.028 105.204V214.25C223.028 214.85 222.722 215.222 222.278 215.222C222.218 215.231 222.158 215.231 222.098 215.222C222.042 215.206 221.99 215.182 221.942 215.15Z" fill="#E0E0E0"/>
<path d="M223.034 105.204L225.579 103.733V127.953L223.034 129.436V105.204Z" fill="#079BE0"/>
<path opacity="0.15" d="M223.034 105.204L225.579 103.733V127.953L223.034 129.436V105.204Z" fill="black"/>
<path d="M222.644 87.8331C222.884 88.2373 223.019 88.6956 223.034 89.1656V105.204L225.579 103.733V87.701C225.582 87.647 225.582 87.5929 225.579 87.5389C225.568 87.426 225.55 87.3137 225.525 87.2028C225.45 86.9092 225.337 86.6267 225.189 86.3625L222.644 87.8331Z" fill="#263238"/>
<path d="M73.1723 2.64103V9.87992L181.041 72.1548C181.786 72.587 182.392 72.2328 182.392 71.3745V68.6314C182.392 67.7731 182.992 67.4309 183.748 67.8511L216.6 86.8247C216.994 87.082 217.322 87.4285 217.558 87.8362C217.794 88.244 217.93 88.7014 217.956 89.1716V91.9087C217.982 92.3784 218.117 92.8355 218.352 93.2431C218.586 93.6508 218.913 93.9976 219.307 94.2556L223.034 96.4285V89.2256C223.009 88.756 222.873 88.2989 222.639 87.8912C222.404 87.4835 222.077 87.1367 221.684 86.8787L74.5229 1.86072C73.7786 1.42855 73.1723 1.77668 73.1723 2.64103Z" fill="#37474F"/>
<path d="M73.1663 127.731C73.1933 128.2 73.3302 128.656 73.5658 129.063C73.8014 129.47 74.1292 129.815 74.5228 130.072L221.684 215.036C222.428 215.462 223.034 215.114 223.034 214.25V96.4285L219.307 94.2796C218.562 93.8475 217.35 87.2808 216.6 86.8487L184.301 68.1992C183.55 67.767 181.786 72.617 181.041 72.1848L73.1723 9.87991V127.731H73.1663Z" fill="#079BE0"/>
<path opacity="0.9" d="M73.1663 127.731C73.1933 128.2 73.3302 128.656 73.5658 129.063C73.8014 129.47 74.1292 129.815 74.5228 130.072L221.684 215.036C222.428 215.462 223.034 215.114 223.034 214.25V96.4285L219.307 94.2796C218.562 93.8475 217.35 87.2808 216.6 86.8487L184.301 68.1992C183.55 67.767 181.786 72.617 181.041 72.1848L73.1723 9.87991V127.731H73.1663Z" fill="white"/>
<g opacity="0.4">
<path d="M73.7725 10.9183V127.731C73.8017 128.091 73.9119 128.44 74.0948 128.752C74.2777 129.064 74.5287 129.33 74.829 129.532L221.984 214.514C222.075 214.575 222.18 214.61 222.29 214.616C222.428 214.616 222.434 214.316 222.434 214.25V96.7466L219.007 94.7658C218.478 94.4597 218.142 93.4093 217.386 90.7082C217.111 89.5445 216.734 88.4076 216.257 87.3108L184.223 68.8175C183.839 69.34 183.494 69.8897 183.19 70.4621C182.32 71.9867 181.84 72.779 181.143 72.779C181.003 72.7787 180.865 72.7436 180.741 72.677L73.7725 10.9183ZM73.1723 9.87991L181.041 72.1548C181.075 72.1632 181.11 72.1632 181.143 72.1548C181.9 72.1548 183.436 68.1152 184.199 68.1152C184.232 68.1065 184.267 68.1065 184.301 68.1152L216.6 86.8247C217.35 87.2568 218.562 93.8235 219.307 94.2556L223.034 96.4285V214.25C223.034 214.85 222.728 215.216 222.29 215.216C222.078 215.207 221.871 215.145 221.69 215.036L74.5228 130.072C74.1292 129.815 73.8014 129.47 73.5658 129.063C73.3302 128.656 73.1933 128.2 73.1663 127.731V9.87991H73.1723Z" fill="#079BE0"/>
</g>
<path d="M223.034 105.204V129.436L73.1723 42.9231V18.6854L223.034 105.204Z" fill="#079BE0"/>
<path d="M73.1723 9.87991V18.6854L223.034 105.204V96.4285L220.255 94.8199C219.511 94.3877 219.259 93.7274 218.905 92.4729L217.956 89.1956C217.662 88.0551 217.356 87.2808 216.6 86.8487L184.301 68.1992C183.55 67.767 182.962 67.719 182.392 68.6614L181.233 70.7622C180.813 71.5005 180.597 71.9327 179.853 71.5005L73.1723 9.87991Z" fill="#F0F0F0"/>
<path d="M79.523 7.17884C78.5806 6.63862 77.8183 7.0768 77.8183 8.16323C77.8504 8.75481 78.0215 9.33049 78.3176 9.84359C78.6138 10.3567 79.0268 10.7928 79.523 11.1164C80.4594 11.6566 81.2217 11.2185 81.2217 10.132C81.1893 9.54119 81.0188 8.96621 80.7237 8.4533C80.4287 7.94038 80.0174 7.50386 79.523 7.17884Z" fill="#079BE0"/>
<path d="M85.6454 10.7143C84.709 10.174 83.9467 10.6122 83.9467 11.6986C83.9791 12.2895 84.1496 12.8645 84.4447 13.3774C84.7397 13.8903 85.151 14.3268 85.6454 14.6518C86.5878 15.192 87.3501 14.7539 87.3501 13.6674C87.318 13.0759 87.147 12.5002 86.8508 11.9871C86.5546 11.474 86.1416 11.0379 85.6454 10.7143Z" fill="#079BE0"/>
<path d="M91.786 14.2497C90.8497 13.7095 90.0814 14.1476 90.0814 15.2341C90.1149 15.8253 90.2865 16.4005 90.5826 16.9133C90.8786 17.4262 91.2908 17.8625 91.786 18.1872C92.7284 18.7335 93.4907 18.2893 93.4907 17.2028C93.4586 16.6113 93.2876 16.0356 92.9914 15.5225C92.6952 15.0094 92.2823 14.5733 91.786 14.2497Z" fill="#079BE0"/>
<path opacity="0.5" d="M216.828 97.0287L218.953 98.2292L218.142 96.6746C218.11 96.6156 218.093 96.5496 218.093 96.4825C218.093 96.4154 218.11 96.3494 218.142 96.2904C218.202 96.2184 218.31 96.2904 218.382 96.4045L219.535 98.6254C219.537 98.6533 219.537 98.6814 219.535 98.7094C219.537 98.7474 219.537 98.7855 219.535 98.8235C219.539 98.8574 219.539 98.8916 219.535 98.9255C219.538 98.9414 219.538 98.9576 219.535 98.9735L218.382 99.8619C218.365 99.8725 218.346 99.8781 218.325 99.8781C218.305 99.8781 218.285 99.8725 218.268 99.8619C218.213 99.8169 218.17 99.7592 218.142 99.6938C218.082 99.5497 218.088 99.3877 218.142 99.3336L218.953 98.7334L216.828 97.5329C216.772 97.4898 216.727 97.4342 216.697 97.3706C216.667 97.307 216.652 97.2372 216.654 97.1668C216.654 97.0287 216.732 96.9807 216.828 97.0287Z" fill="#455A64"/>
<path opacity="0.5" d="M215.051 96.0083L212.926 94.8078L213.736 94.2076C213.809 94.1536 213.815 93.9915 213.736 93.8475C213.658 93.7034 213.568 93.6254 213.496 93.6794L212.344 94.5677C212.329 94.5788 212.316 94.5931 212.308 94.6098C212.302 94.6415 212.302 94.6741 212.308 94.7058C212.302 94.7436 212.302 94.7821 212.308 94.8199C212.308 94.8199 212.308 94.8198 212.308 94.8499C212.317 94.8789 212.329 94.907 212.344 94.9339L213.496 97.1308C213.521 97.1846 213.561 97.2303 213.61 97.2628C213.627 97.2793 213.65 97.2886 213.673 97.2886C213.697 97.2886 213.72 97.2793 213.736 97.2628C213.77 97.2044 213.788 97.1382 213.788 97.0707C213.788 97.0033 213.77 96.9371 213.736 96.8787L212.926 95.318L215.051 96.5485C215.147 96.6026 215.219 96.5485 215.219 96.3805C215.223 96.3095 215.21 96.2387 215.18 96.1739C215.151 96.1092 215.107 96.0524 215.051 96.0083Z" fill="#455A64"/>
<path opacity="0.5" d="M208.094 89.8859C208.094 89.7598 208.22 89.7778 208.274 89.9159L208.569 90.6302C209.067 90.5761 209.667 91.0563 210.075 91.9207C210.597 93.0311 210.597 94.3216 210.075 94.8559C209.947 94.9758 209.781 95.0474 209.606 95.0583C209.43 95.0693 209.257 95.0189 209.115 94.9159C208.69 94.6312 208.359 94.2285 208.16 93.7574C208.127 93.7011 208.11 93.6368 208.11 93.5714C208.11 93.5059 208.127 93.4416 208.16 93.3853C208.232 93.3192 208.34 93.3853 208.406 93.5233C208.797 94.3517 209.439 94.7238 209.829 94.3457C210.219 93.9675 210.225 92.9831 209.829 92.1488C209.553 91.5485 209.151 91.2064 208.797 91.1884L209.019 91.7226C209.073 91.8607 209.019 91.9927 208.935 91.9327L208.064 91.3685C208.031 91.3384 208.005 91.3012 207.989 91.2595C207.972 91.2179 207.965 91.1731 207.968 91.1284L208.094 89.8859Z" fill="#455A64"/>
<path opacity="0.5" d="M185.231 72.1908L184.457 70.5462C184.411 70.4688 184.387 70.3807 184.387 70.2911C184.387 70.2014 184.411 70.1133 184.457 70.036C184.547 69.9519 184.697 70.036 184.787 70.228L185.561 71.8667L186.341 71.1224C186.431 71.0323 186.581 71.1224 186.671 71.3145C186.717 71.3918 186.741 71.4799 186.741 71.5696C186.741 71.6593 186.717 71.7473 186.671 71.8247L185.897 72.569L186.671 74.2196C186.717 74.297 186.741 74.385 186.741 74.4747C186.741 74.5644 186.717 74.6525 186.671 74.7298C186.648 74.7493 186.618 74.76 186.587 74.76C186.557 74.76 186.527 74.7493 186.503 74.7298C186.429 74.6836 186.372 74.6139 186.341 74.5318L185.561 72.8871L184.787 73.6374C184.764 73.6564 184.735 73.6669 184.706 73.6669C184.676 73.6669 184.647 73.6564 184.625 73.6374C184.55 73.5899 184.491 73.5208 184.457 73.4393C184.411 73.362 184.387 73.2739 184.387 73.1842C184.387 73.0945 184.411 73.0065 184.457 72.9291L185.231 72.1908Z" fill="#455A64"/>
<path d="M205.255 91.9027V89.1656C205.228 88.6959 205.09 88.2393 204.853 87.8327C204.617 87.426 204.288 87.0807 203.893 86.8247L82.1342 16.5966C81.3839 16.1644 80.7777 16.5126 80.7777 17.3769V20.078C80.8038 20.5482 80.9402 21.0056 81.1759 21.4133C81.4115 21.8211 81.7398 22.1676 82.1342 22.4249L203.893 92.689C204.649 93.1212 205.255 92.767 205.255 91.9027Z" fill="white"/>
<path d="M83.9888 22.599C84.0205 22.6053 84.0531 22.6053 84.0848 22.599C84.1483 22.5672 84.1994 22.5151 84.2299 22.4509C84.2603 22.3867 84.2684 22.3142 84.2529 22.2449L84.1208 21.1104L84.673 20.7142C84.7124 20.6855 84.7439 20.6473 84.7649 20.6033C84.7858 20.5593 84.7955 20.5108 84.7931 20.4621C84.7928 20.3796 84.7743 20.2981 84.7391 20.2234C84.7038 20.1487 84.6526 20.0827 84.589 20.03L83.7967 19.4297C83.7702 19.4057 83.7513 19.3744 83.7427 19.3397L83.3885 18.1752C83.3684 18.0903 83.3244 18.0129 83.2616 17.9523C83.1988 17.8916 83.12 17.8503 83.0344 17.8331C82.9809 17.8313 82.928 17.8451 82.8821 17.8728C82.8363 17.9005 82.7995 17.9409 82.7763 17.9892L82.4582 18.6734L81.7379 18.3973C81.6872 18.3756 81.631 18.3703 81.5772 18.3822C81.5234 18.394 81.4746 18.4224 81.4377 18.4633C81.3905 18.5356 81.3653 18.6201 81.3653 18.7064C81.3653 18.7928 81.3905 18.8773 81.4377 18.9495L82.038 20.03C82.0443 20.0617 82.0443 20.0943 82.038 20.126L81.8999 21.1044C81.8917 21.1844 81.9014 21.2653 81.9284 21.3411C81.9554 21.417 81.999 21.4858 82.056 21.5426C82.0879 21.5807 82.1287 21.6104 82.1747 21.6292C82.2207 21.6481 82.2706 21.6554 82.3201 21.6506L83.0344 21.5606L83.7247 22.4849C83.758 22.5217 83.7988 22.5509 83.8444 22.5705C83.8899 22.5902 83.9392 22.5999 83.9888 22.599ZM84.445 20.3961L83.8927 20.7923C83.8463 20.831 83.8112 20.8816 83.7912 20.9387C83.7711 20.9957 83.7668 21.0571 83.7787 21.1164L83.8447 22.0528L83.2445 21.2965C83.2102 21.2477 83.1642 21.2084 83.1107 21.1822C83.0572 21.156 82.9979 21.1437 82.9383 21.1464L82.2241 21.2365C82.2241 21.2365 82.194 21.1404 82.2241 21.0924L82.3621 20.114C82.3717 20.0057 82.3487 19.897 82.2961 19.8019L81.6959 18.7214L82.3561 18.9735C82.3876 18.9873 82.4215 18.9947 82.4559 18.9952C82.4902 18.9957 82.5244 18.9893 82.5562 18.9765C82.5881 18.9636 82.6171 18.9445 82.6415 18.9203C82.6658 18.8961 82.6852 18.8673 82.6983 18.8355L82.9924 18.2353L83.3465 19.3997C83.3759 19.5068 83.4391 19.6015 83.5266 19.6698L84.3189 20.2701C84.3749 20.2953 84.4197 20.3401 84.445 20.3961Z" fill="#E0E0E0"/>
<g opacity="0.5">
<path d="M79.193 16.2245C79.297 16.2255 79.3983 16.192 79.4811 16.1291C79.5639 16.0662 79.6233 15.9776 79.6502 15.8771C79.677 15.7767 79.6696 15.6702 79.6293 15.5744C79.5889 15.4786 79.5178 15.399 79.4272 15.3481L75.6216 13.1512C75.5684 13.1201 75.5096 13.0997 75.4485 13.0913C75.3875 13.0829 75.3253 13.0866 75.2657 13.1023C75.206 13.1179 75.1501 13.1451 75.1009 13.1823C75.0518 13.2195 75.0105 13.2661 74.9794 13.3193C74.9482 13.3725 74.9279 13.4313 74.9195 13.4924C74.9111 13.5535 74.9148 13.6156 74.9304 13.6752C74.946 13.7349 74.9732 13.7909 75.0104 13.84C75.0477 13.8891 75.0942 13.9304 75.1474 13.9616L78.9589 16.1644C79.0304 16.2046 79.1111 16.2253 79.193 16.2245Z" fill="#455A64"/>
<path d="M79.1932 18.4273C79.2757 18.4272 79.3567 18.4055 79.4283 18.3645C79.4999 18.3234 79.5595 18.2644 79.6013 18.1932C79.6324 18.1397 79.6525 18.0806 79.6606 18.0192C79.6686 17.9579 79.6644 17.8955 79.6483 17.8358C79.6321 17.7761 79.6042 17.7202 79.5663 17.6713C79.5283 17.6224 79.4811 17.5815 79.4273 17.551L75.6217 15.3481C75.5146 15.2989 75.3929 15.2913 75.2805 15.327C75.1681 15.3626 75.0729 15.4388 75.0137 15.5408C74.9545 15.6428 74.9354 15.7632 74.9601 15.8785C74.9849 15.9938 75.0517 16.0957 75.1476 16.1644L78.9591 18.3613C79.03 18.4033 79.1107 18.4261 79.1932 18.4273Z" fill="#455A64"/>
<path d="M79.1931 20.6242C79.2756 20.6241 79.3566 20.6024 79.4282 20.5614C79.4998 20.5203 79.5594 20.4613 79.6012 20.3901C79.6321 20.3371 79.6522 20.2784 79.6601 20.2175C79.6681 20.1566 79.6639 20.0947 79.6477 20.0355C79.6315 19.9762 79.6036 19.9208 79.5658 19.8725C79.5279 19.8241 79.4808 19.7838 79.4272 19.7539L75.6216 17.551C75.5684 17.5198 75.5096 17.4995 75.4485 17.4911C75.3875 17.4827 75.3253 17.4864 75.2657 17.502C75.206 17.5176 75.1501 17.5448 75.101 17.5821C75.0518 17.6193 75.0105 17.6658 74.9794 17.719C74.9482 17.7723 74.9279 17.8311 74.9195 17.8921C74.9111 17.9532 74.9148 18.0153 74.9304 18.075C74.946 18.1346 74.9732 18.1906 75.0104 18.2397C75.0477 18.2889 75.0942 18.3302 75.1474 18.3613L78.959 20.5642C79.0304 20.6043 79.1111 20.625 79.1931 20.6242Z" fill="#455A64"/>
</g>
<path d="M223.034 96.3985V105.204L225.579 103.733V94.9339L223.034 96.3985Z" fill="#E0E0E0"/>
<path opacity="0.1" d="M216.534 135.15L175.087 111.218V178.787L216.654 202.653L216.534 135.15Z" fill="#079BE0"/>
<path opacity="0.15" d="M165.952 107.191L115.952 78.3253C114.943 77.725 114.151 78.1812 114.151 79.3037C114.188 79.9246 114.371 80.5282 114.684 81.066C114.996 81.6038 115.431 82.061 115.952 82.4009L165.958 111.591C166.96 112.191 167.758 111.711 167.758 110.552V110.342C167.725 109.712 167.544 109.099 167.23 108.552C166.916 108.004 166.478 107.538 165.952 107.191Z" fill="#079BE0"/>
<path opacity="0.1" d="M166.473 115.936L83.7365 68.1692C83.0162 67.755 82.4339 68.0491 82.4339 68.8235C82.4656 69.2607 82.6001 69.6844 82.8265 70.0598C83.0528 70.4353 83.3646 70.7521 83.7365 70.9843L166.473 118.751C167.188 119.166 167.77 118.871 167.77 118.097C167.739 117.661 167.605 117.237 167.38 116.862C167.154 116.487 166.844 116.17 166.473 115.936Z" fill="#079BE0"/>
<path opacity="0.1" d="M166.473 121.591L83.7365 73.8235C83.0162 73.4093 82.4339 73.7034 82.4339 74.4777C82.4656 74.915 82.6001 75.3386 82.8265 75.7141C83.0528 76.0896 83.3646 76.4063 83.7365 76.6386L166.473 124.406C167.188 124.82 167.77 124.526 167.77 123.745C167.738 123.31 167.603 122.888 167.378 122.514C167.153 122.139 166.843 121.823 166.473 121.591Z" fill="#079BE0"/>
<path opacity="0.1" d="M166.473 127.239L83.7365 79.4717C83.0162 79.0576 82.4339 79.3517 82.4339 80.132C82.4665 80.5682 82.6015 80.9906 82.8278 81.365C83.0541 81.7394 83.3654 82.0552 83.7365 82.2868L166.473 130.042C167.188 130.456 167.77 130.162 167.77 129.382C167.735 128.948 167.599 128.529 167.374 128.157C167.149 127.785 166.841 127.471 166.473 127.239Z" fill="#079BE0"/>
<path opacity="0.1" d="M166.473 132.893L83.7365 85.126C83.0162 84.7118 82.4339 85.0059 82.4339 85.7802C82.4656 86.2175 82.6001 86.6411 82.8265 87.0166C83.0528 87.3921 83.3646 87.7089 83.7365 87.9411L166.473 135.708C167.188 136.122 167.77 135.828 167.77 135.054C167.739 134.617 167.605 134.194 167.38 133.819C167.154 133.443 166.844 133.126 166.473 132.893Z" fill="#079BE0"/>
<path opacity="0.1" d="M166.473 138.547L108.742 104.934C108.028 104.52 107.446 104.814 107.446 105.594C107.478 106.03 107.613 106.452 107.838 106.826C108.063 107.2 108.373 107.516 108.742 107.749L166.473 141.362C167.188 141.777 167.77 141.483 167.77 140.702C167.738 140.267 167.603 139.845 167.378 139.47C167.153 139.096 166.843 138.78 166.473 138.547Z" fill="#079BE0"/>
<path opacity="0.1" d="M166.473 149.85L83.7365 102.083C83.0162 101.669 82.4339 101.963 82.4339 102.737C82.4656 103.174 82.6001 103.598 82.8265 103.973C83.0528 104.349 83.3646 104.666 83.7365 104.898L166.473 152.665C167.188 153.079 167.77 152.785 167.77 152.011C167.739 151.574 167.605 151.151 167.38 150.776C167.154 150.4 166.844 150.083 166.473 149.85Z" fill="#079BE0"/>
<path opacity="0.1" d="M166.473 155.504L83.7365 107.737C83.0162 107.323 82.4339 107.617 82.4339 108.391C82.4656 108.829 82.6001 109.252 82.8265 109.628C83.0528 110.003 83.3646 110.32 83.7365 110.552L166.473 158.319C167.188 158.733 167.77 158.439 167.77 157.659C167.738 157.223 167.603 156.801 167.378 156.427C167.153 156.053 166.843 155.737 166.473 155.504Z" fill="#079BE0"/>
<path opacity="0.1" d="M166.473 161.152L83.7365 113.385C83.0162 112.971 82.4339 113.265 82.4339 114.046C82.4665 114.482 82.6015 114.904 82.8278 115.279C83.0541 115.653 83.3654 115.969 83.7365 116.2L166.473 163.973C167.188 164.388 167.77 164.094 167.77 163.313C167.738 162.877 167.603 162.454 167.378 162.079C167.153 161.704 166.843 161.386 166.473 161.152Z" fill="#079BE0"/>
<path opacity="0.1" d="M166.474 166.807L136.065 149.064C135.351 148.649 134.769 148.943 134.769 149.724C134.801 150.159 134.936 150.581 135.161 150.955C135.386 151.33 135.696 151.646 136.065 151.879L166.468 169.622C167.182 170.036 167.764 169.742 167.764 168.967C167.733 168.531 167.6 168.109 167.376 167.733C167.152 167.358 166.843 167.041 166.474 166.807Z" fill="#079BE0"/>
<path d="M55.9094 134.364C51.5097 120.09 47.23 110.684 51.5937 107.773C55.6513 108.529 57.4701 110.54 58.3344 115.894C59.2408 121.507 61.1255 129.334 62.224 133.847C63.1734 137.62 64.532 141.277 66.2756 144.754C66.5384 145.235 66.9639 145.608 67.4761 145.804C68.8326 146.338 69.4809 147.005 70.5853 147.821C71.4556 148.421 72.0919 148.505 72.0499 148.763C71.9786 149.053 71.7966 149.303 71.5431 149.46C71.2895 149.617 70.9844 149.669 70.6933 149.604C70.0412 149.481 69.4064 149.279 68.8026 149.003C69.3217 150.319 70.13 151.5 71.1675 152.461C73.2984 154.262 72.9682 156.02 69.5529 156.224C68.3524 156.296 65.4893 155.18 62.8542 150.696C61.9632 149.025 61.1793 147.299 60.5073 145.528C58.6705 140.93 56.7918 137.245 55.9094 134.364Z" fill="#FFA8A7"/>
<path d="M50.8315 107.605C50.8315 107.605 54.2168 107.431 56.2697 109.694C58.3225 111.957 60.7114 125.474 60.7114 125.474C60.7114 125.474 58.4665 128.559 52.5482 127.275L50.8315 107.605Z" fill="#079BE0"/>
<path opacity="0.3" d="M50.8315 107.605C50.8315 107.605 54.2168 107.431 56.2697 109.694C58.3225 111.957 60.7114 125.474 60.7114 125.474C60.7114 125.474 58.4665 128.559 52.5482 127.275L50.8315 107.605Z" fill="black"/>
<path d="M34.9791 203.499H39.5229V211.603H34.9791V203.499Z" fill="#FFA8A7"/>
<path d="M50.7354 203.067L55.2792 203.235L55.5073 194.658L50.7354 194.496V203.067Z" fill="#FFA8A7"/>
<path d="M34.3367 133.343C34.3367 137.863 35.0029 174.238 35.0029 174.238C34.9009 175.54 33.7304 177.941 33.9825 182.935C34.3247 189.718 34.7868 207.545 34.7868 207.545C35.5666 207.946 36.4276 208.165 37.3044 208.183C38.1812 208.202 39.0507 208.021 39.8469 207.653C39.8469 207.653 44.1446 182.953 44.9549 176.224C45.6692 170.36 46.8757 150.6 46.8757 150.6L49.3367 173.571C48.8123 176.044 48.6225 178.575 48.7724 181.098C48.9885 184.208 50.4471 200.408 50.4471 200.408C51.2326 200.871 52.1134 201.149 53.0224 201.221C53.9314 201.292 54.8447 201.156 55.6932 200.822C55.6932 200.822 58.2802 176.428 58.3343 173.571C58.3943 170.318 56.8217 133.289 56.8217 133.289L34.3367 133.343Z" fill="#37474F"/>
<path d="M39.5232 209.274V208.595C39.9614 208.793 40.9698 212.797 42.7705 214.526C44.2051 215.882 46.1619 217.455 46.6601 218.973C47.1583 220.492 43.935 221.428 42.5965 221.182C41.0418 220.894 38.3408 219.754 37.6685 218.691C36.9962 217.629 36.6721 216.074 36.1199 215.3C35.5676 214.526 34.3191 213.661 34.007 212.761C33.839 212.269 34.007 211.188 34.2651 210.276C34.5232 209.364 34.7033 208.517 34.9794 208.595V209.112C35.6165 209.64 36.4206 209.925 37.2483 209.916C37.9146 209.934 39.5292 209.796 39.5232 209.274Z" fill="#263238"/>
<path d="M55.3273 201.771C55.5614 201.771 55.7535 202.125 56.2757 202.713C57.0471 203.527 57.9501 204.204 58.9467 204.718C60.6514 205.606 63.9587 206.969 65.4593 207.671C66.3897 208.109 66.3477 209.286 65.3813 209.958C64.4149 210.63 62.08 211.11 59.2769 210.456C57.7523 210.102 55.7595 208.655 54.505 208.709C53.2505 208.763 50.9035 208.775 49.9612 208.109C49.0188 207.443 49.4029 206.02 49.667 204.796C49.9552 203.463 50.3093 201.38 50.7355 201.47V201.933C51.2817 202.791 54.1028 203.133 55.3033 202.533L55.3273 201.771Z" fill="#263238"/>
<path d="M46.8761 150.606C49.2409 149.834 51.4026 148.542 53.2026 146.825C53.2026 146.825 52.0021 149.226 48.3527 151.422L49.127 171.939L46.8761 150.606Z" fill="#263238"/>
<path d="M36.7017 108.685C36.7017 108.685 33.1483 109.016 33.4004 115.786L34.1867 126.591V142.797C37.5301 146.585 52.344 146.302 57.416 142.491C57.416 142.491 56.8458 123.325 56.5037 115.948C56.2576 110.708 55.0511 108.067 49.901 107.491L43.5685 107.767L36.7017 108.685Z" fill="#079BE0"/>
<path opacity="0.3" d="M46.804 112.239L47.6203 117.929L49.5171 117.893L47.3742 118.235L46.804 112.239Z" fill="black"/>
<path d="M42.0622 93.4273C42.0252 95.2593 42.7168 97.031 43.9852 98.3534C45.2535 99.6758 46.9949 100.441 48.8269 100.48C52.5664 100.48 55.4295 97.3168 55.5976 93.4333C55.8917 86.5485 52.5664 86.3805 48.8269 86.3805C46.996 86.4199 45.2555 87.1839 43.9873 88.505C42.7191 89.8261 42.0268 91.5963 42.0622 93.4273Z" fill="#263238"/>
<path d="M38.2266 96.9147C38.2266 96.9147 39.265 101.993 39.6792 102.827C39.9471 103.336 40.404 103.72 40.9517 103.895L40.8796 100.324L38.2266 96.9147Z" fill="#263238"/>
<path d="M39.5114 89.6398C39.5114 89.6398 38.7671 89.4537 37.9748 90.6902C37.2965 91.7466 37.1405 94.1236 38.2089 96.9147L40.1597 97.1488L39.5114 89.6398Z" fill="#263238"/>
<path d="M40.7476 97.1488C40.3575 97.3949 39.7992 96.6086 39.313 96.0804C38.8268 95.5521 37.2542 94.8379 36.4619 96.5605C35.6696 98.2832 37.1582 100.648 38.4007 101.056C40.5435 101.759 40.8617 100.324 40.8617 100.324L41.0297 108.367C43.8689 112.767 50.3094 112.605 47.9925 108.157V105.708C48.9462 105.867 49.9145 105.919 50.8797 105.864C52.4523 105.606 53.4427 104.316 53.9229 102.539C54.6912 99.6878 54.9793 97.3889 54.331 91.7766C53.6107 85.6242 46.744 85.5702 43.0285 88.0251C39.313 90.4801 40.7476 97.1488 40.7476 97.1488Z" fill="#FFA8A7"/>
<path d="M40.9937 106.567C41.6541 107.918 42.6027 109.108 43.7728 110.054C44.7671 110.789 45.9209 111.278 47.1401 111.483C46.1343 112.164 45.3101 113.081 44.7392 114.154C44.0249 115.714 39.0249 111.41 39.0729 108.355C39.0729 108.355 39.8532 105.288 40.9337 105.096L40.9937 106.567Z" fill="#263238"/>
<path d="M47.14 111.483C47.14 111.483 48.6826 110.72 47.9924 108.157V105.708L48.6706 105.798C49.4611 106.568 50.0221 107.543 50.2913 108.613C50.4474 109.316 50.8315 112.869 50.1532 113.571C49.475 114.274 48.5266 111.675 47.14 111.483Z" fill="#263238"/>
<path d="M43.3766 90.4261C43.2011 90.3877 43.0185 90.3981 42.8485 90.4561C42.2482 90.7202 42.1402 92.5329 42.0381 93.0551C41.696 94.8138 41.4079 97.797 40.7476 97.809C40.5495 97.809 39.7992 96.5185 39.313 96.0563C38.6348 95.4141 39.5111 89.6158 39.5111 89.6158C39.3322 89.1151 39.2982 88.5741 39.4128 88.0549C39.5275 87.5357 39.7862 87.0594 40.1594 86.6806C41.3598 85.288 43.2926 84.9759 45.0393 84.8799C47.0981 84.7658 49.187 84.9219 51.2158 84.4717C51.8531 84.2946 52.5005 84.1563 53.1546 84.0575C53.1821 84.0458 53.2117 84.0398 53.2416 84.0398C53.2715 84.0398 53.3011 84.0458 53.3286 84.0575C53.3947 84.1116 53.3827 84.2136 53.3646 84.2976C53.2375 84.9055 53.0232 85.4918 52.7284 86.0383C53.9361 85.943 55.1286 85.7073 56.2818 85.3361C56.3482 85.3153 56.4195 85.3153 56.4859 85.3361C56.624 85.3781 56.648 85.5582 56.636 85.7022C56.5579 87.1548 55.8677 89.3517 54.6852 90.204C53.637 90.8903 52.42 91.2745 51.1678 91.3144C47.9865 91.4345 46.0297 90.7622 43.3766 90.4261Z" fill="#263238"/>
<path d="M39.5113 89.9459L37.1404 88.6194C37.2128 88.4561 37.3185 88.3097 37.4508 88.1896C37.583 88.0695 37.7388 87.9783 37.9082 87.9218C38.0777 87.8653 38.2571 87.8448 38.4349 87.8616C38.6128 87.8783 38.7851 87.932 38.9411 88.0191C39.2565 88.2139 39.4891 88.5181 39.5943 88.8736C39.6995 89.2291 39.67 89.6108 39.5113 89.9459Z" fill="#263238"/>
<path d="M47.9863 105.708C47.9863 105.708 44.4749 104.97 43.2444 104.292C42.5154 103.891 41.9237 103.28 41.5457 102.539C41.7288 103.284 42.0572 103.986 42.5121 104.604C43.4065 105.804 47.9863 106.681 47.9863 106.681V105.708Z" fill="#F28F8F"/>
<path d="M47.1399 96.2364C47.1271 96.3718 47.0753 96.5005 46.9908 96.607C46.9063 96.7135 46.7927 96.7931 46.6637 96.8363C46.5348 96.8795 46.3961 96.8843 46.2645 96.8502C46.1329 96.8161 46.0141 96.7445 45.9223 96.6442C45.8306 96.5439 45.77 96.419 45.7478 96.2849C45.7257 96.1508 45.7429 96.0131 45.7975 95.8886C45.852 95.764 45.9415 95.658 46.0552 95.5834C46.1688 95.5088 46.3016 95.4687 46.4376 95.4681C46.5346 95.4712 46.63 95.4936 46.7181 95.5341C46.8063 95.5746 46.8854 95.6324 46.9509 95.704C47.0164 95.7757 47.0668 95.8597 47.0993 95.9511C47.1317 96.0425 47.1455 96.1396 47.1399 96.2364Z" fill="#263238"/>
<path d="M46.0298 93.1992L44.5232 94.0636C44.4143 93.8556 44.3853 93.6151 44.4417 93.3872C44.4981 93.1594 44.636 92.9602 44.8293 92.8271C44.9301 92.7626 45.0438 92.7208 45.1624 92.7048C45.281 92.6888 45.4017 92.6989 45.516 92.7343C45.6303 92.7697 45.7355 92.8297 45.8242 92.91C45.913 92.9903 45.9831 93.089 46.0298 93.1992Z" fill="#263238"/>
<path d="M47.6682 101.302L49.2769 101.903C49.2451 102.013 49.1909 102.116 49.1178 102.205C49.0446 102.294 48.9541 102.366 48.8517 102.419C48.7493 102.471 48.6372 102.502 48.5224 102.509C48.4076 102.516 48.2926 102.5 48.1844 102.461C47.9705 102.366 47.7995 102.195 47.7042 101.981C47.6089 101.767 47.5961 101.525 47.6682 101.302Z" fill="#F28F8F"/>
<path d="M53.6048 93.8415L52.2302 92.737C52.2922 92.6403 52.374 92.5578 52.4703 92.4951C52.5665 92.4324 52.675 92.3908 52.7885 92.3732C52.9021 92.3556 53.018 92.3624 53.1287 92.393C53.2395 92.4237 53.3424 92.4775 53.4307 92.5509C53.6142 92.7064 53.7335 92.9244 53.7657 93.1628C53.7978 93.4011 53.7405 93.6429 53.6048 93.8415Z" fill="#263238"/>
<path d="M52.9984 96.0263C53.0024 96.1222 52.9874 96.2179 52.9542 96.308C52.921 96.398 52.8703 96.4806 52.805 96.5509C52.7397 96.6213 52.6611 96.6779 52.5737 96.7177C52.4864 96.7575 52.392 96.7795 52.2961 96.7826C52.0939 96.7826 51.9 96.7023 51.7571 96.5594C51.6141 96.4164 51.5338 96.2225 51.5338 96.0203C51.5338 95.8182 51.6141 95.6243 51.7571 95.4813C51.9 95.3383 52.0939 95.258 52.2961 95.258C52.4904 95.2689 52.6726 95.3554 52.8039 95.499C52.9352 95.6426 53.005 95.8319 52.9984 96.0263Z" fill="#263238"/>
<path d="M49.2288 95.4381L49.3128 99.8859L51.8398 99.3036L49.2288 95.4381Z" fill="#F28F8F"/>
<path d="M29.7874 99.9099C28.773 98.5653 26.7202 101.549 25.7718 103.607C24.8234 105.666 24.8054 106.831 25.5858 107.647C26.3661 108.463 27.8367 107.971 29.3072 106.02C30.7778 104.07 30.3697 100.9 29.7874 99.9099Z" fill="#079BE0"/>
<path opacity="0.5" d="M29.7874 99.9099C28.773 98.5653 26.7202 101.549 25.7718 103.607C24.8234 105.666 24.8054 106.831 25.5858 107.647C26.3661 108.463 27.8367 107.971 29.3072 106.02C30.7778 104.07 30.3697 100.9 29.7874 99.9099Z" fill="black"/>
<path d="M22.6207 100.306C26.2221 108.709 31.2341 113.445 33.485 118.853C36.4322 118.655 38.7311 111.531 36.5342 108.487C36.5342 108.487 27.9028 99.1416 27.1225 95.4681C26.4262 92.2088 25.4958 86.8307 25.5739 84.0636C25.6048 83.6129 25.794 83.1877 26.1081 82.8631C27.0144 81.8847 27.0144 81.1044 27.5967 80.0299C28.0468 79.1896 28.545 78.8775 28.401 78.6854C28.2144 78.4857 27.9594 78.3637 27.6868 78.3437C27.4143 78.3237 27.1442 78.4071 26.9304 78.5774C26.5139 78.882 26.1404 79.2413 25.8199 79.6458C25.709 78.5668 25.885 77.4777 26.3302 76.4885C27.3326 74.2196 27.0865 73.0672 24.0312 73.8715C22.1105 74.3817 20.91 75.9783 20.6219 80.5822C20.4885 82.4983 20.4764 84.4209 20.5859 86.3385C20.922 89.8859 21.1321 93.5834 21.5703 96.5425C21.7593 97.8365 22.1123 99.1012 22.6207 100.306Z" fill="#FFA8A7"/>
<path d="M37.4339 108.589L29.8229 99.8859C29.8229 99.8859 30.7292 102.005 28.7484 105.096C26.7676 108.187 25.5912 107.647 25.5912 107.647C25.5912 107.647 30.087 114.208 31.2874 116.404C32.4879 118.601 33.7424 120.456 33.7424 120.456C33.8752 120.712 34.0817 120.923 34.3352 121.061C34.5887 121.199 34.8777 121.258 35.165 121.23C36.2814 121.23 39.2406 116.272 37.4339 108.589Z" fill="#079BE0"/>
<path opacity="0.3" d="M37.4339 108.589L29.8229 99.8859C29.8229 99.8859 30.7292 102.005 28.7484 105.096C26.7676 108.187 25.5912 107.647 25.5912 107.647C25.5912 107.647 30.087 114.208 31.2874 116.404C32.4879 118.601 33.7424 120.456 33.7424 120.456C33.8752 120.712 34.0817 120.923 34.3352 121.061C34.5887 121.199 34.8777 121.258 35.165 121.23C36.2814 121.23 39.2406 116.272 37.4339 108.589Z" fill="black"/>
<path d="M99.198 128.151L95.6146 132.923L99.4682 137.335L104.432 131.531L99.198 128.151Z" fill="#F28F8F"/>
<path d="M110.933 117.299C107.806 117.443 106.317 117.899 104.679 119.856C103.04 121.813 94.8527 133.643 94.8527 133.643C94.8527 133.643 96.2993 137.701 99.4685 137.353L105.225 131.416L110.933 117.299Z" fill="#455A64"/>
<path d="M126.275 216.41C126.498 217.655 126.618 218.916 126.636 220.18C126.678 222.461 127.098 223.277 127.152 225.15C127.218 227.293 126.846 228.097 125.951 229.298C125.057 230.498 122.8 231.596 121.834 229.562C120.867 227.527 120.993 226.194 121.305 224.087C121.618 221.981 121.666 220.714 121.846 219.057C122.014 217.593 122.206 216.482 122.206 216.482L126.275 216.41Z" fill="#263238"/>
<path d="M119.787 198.469L127.32 198.331C127.206 203.361 126.407 211.729 126.275 216.44C126.275 217.329 126.275 223.337 125.963 225.168C125.459 227.911 122.206 227.539 122.032 225.9C121.858 224.262 122.242 217.239 122.23 216.512C122.26 213.511 120.843 205.6 120.099 200.168C120.063 199.874 119.823 198.697 119.787 198.469Z" fill="#FFBDA7"/>
<path d="M108.724 212.503C108.724 212.503 109.109 212.503 109.175 212.839C109.241 213.175 109.265 213.811 109.421 214.436C109.677 215.414 109.766 216.429 109.685 217.437C109.559 218.139 107.956 219.184 106.858 219.37C105.759 219.556 104.217 220.636 103.358 221.446C101.98 222.584 100.275 223.253 98.4904 223.355C96.6896 223.355 95.3871 222.755 94.7869 221.771C94.1867 220.786 95.3331 220.672 97.4219 219.316L99.0486 218.259C102.356 216.098 103.568 214.94 104.505 212.779L108.724 212.503Z" fill="#263238"/>
<path d="M104.48 211.326C104.534 209.766 103.742 198.301 103.742 198.301L110.219 199.033C108.682 208.169 108.562 211.284 108.736 212.617C108.769 212.74 108.783 212.868 108.778 212.995C108.778 214.796 106.767 215.732 105.177 216.915C104.576 217.383 102.974 218.823 101.113 219.454C99.9126 219.868 97.6857 220.054 97.4036 219.292C99.3004 217.839 101.893 215.942 103.406 214.28C104.15 213.475 104.426 212.875 104.48 211.326Z" fill="#FFBDA7"/>
<path d="M125.573 146.464C129.102 154.184 125.441 181.362 125.441 181.362C125.549 182.617 126.983 185.078 127.511 190.594C128.142 197.101 126.353 214.538 126.353 214.538C125.722 214.92 125.002 215.13 124.264 215.146C123.527 215.162 122.798 214.983 122.151 214.628C122.151 214.628 117.596 189.009 116.749 182.539C116.035 176.885 114.666 164.46 114.666 164.46L110.777 182.503C111.347 184.325 111.761 186.193 112.013 188.085C112.379 191.891 108.67 211.008 108.67 211.008C108.002 211.284 107.283 211.419 106.56 211.405C105.837 211.39 105.125 211.227 104.468 210.924C104.468 210.924 102.83 186.23 102.481 181.645C101.881 173.937 103.952 149.898 105.363 145.336L125.573 146.464Z" fill="#079BE0"/>
<path opacity="0.5" d="M125.573 146.464C129.102 154.184 125.441 181.362 125.441 181.362C125.549 182.617 126.983 185.078 127.511 190.594C128.142 197.101 126.353 214.538 126.353 214.538C125.722 214.92 125.002 215.13 124.264 215.146C123.527 215.162 122.798 214.983 122.151 214.628C122.151 214.628 117.596 189.009 116.749 182.539C116.035 176.885 114.666 164.46 114.666 164.46L110.777 182.503C111.347 184.325 111.761 186.193 112.013 188.085C112.379 191.891 108.67 211.008 108.67 211.008C108.002 211.284 107.283 211.419 106.56 211.405C105.837 211.39 105.125 211.227 104.468 210.924C104.468 210.924 102.83 186.23 102.481 181.645C101.881 173.937 103.952 149.898 105.363 145.336L125.573 146.464Z" fill="black"/>
<path opacity="0.2" d="M114.679 164.46L113.532 157.293C113.532 157.293 108.682 156.29 106.479 154.22C107.999 156.001 109.986 157.322 112.218 158.031L113.508 163.553L111.251 180.258L114.679 164.46Z" fill="black"/>
<path d="M123.76 122.497L118.958 123.745V113.583C121.611 112.893 123.76 114.424 123.76 117.005V122.497Z" fill="#079BE0"/>
<path opacity="0.6" d="M123.76 122.497L118.958 123.745V113.583C121.611 112.893 123.76 114.424 123.76 117.005V122.497Z" fill="black"/>
<path d="M114.252 115.036L115.975 115C121.233 114.874 125.399 110.342 125.285 104.868C125.285 98.9015 120.663 94.0635 114.937 94.0095C109.21 93.9795 104.541 98.8114 104.511 104.754V105.354C104.655 110.834 109.006 115.15 114.252 115.036Z" fill="#079BE0"/>
<path opacity="0.6" d="M114.252 115.036L115.975 115C121.233 114.874 125.399 110.342 125.285 104.868C125.285 98.9015 120.663 94.0635 114.937 94.0095C109.21 93.9795 104.541 98.8114 104.511 104.754V105.354C104.655 110.834 109.006 115.15 114.252 115.036Z" fill="black"/>
<path d="M122.302 96.5005C122.343 96.3264 122.421 96.1628 122.529 96.0199C122.637 95.877 122.773 95.7579 122.929 95.67C123.085 95.5821 123.257 95.5274 123.435 95.5092C123.614 95.491 123.794 95.5097 123.964 95.5641L123.502 97.3649C123.598 97.2433 123.716 97.1414 123.85 97.0647C124.006 96.9767 124.178 96.9222 124.356 96.905C124.534 96.8878 124.714 96.9081 124.884 96.9647C125.054 97.0212 125.21 97.1128 125.342 97.2334C125.474 97.3541 125.579 97.5011 125.651 97.665L123.31 99.0395C123.188 98.8049 123.134 98.5409 123.154 98.2772C122.819 98.1369 122.547 97.8785 122.39 97.551C122.233 97.2235 122.201 96.8497 122.302 96.5005Z" fill="#079BE0"/>
<path opacity="0.6" d="M122.302 96.5005C122.343 96.3264 122.421 96.1628 122.529 96.0199C122.637 95.877 122.773 95.7579 122.929 95.67C123.085 95.5821 123.257 95.5274 123.435 95.5092C123.614 95.491 123.794 95.5097 123.964 95.5641L123.502 97.3649C123.598 97.2433 123.716 97.1414 123.85 97.0647C124.006 96.9767 124.178 96.9222 124.356 96.905C124.534 96.8878 124.714 96.9081 124.884 96.9647C125.054 97.0212 125.21 97.1128 125.342 97.2334C125.474 97.3541 125.579 97.5011 125.651 97.665L123.31 99.0395C123.188 98.8049 123.134 98.5409 123.154 98.2772C122.819 98.1369 122.547 97.8785 122.39 97.551C122.233 97.2235 122.201 96.8497 122.302 96.5005Z" fill="black"/>
<path d="M119.463 117.713C121.079 117.932 122.682 118.241 124.265 118.637C122.404 123.199 125.321 130.246 125.321 130.246L122.566 138.727C124.469 142.623 126.035 144.556 126.684 147.731C124.931 151.152 112.56 154.418 104.505 148.181C104.505 148.181 104.763 139.52 105.789 134.472C103.154 129.328 103.58 127.815 104.121 126.02C105.375 121.849 107.908 120.246 110.927 117.305L112.728 117.113L119.463 117.713Z" fill="#37474F"/>
<path d="M122.259 142.125C120.765 140.594 117.595 140.156 117.595 140.156L120.506 138.499L123.76 130.642C122.395 127.968 121.72 124.994 121.797 121.993L123.67 121.543C123.442 125.702 125.326 130.252 125.326 130.252L122.571 138.733C124.474 142.629 126.041 144.562 126.689 147.737C125.488 150.078 119.312 152.347 112.949 151.543C121.473 150.966 123.694 143.607 122.259 142.125Z" fill="#263238"/>
<path d="M113.646 151.609L113.298 151.573C113.415 151.575 113.531 151.587 113.646 151.609Z" fill="#E6E6E6"/>
<path d="M108.376 99.3277C107.344 100.276 106.053 102.329 106.155 108.331C106.245 113.433 107.824 114.7 108.622 115.066C109.421 115.432 110.951 115.222 112.446 114.97V117.083C112.446 117.083 110.477 119.268 110.597 120.684C110.717 122.101 113.406 122.671 115.345 121.284C116.711 120.25 117.923 119.027 118.946 117.653V111.236C118.946 111.236 119.823 112.131 121.347 110.786C122.548 109.67 123.004 107.785 122.05 106.765C121.805 106.523 121.504 106.345 121.174 106.247C120.845 106.149 120.496 106.133 120.158 106.201C119.821 106.269 119.506 106.419 119.24 106.638C118.974 106.857 118.766 107.137 118.634 107.455C116.347 107.216 114.12 106.574 112.056 105.558C110.895 105 109.926 104.11 109.271 103.001C108.616 101.892 108.305 100.614 108.376 99.3277Z" fill="#FFBDA7"/>
<path d="M112.452 107.185C112.452 107.301 112.487 107.415 112.551 107.513C112.615 107.61 112.706 107.687 112.813 107.733C112.92 107.78 113.038 107.794 113.153 107.775C113.268 107.755 113.374 107.703 113.46 107.623C113.545 107.544 113.606 107.442 113.634 107.329C113.663 107.215 113.657 107.097 113.619 106.986C113.581 106.876 113.512 106.78 113.42 106.708C113.327 106.637 113.216 106.594 113.1 106.585C112.935 106.581 112.776 106.642 112.655 106.754C112.534 106.866 112.461 107.02 112.452 107.185Z" fill="#263238"/>
<path d="M112.218 111.434L110.615 111.957C110.64 112.066 110.688 112.169 110.755 112.259C110.822 112.35 110.907 112.425 111.004 112.482C111.101 112.538 111.209 112.574 111.321 112.587C111.433 112.599 111.546 112.589 111.653 112.557C111.871 112.475 112.051 112.314 112.155 112.106C112.26 111.898 112.282 111.658 112.218 111.434Z" fill="#F79776"/>
<path d="M106.653 104.886L108.112 104.388C108.089 104.29 108.046 104.199 107.985 104.119C107.924 104.04 107.848 103.974 107.76 103.926C107.672 103.878 107.576 103.848 107.476 103.84C107.376 103.832 107.276 103.845 107.181 103.877C106.985 103.951 106.822 104.094 106.724 104.281C106.627 104.467 106.602 104.682 106.653 104.886Z" fill="#263238"/>
<path d="M118.628 106.885V109.04C118.49 109.045 118.352 109.023 118.223 108.973C118.094 108.924 117.976 108.848 117.877 108.751C117.778 108.655 117.7 108.539 117.648 108.411C117.595 108.283 117.569 108.145 117.572 108.007C117.57 107.72 117.679 107.443 117.875 107.234C118.072 107.025 118.342 106.9 118.628 106.885Z" fill="#079BE0"/>
<path opacity="0.6" d="M118.628 106.885V109.04C118.49 109.045 118.352 109.023 118.223 108.973C118.094 108.924 117.976 108.848 117.877 108.751C117.778 108.655 117.7 108.539 117.648 108.411C117.595 108.283 117.569 108.145 117.572 108.007C117.57 107.72 117.679 107.443 117.875 107.234C118.072 107.025 118.342 106.9 118.628 106.885Z" fill="black"/>
<path d="M107.181 106.975C107.168 107.147 107.224 107.318 107.336 107.45C107.449 107.582 107.609 107.663 107.782 107.677C107.914 107.69 108.047 107.663 108.164 107.6C108.281 107.536 108.376 107.44 108.437 107.322C108.499 107.204 108.523 107.071 108.508 106.939C108.493 106.807 108.439 106.682 108.353 106.581C108.267 106.48 108.152 106.407 108.024 106.372C107.896 106.336 107.76 106.34 107.634 106.382C107.508 106.425 107.398 106.504 107.317 106.609C107.236 106.715 107.189 106.842 107.181 106.975Z" fill="#263238"/>
<path d="M110.603 106.104L110.615 110.282L108.67 109.64L110.603 106.104Z" fill="#F79776"/>
<path d="M112.446 114.994C114.024 114.79 117.248 113.835 117.782 112.503C117.579 113.171 117.179 113.763 116.635 114.202C115.663 115.06 112.434 116.002 112.434 116.002L112.446 114.994Z" fill="#F79776"/>
<path d="M131.653 139.046C131.653 139.046 127.8 144.52 127.14 145.234C126.479 145.948 126.023 145.708 125.309 145.39C124.438 145.038 123.543 144.747 122.632 144.52C121.431 144.226 121.203 145.312 122.368 146.086C123.208 146.651 124.168 146.891 123.772 147.353C122.951 148.096 121.998 148.681 120.963 149.076C118.118 150.198 118.34 150.762 118.862 151.681C119.318 152.485 120.663 154.214 125.729 152.173C127.83 151.326 130.783 148.931 132.176 147.371C134.186 145.144 137.326 141.152 137.326 141.152L131.653 139.046Z" fill="#FFBDA7"/>
<path d="M123.526 118.439C124.919 118.529 127.542 118.865 130.831 124.328C133.718 129.13 138.19 135.618 139.018 137.941C139.354 138.883 138.046 140.834 136.359 142.833C134.06 142.731 131.966 141.14 130.879 139.868C131.164 139.191 131.518 138.545 131.935 137.941L125.189 130.246C125.189 130.246 122.626 127.899 122.092 124.844C121.515 121.531 121.695 118.925 123.526 118.439Z" fill="#455A64"/>
<path d="M85.7529 128.799L102.386 133.181L106.965 151.999L91.149 147.407L85.7529 128.799Z" fill="#079BE0"/>
<path opacity="0.25" d="M85.7529 128.799L102.386 133.181L106.965 151.999L91.149 147.407L85.7529 128.799Z" fill="black"/>
<g opacity="0.1">
<path d="M93.2681 142.125C92.9896 142.706 92.5462 143.192 91.9934 143.523C91.4405 143.854 90.8025 144.015 90.1588 143.985L90.0388 143.571L93.2681 142.125Z" fill="black"/>
</g>
<g opacity="0.1">
<path d="M90.7648 131.789L90.6268 131.152C90.5487 130.804 91.5271 130.786 92.8056 131.152L95.2606 131.753C96.5391 132.089 97.6616 132.641 97.7156 132.989L97.8477 133.625L90.7648 131.789Z" fill="black"/>
</g>
<path d="M89.4865 129.406C89.4385 129.184 89.8346 129.124 90.3688 129.274L91.3412 129.544C91.3412 129.544 91.0531 128.169 93.202 128.649C93.7789 128.734 94.324 128.967 94.7846 129.324C95.2452 129.682 95.6057 130.152 95.831 130.69L96.8634 130.984C97.4637 131.146 97.9559 131.452 98.0219 131.669L98.1479 132.065L89.5765 129.808L89.4865 129.406Z" fill="#37474F"/>
<path d="M90.6688 130.078C91.4492 130.27 91.7793 130.372 91.8693 130.912C91.9594 131.452 92.0614 131.981 92.0614 131.981L95.8489 132.983C95.8489 132.983 95.6628 132.203 95.6028 131.903C95.5428 131.603 95.6748 131.41 96.2811 131.573L96.3291 131.332L90.3867 129.814L90.6688 130.078Z" fill="#37474F"/>
<path d="M90.5368 131.843L90.3987 131.206C90.3207 130.858 91.2991 130.84 92.5776 131.206L95.0326 131.807C96.3111 132.143 97.4336 132.695 97.4876 133.043L97.6196 133.679L90.5368 131.843Z" fill="#37474F"/>
<path d="M87.5057 134.844C87.5057 134.844 88.106 136.975 88.268 137.479C88.4301 137.983 90.2788 138.901 91.4973 139.238C92.7158 139.574 94.0603 139.97 93.4781 141.681C92.9499 143.259 90.9331 143.619 89.9127 143.571C88.8923 143.523 87.4817 142.551 86.9115 140.972C86.2092 138.955 86.5873 136.807 86.3112 135.63C86.0351 134.454 86.8935 134.142 87.5057 134.844Z" fill="#FFBDA7"/>
<path d="M150.513 135.342C152.794 133.043 153.61 133.937 153.899 136.458C154.005 137.516 154.262 138.553 154.661 139.538C154.732 139.014 154.875 138.503 155.087 138.019C155.187 137.757 155.383 137.543 155.634 137.42C155.886 137.296 156.175 137.272 156.444 137.353C156.666 137.443 156.39 137.953 156.444 138.955C156.486 140.204 156.894 140.894 156.6 142.221C156.497 142.72 156.576 143.239 156.822 143.685C158.022 145.966 161.978 150.18 164.751 153.217L175.285 143.703C178.887 140.462 180.051 139.004 183.526 139.238C182.439 139.65 181.438 140.261 180.573 141.038C178.959 142.401 179.343 150.198 179.343 150.198C179.343 150.198 167.386 158.769 166.137 159.586C165.957 159.706 165.771 159.814 165.591 159.916C165.001 160.223 164.324 160.323 163.67 160.197C163.017 160.072 162.424 159.73 161.99 159.226C159.439 156.308 155.717 150.564 153.586 147.581C152.612 146.137 151.744 144.624 150.987 143.055C148.851 138.811 149.085 136.783 150.513 135.342Z" fill="#914F4E"/>
<path d="M183.155 139.046C182.315 138.893 181.452 138.921 180.624 139.128C179.796 139.335 179.022 139.716 178.353 140.246C176.3 141.807 167.549 149.85 167.549 149.85C167.549 149.85 167.308 154.106 171.75 156.639L182.477 149.076L183.155 139.046Z" fill="#079BE0"/>
<path opacity="0.3" d="M183.155 139.046C182.315 138.893 181.452 138.921 180.624 139.128C179.796 139.335 179.022 139.716 178.353 140.246C176.3 141.807 167.549 149.85 167.549 149.85C167.549 149.85 167.308 154.106 171.75 156.639L182.477 149.076L183.155 139.046Z" fill="black"/>
<path d="M193.508 235.06H198.052V243.163H193.508V235.06Z" fill="#914F4E"/>
<path d="M182.296 234.628L177.752 234.79L177.524 226.212L182.296 226.05V234.628Z" fill="#914F4E"/>
<path d="M198.695 164.898C198.695 169.418 198.029 205.798 198.029 205.798C198.131 207.095 199.301 209.496 199.049 214.49C198.707 221.278 198.245 239.099 198.245 239.099C197.464 239.499 196.603 239.716 195.726 239.734C194.85 239.751 193.981 239.569 193.185 239.202C193.185 239.202 188.887 214.502 188.071 207.779C187.362 201.909 186.156 182.149 186.156 182.149L183.695 205.126C184.219 207.596 184.409 210.126 184.259 212.647C184.043 215.756 182.584 231.957 182.584 231.957C181.799 232.422 180.917 232.701 180.007 232.774C179.097 232.847 178.182 232.711 177.332 232.377C177.332 232.377 174.751 207.977 174.697 205.126C174.637 201.873 176.21 164.838 176.21 164.838L198.695 164.898Z" fill="#37474F"/>
<path d="M193.509 240.822V240.15C193.07 240.348 192.062 244.352 190.261 246.074C188.827 247.437 186.87 249.009 186.372 250.528C185.874 252.047 189.097 252.977 190.435 252.731C191.99 252.443 194.691 251.302 195.363 250.246C196.036 249.19 196.36 247.623 196.912 246.849C197.464 246.074 198.713 245.21 199.025 244.31C199.114 243.472 199.026 242.626 198.767 241.825C198.557 240.99 198.329 240.072 198.052 240.15V240.666C197.411 241.191 196.606 241.474 195.778 241.464C195.117 241.488 193.503 241.35 193.509 240.822Z" fill="#263238"/>
<path d="M177.704 233.331C177.47 233.331 177.278 233.685 176.756 234.274C175.984 235.085 175.081 235.761 174.085 236.272C172.38 237.161 169.073 238.529 167.572 239.232C166.636 239.67 166.684 240.846 167.65 241.512C168.617 242.179 170.952 242.665 173.755 242.017C175.279 241.657 177.272 240.216 178.557 240.27C179.841 240.324 182.158 240.33 183.101 239.67C184.043 239.009 183.659 237.575 183.395 236.356C183.107 235.018 182.746 232.935 182.326 233.025V233.487C181.78 234.352 178.959 234.688 177.758 234.087L177.704 233.331Z" fill="#263238"/>
<path d="M186.156 182.161C183.791 181.388 181.629 180.096 179.829 178.379C179.829 178.379 181.03 180.78 184.679 182.977L183.905 203.499L186.156 182.161Z" fill="#263238"/>
<path d="M196.329 140.246C196.329 140.246 199.883 140.57 199.631 147.347L198.844 158.151L198.916 174.358C195.579 178.145 180.759 177.869 175.687 174.052C175.687 174.052 176.209 154.886 176.552 147.509C176.798 142.269 178.004 139.628 183.154 139.052L189.493 139.328L196.329 140.246Z" fill="#079BE0"/>
<path opacity="0.3" d="M186.228 143.799L185.411 149.49L183.508 149.454L185.657 149.79L186.228 143.799Z" fill="black"/>
<path d="M207.608 163.511C205.765 148.685 201.521 141.302 196.353 140.45L196.719 149.934C198.871 154.992 200.52 160.249 201.641 165.63C202.32 169.28 203.106 175.624 202.902 178.739C202.861 179.288 202.627 179.805 202.242 180.198C201.221 181.236 200.915 182.137 200.231 183.307C199.691 184.226 199.138 184.55 199.282 184.772C199.468 185.005 199.737 185.157 200.033 185.195C200.329 185.233 200.628 185.155 200.867 184.976C201.409 184.592 201.904 184.147 202.344 183.649C202.409 185.062 202.155 186.472 201.599 187.773C200.399 190.27 200.591 191.584 203.94 190.846C206.041 190.39 207.542 188.175 208.142 183.007C208.3 181.078 208.334 179.142 208.244 177.209C208.016 172.269 207.974 166.476 207.608 163.511Z" fill="#914F4E"/>
<path d="M196.059 140.204C198.743 140.204 201.192 140.666 203.142 144.406C205.009 148.007 206.444 155.624 207.17 158.115C207.17 158.115 203.25 160.432 199.643 160.372L197.104 151.561C197.104 151.561 195.387 147.449 196.059 140.204Z" fill="#079BE0"/>
<path opacity="0.3" d="M196.059 140.204C198.743 140.204 201.192 140.666 203.142 144.406C205.009 148.007 206.444 155.624 207.17 158.115C207.17 158.115 203.25 160.432 199.643 160.372L197.104 151.561C197.104 151.561 195.387 147.449 196.059 140.204Z" fill="black"/>
<path d="M190.519 124.946C190.465 126.272 190.022 127.553 189.246 128.63C188.47 129.707 187.394 130.531 186.153 131.001C184.911 131.472 183.559 131.567 182.264 131.275C180.969 130.982 179.789 130.316 178.87 129.359C177.951 128.401 177.333 127.194 177.094 125.889C176.855 124.583 177.005 123.236 177.526 122.015C178.046 120.794 178.914 119.753 180.022 119.021C181.129 118.289 182.427 117.899 183.755 117.899C185.585 117.938 187.326 118.703 188.594 120.024C189.862 121.345 190.555 123.115 190.519 124.946Z" fill="#263238"/>
<path d="M194.823 128.469C194.823 128.469 193.785 133.547 193.371 134.382C193.101 134.892 192.642 135.278 192.092 135.456L192.17 131.855L194.823 128.469Z" fill="#263238"/>
<path d="M193.521 121.194C193.521 121.194 194.289 121.038 195.057 122.239C195.735 123.295 195.885 125.672 194.823 128.463L192.872 128.697L193.521 121.194Z" fill="#263238"/>
<path d="M192.284 128.703C192.674 128.949 193.232 128.163 193.719 127.641C194.205 127.119 195.777 126.392 196.564 128.121C197.35 129.85 195.874 132.209 194.631 132.611C192.488 133.313 192.17 131.879 192.17 131.879L192.002 139.928C189.163 144.322 182.722 144.166 185.039 139.712V137.245C184.086 137.403 183.117 137.456 182.152 137.401C180.579 137.149 179.589 135.852 179.109 134.076C178.341 131.224 178.052 128.925 178.701 123.319C179.415 117.173 186.276 117.107 189.985 119.538C193.695 121.969 192.284 128.703 192.284 128.703Z" fill="#914F4E"/>
<path d="M192.038 138.121C191.377 139.473 190.429 140.663 189.259 141.609C188.263 142.342 187.11 142.834 185.891 143.043C186.896 143.724 187.72 144.638 188.292 145.708C189.001 147.275 194.007 142.971 193.959 139.916C193.959 139.916 193.172 136.849 192.098 136.651L192.038 138.121Z" fill="#263238"/>
<path d="M185.885 143.043C185.885 143.043 184.343 142.275 185.033 139.712V137.245L184.355 137.335C183.564 138.105 183.003 139.08 182.734 140.15C182.578 140.852 182.194 144.406 182.872 145.108C183.55 145.81 184.505 143.247 185.885 143.043Z" fill="#263238"/>
<path d="M192.284 129.394C192.482 129.394 193.232 128.103 193.719 127.641C194.397 126.999 193.521 121.194 193.521 121.194C193.697 120.693 193.73 120.153 193.616 119.634C193.501 119.115 193.244 118.639 192.872 118.259C191.942 117.197 190.393 117.059 187.752 116.651C186.698 116.521 185.652 116.33 184.619 116.08C183.529 115.672 182.48 115.162 181.486 114.556C181.173 114.353 180.799 114.268 180.429 114.316C180.259 114.373 180.106 114.474 179.987 114.609C179.868 114.744 179.787 114.908 179.751 115.084C179.691 115.436 179.691 115.795 179.751 116.146C179.417 115.836 178.974 115.67 178.518 115.686C178.062 115.702 177.632 115.898 177.32 116.23C177.025 116.582 176.833 117.007 176.766 117.461C176.698 117.914 176.757 118.377 176.936 118.799C177.319 119.639 177.947 120.344 178.737 120.822C182.056 123.067 185.976 122.443 189.697 122.023C189.873 121.983 190.056 121.996 190.225 122.059C190.825 122.323 190.933 124.13 191.036 124.652C191.336 126.392 191.624 129.382 192.284 129.394Z" fill="#263238"/>
<path d="M193.521 121.501L195.886 120.174C195.814 120.01 195.709 119.863 195.577 119.742C195.444 119.622 195.289 119.53 195.119 119.474C194.949 119.417 194.769 119.397 194.591 119.414C194.413 119.431 194.241 119.486 194.085 119.574C193.771 119.769 193.539 120.074 193.435 120.429C193.331 120.785 193.362 121.166 193.521 121.501Z" fill="#263238"/>
<path d="M185.045 137.245C185.045 137.245 188.557 136.507 189.787 135.828C190.518 135.429 191.11 134.818 191.486 134.076C191.303 134.821 190.974 135.522 190.519 136.14C189.625 137.341 185.045 138.223 185.045 138.223V137.245Z" fill="#783736"/>
<path d="M186.317 127.581C186.313 127.677 186.328 127.773 186.361 127.864C186.394 127.954 186.445 128.037 186.51 128.108C186.575 128.179 186.654 128.236 186.741 128.276C186.829 128.317 186.923 128.339 187.019 128.343C187.214 128.332 187.396 128.246 187.527 128.102C187.659 127.959 187.728 127.769 187.722 127.575C187.722 127.389 187.648 127.21 187.516 127.078C187.384 126.947 187.206 126.873 187.019 126.873C186.833 126.873 186.655 126.947 186.523 127.078C186.391 127.21 186.317 127.389 186.317 127.575V127.581Z" fill="#263238"/>
<path d="M187.524 124.532L189.031 125.396C189.139 125.182 189.163 124.935 189.099 124.704C189.035 124.473 188.886 124.275 188.683 124.148C188.582 124.092 188.472 124.057 188.357 124.047C188.243 124.036 188.128 124.049 188.019 124.085C187.91 124.121 187.81 124.18 187.725 124.256C187.639 124.333 187.571 124.427 187.524 124.532Z" fill="#263238"/>
<path d="M185.363 132.857L183.755 133.487C183.786 133.598 183.841 133.701 183.914 133.789C183.987 133.878 184.078 133.95 184.18 134.002C184.283 134.054 184.395 134.084 184.51 134.09C184.625 134.097 184.739 134.08 184.847 134.04C185.066 133.944 185.242 133.769 185.337 133.55C185.433 133.33 185.442 133.083 185.363 132.857Z" fill="#783736"/>
<path d="M179.283 125.372L180.868 124.604C180.829 124.496 180.768 124.398 180.688 124.316C180.609 124.234 180.513 124.17 180.407 124.127C180.301 124.085 180.188 124.065 180.073 124.07C179.959 124.074 179.848 124.103 179.745 124.154C179.531 124.263 179.365 124.449 179.28 124.674C179.194 124.899 179.196 125.148 179.283 125.372Z" fill="#263238"/>
<path d="M180.321 127.581C180.312 127.679 180.324 127.778 180.355 127.871C180.386 127.965 180.437 128.051 180.503 128.123C180.57 128.196 180.65 128.254 180.741 128.294C180.831 128.334 180.928 128.354 181.027 128.354C181.125 128.354 181.223 128.334 181.313 128.294C181.403 128.254 181.484 128.196 181.55 128.123C181.616 128.051 181.667 127.965 181.698 127.871C181.729 127.778 181.741 127.679 181.732 127.581C181.736 127.485 181.721 127.389 181.688 127.299C181.654 127.209 181.604 127.127 181.538 127.056C181.473 126.986 181.395 126.929 181.307 126.89C181.22 126.85 181.126 126.828 181.03 126.825C180.836 126.832 180.653 126.916 180.52 127.058C180.388 127.199 180.316 127.387 180.321 127.581Z" fill="#263238"/>
<path d="M184.313 127.035L184.235 131.482L181.708 130.906L184.313 127.035Z" fill="#783736"/>
<path d="M187.404 125.744C187.87 125.744 188.318 125.929 188.647 126.259C188.977 126.589 189.163 127.036 189.163 127.503C189.163 127.969 188.977 128.417 188.647 128.746C188.318 129.076 187.87 129.262 187.404 129.262H187.086C186.619 129.262 186.172 129.076 185.842 128.746C185.512 128.417 185.327 127.969 185.327 127.503C185.327 127.036 185.512 126.589 185.842 126.259C186.172 125.929 186.619 125.744 187.086 125.744H187.404ZM189.487 127.503C189.492 126.947 189.276 126.411 188.886 126.014C188.497 125.617 187.966 125.39 187.41 125.384H187.086C186.576 125.451 186.108 125.701 185.769 126.087C185.43 126.474 185.243 126.971 185.243 127.485C185.243 127.999 185.43 128.496 185.769 128.882C186.108 129.269 186.576 129.519 187.086 129.586H187.404C187.955 129.583 188.483 129.362 188.873 128.972C189.263 128.582 189.484 128.054 189.487 127.503Z" fill="#263238"/>
<path d="M181.083 125.744C181.55 125.744 181.997 125.929 182.327 126.259C182.657 126.589 182.842 127.036 182.842 127.503C182.842 127.969 182.657 128.417 182.327 128.746C181.997 129.076 181.55 129.262 181.083 129.262H180.765C180.299 129.262 179.851 129.076 179.522 128.746C179.192 128.417 179.006 127.969 179.006 127.503C179.006 127.036 179.192 126.589 179.522 126.259C179.851 125.929 180.299 125.744 180.765 125.744H181.083ZM183.16 127.503C183.165 126.947 182.949 126.411 182.56 126.014C182.17 125.617 181.639 125.39 181.083 125.384H180.765C180.255 125.451 179.787 125.701 179.448 126.087C179.109 126.474 178.922 126.971 178.922 127.485C178.922 127.999 179.109 128.496 179.448 128.882C179.787 129.269 180.255 129.519 180.765 129.586H181.083C181.632 129.578 182.155 129.355 182.541 128.966C182.927 128.577 183.145 128.051 183.148 127.503H183.16Z" fill="#263238"/>
<path d="M185.033 127.083C184.907 126.908 184.742 126.766 184.551 126.667C184.361 126.568 184.149 126.515 183.934 126.513C183.757 126.493 183.578 126.517 183.412 126.582C183.246 126.647 183.098 126.751 182.98 126.885L182.698 126.669C182.848 126.486 183.041 126.343 183.26 126.254C183.479 126.165 183.717 126.132 183.952 126.158C184.225 126.161 184.493 126.23 184.733 126.358C184.974 126.487 185.179 126.672 185.333 126.897L185.033 127.083Z" fill="#263238"/>
<path d="M189.295 127.065H192.873V127.419H189.295V127.065Z" fill="#263238"/>
</svg>
