<svg xmlns="http://www.w3.org/2000/svg" viewBox="0 0 500 500"><g id="freepik--background-simple--inject-191"><path d="M246.22,110.31c-74.17,33.37-6.84,92.84-49.66,125.23s-159.26-5.06-114.88,79c52.14,98.8,280.46,85.08,329.68-36.1S320.39,76.94,246.22,110.31Z" style="fill:#079BE0"></path><path d="M246.22,110.31c-74.17,33.37-6.84,92.84-49.66,125.23s-159.26-5.06-114.88,79c52.14,98.8,280.46,85.08,329.68-36.1S320.39,76.94,246.22,110.31Z" style="fill:#fff;opacity:0.9"></path></g><g id="freepik--Shadow--inject-191"><ellipse id="freepik--path--inject-191" cx="250" cy="416.24" rx="193.89" ry="11.32" style="fill:#f5f5f5"></ellipse></g><g id="freepik--trash-bin--inject-191"><rect x="391.78" y="312.86" width="33.78" height="23.61" style="fill:#263238"></rect><path d="M380.92,307.51V417.2h46.63V307.51Zm41.55,22.06H407.64v-8.94a3.77,3.77,0,0,1,3.77-3.77h7.29a3.77,3.77,0,0,1,3.77,3.77Z" style="fill:#079BE0"></path><path d="M380.92,307.51V417.2h46.63V307.51Zm41.55,22.06H407.64v-8.94a3.77,3.77,0,0,1,3.77-3.77h7.29a3.77,3.77,0,0,1,3.77,3.77Z" style="fill:#fff;isolation:isolate;opacity:0.6000000000000001"></path><rect x="380.92" y="307.51" width="20" height="109.7" style="fill:#fff;isolation:isolate;opacity:0.4"></rect><rect x="379.72" y="303.57" width="48.93" height="7.22" style="fill:#079BE0"></rect><rect x="379.72" y="303.57" width="22.58" height="7.22" style="fill:#fff;isolation:isolate;opacity:0.2"></rect></g><g id="freepik--Plant--inject-191"><path d="M98.75,386.05s6.13-13.36-.87-26.54-9-16.28-4.57-19,6.51,10.54,6.51,10.54,3.76-9.11.66-18.64-5.06-25.06-.82-26.72.81,19.37,4.49,26.54a61.91,61.91,0,0,0,3.6-15.64c.51-7.66-.28-19.88,3.07-23s5.49-1,2.2,15.93a177.14,177.14,0,0,0-3.27,30.63S117,318,121.9,317.34s4.87,6.53.7,12.76-12.23,17.38-13.55,23.12c0,0,8-16.68,15.15-11.57S118,356.84,112,360.48s-10.14,26.46-10.14,26.46Z" style="fill:#079BE0"></path><path d="M98.75,386.05s6.13-13.36-.87-26.54-9-16.28-4.57-19,6.51,10.54,6.51,10.54,3.76-9.11.66-18.64-5.06-25.06-.82-26.72.81,19.37,4.49,26.54a61.91,61.91,0,0,0,3.6-15.64c.51-7.66-.28-19.88,3.07-23s5.49-1,2.2,15.93a177.14,177.14,0,0,0-3.27,30.63S117,318,121.9,317.34s4.87,6.53.7,12.76-12.23,17.38-13.55,23.12c0,0,8-16.68,15.15-11.57S118,356.84,112,360.48s-10.14,26.46-10.14,26.46Z" style="isolation:isolate;opacity:0.2"></path><path d="M103.59,391.54s-6-13.46,1.19-26.53,9.22-16.14,4.79-18.91-6.63,10.44-6.63,10.44-3.65-9.16-.43-18.65,5.35-25,1.13-26.71-1,19.36-4.81,26.47A62,62,0,0,1,95.42,322c-.42-7.66.52-19.88-2.79-23.06s-5.48-1-2.39,15.9a176.67,176.67,0,0,1,2.9,30.67s-7-22.27-11.88-23-5,6.46-.85,12.75,12,17.56,13.28,23.32c0,0-7.78-16.8-15-11.8s6.06,15.28,12,19,9.82,26.61,9.82,26.61Z" style="fill:#079BE0"></path><polygon points="76.07 381.94 125.35 381.94 121.36 417.21 80.06 417.21 76.07 381.94" style="fill:#263238"></polygon></g><g id="freepik--speech-bubble-3--inject-191"><path d="M357.28,226.56c0-5.86-3.06-11.15-8-14.95a11.4,11.4,0,0,0,.24-2.34c0-7.81-7.93-14.15-17.79-14.33-3-7.54-11.93-13-22.5-13-8.43,0-15.82,3.49-20,8.72a23.69,23.69,0,0,0-3.18-.22c-10.07,0-18.23,6.41-18.23,14.33a11.36,11.36,0,0,0,.71,3.94c-6.42,3.37-10.64,9.11-10.64,15.62,0,6.28,3.92,11.84,9.94,15.25,0,.06,0,.13,0,.2,0,7.68,7.69,14,17.34,14.31,5.33,5.2,13.49,8.53,22.63,8.53A34.38,34.38,0,0,0,325,258.18a22.48,22.48,0,0,0,2.48.14c10.06,0,18.22-6.42,18.22-14.33v-.15C352.69,240.07,357.28,233.73,357.28,226.56Z" style="fill:#079BE0"></path><path d="M226.07,216.63c0,1.31-1.52,2.37-3.39,2.37s-3.39-1.06-3.39-2.37,1.51-2.37,3.39-2.37S226.07,215.32,226.07,216.63Z" style="fill:#079BE0"></path><path d="M252.55,215c0,3.79-4.41,6.86-9.85,6.86s-9.85-3.07-9.85-6.86,4.41-6.86,9.85-6.86S252.55,211.21,252.55,215Z" style="fill:#079BE0"></path><path d="M357.28,226.56c0-5.86-3.06-11.15-8-14.95a11.4,11.4,0,0,0,.24-2.34c0-7.81-7.93-14.15-17.79-14.33-3-7.54-11.93-13-22.5-13-8.43,0-15.82,3.49-20,8.72a23.69,23.69,0,0,0-3.18-.22c-10.07,0-18.23,6.41-18.23,14.33a11.36,11.36,0,0,0,.71,3.94c-6.42,3.37-10.64,9.11-10.64,15.62,0,6.28,3.92,11.84,9.94,15.25,0,.06,0,.13,0,.2,0,7.68,7.69,14,17.34,14.31,5.33,5.2,13.49,8.53,22.63,8.53A34.38,34.38,0,0,0,325,258.18a22.48,22.48,0,0,0,2.48.14c10.06,0,18.22-6.42,18.22-14.33v-.15C352.69,240.07,357.28,233.73,357.28,226.56Z" style="fill:#fff;isolation:isolate;opacity:0.7000000000000001"></path><path d="M226.07,216.63c0,1.31-1.52,2.37-3.39,2.37s-3.39-1.06-3.39-2.37,1.51-2.37,3.39-2.37S226.07,215.32,226.07,216.63Z" style="fill:#fff;isolation:isolate;opacity:0.7000000000000001"></path><path d="M252.55,215c0,3.79-4.41,6.86-9.85,6.86s-9.85-3.07-9.85-6.86,4.41-6.86,9.85-6.86S252.55,211.21,252.55,215Z" style="fill:#fff;isolation:isolate;opacity:0.7000000000000001"></path></g><g id="freepik--speech-bubble-2--inject-191"><path d="M296,139.15c0-7.18-5.08-13.34-12.37-16.09a15,15,0,0,0,.38-3.3c0-8.58-7.27-15.72-16.89-17.3-6.57-8.82-18-14.67-31-14.67s-24.26,5.74-30.86,14.43c-10.59.86-18.86,8.38-18.86,17.54a14.9,14.9,0,0,0,.82,4.87c-5.46,3.18-9,8.5-9,14.52,0,8.45,7,15.5,16.43,17.22,1.44,8.56,10.11,15.14,20.64,15.15a41.36,41.36,0,0,0,47.8-.23c9.13-1.18,16.3-7.35,17.49-15.12C289.43,154.17,296,147.32,296,139.15Z" style="fill:#079BE0"></path><ellipse cx="222.59" cy="189.51" rx="10.15" ry="7.5" style="fill:#079BE0"></ellipse><path d="M214.83,203.14c0,1.3-1.52,2.37-3.39,2.37s-3.39-1.07-3.39-2.37,1.52-2.37,3.39-2.37S214.83,201.83,214.83,203.14Z" style="fill:#079BE0"></path><path d="M296,139.15c0-7.18-5.08-13.34-12.37-16.09a15,15,0,0,0,.38-3.3c0-8.58-7.27-15.72-16.89-17.3-6.57-8.82-18-14.67-31-14.67s-24.26,5.74-30.86,14.43c-10.59.86-18.86,8.38-18.86,17.54a14.9,14.9,0,0,0,.82,4.87c-5.46,3.18-9,8.5-9,14.52,0,8.45,7,15.5,16.43,17.22,1.44,8.56,10.11,15.14,20.64,15.15a41.36,41.36,0,0,0,47.8-.23c9.13-1.18,16.3-7.35,17.49-15.12C289.43,154.17,296,147.32,296,139.15Z" style="fill:#fff;isolation:isolate;opacity:0.7000000000000001"></path><ellipse cx="222.59" cy="189.51" rx="10.15" ry="7.5" style="fill:#fff;isolation:isolate;opacity:0.7000000000000001"></ellipse><path d="M214.83,203.14c0,1.3-1.52,2.37-3.39,2.37s-3.39-1.07-3.39-2.37,1.52-2.37,3.39-2.37S214.83,201.83,214.83,203.14Z" style="fill:#fff;isolation:isolate;opacity:0.7000000000000001"></path></g><g id="freepik--speech-bubble-1--inject-191"><path d="M180.14,191.91c0,2.74-3,5-6.72,5s-6.72-2.22-6.72-5,3-5,6.72-5S180.14,189.17,180.14,191.91Z" style="fill:#079BE0"></path><path d="M189.12,201c0,1.31-1.51,2.37-3.39,2.37s-3.39-1.06-3.39-2.37,1.52-2.37,3.39-2.37S189.12,199.68,189.12,201Z" style="fill:#079BE0"></path><path d="M180.14,191.91c0,2.74-3,5-6.72,5s-6.72-2.22-6.72-5,3-5,6.72-5S180.14,189.17,180.14,191.91Z" style="fill:#fff;isolation:isolate;opacity:0.7000000000000001"></path><path d="M189.12,201c0,1.31-1.51,2.37-3.39,2.37s-3.39-1.06-3.39-2.37,1.52-2.37,3.39-2.37S189.12,199.68,189.12,201Z" style="fill:#fff;isolation:isolate;opacity:0.7000000000000001"></path><path d="M167.75,173.25a10.72,10.72,0,0,0-5.35-7.92,6.56,6.56,0,0,0,0-1.33c-.46-4.38-5.28-7.47-10.82-7-2.11-4.06-7.45-6.61-13.38-6a14.36,14.36,0,0,0-10.7,6.05,13.65,13.65,0,0,0-1.8.06c-5.65.59-9.85,4.66-9.39,9.1a6.62,6.62,0,0,0,.62,2.17c-3.4,2.27-5.43,5.73-5,9.39s2.89,6.41,6.46,8a.37.37,0,0,0,0,.11c.45,4.31,5.12,7.38,10.56,7a18.3,18.3,0,0,0,13.19,3.46,19.36,19.36,0,0,0,9.38-3.48,10.93,10.93,0,0,0,1.39-.06c5.65-.59,9.85-4.66,9.39-9.11,0,0,0,0,0-.08C166,181.1,168.17,177.28,167.75,173.25Z" style="fill:#079BE0"></path><path d="M167.75,173.25a10.72,10.72,0,0,0-5.35-7.92,6.56,6.56,0,0,0,0-1.33c-.46-4.38-5.28-7.47-10.82-7-2.11-4.06-7.45-6.61-13.38-6a14.36,14.36,0,0,0-10.7,6.05,13.65,13.65,0,0,0-1.8.06c-5.65.59-9.85,4.66-9.39,9.1a6.62,6.62,0,0,0,.62,2.17c-3.4,2.27-5.43,5.73-5,9.39s2.89,6.41,6.46,8a.37.37,0,0,0,0,.11c.45,4.31,5.12,7.38,10.56,7a18.3,18.3,0,0,0,13.19,3.46,19.36,19.36,0,0,0,9.38-3.48,10.93,10.93,0,0,0,1.39-.06c5.65-.59,9.85-4.66,9.39-9.11,0,0,0,0,0-.08C166,181.1,168.17,177.28,167.75,173.25Z" style="fill:#fff;isolation:isolate;opacity:0.7000000000000001"></path></g><g id="freepik--Symbol--inject-191"><path d="M314.06,218.88c.19-2.67-2-4.65-5.65-4.91a9,9,0,0,0-8,3.11L296,213.74c2.93-3.43,7.39-5.32,13.35-4.89,7,.5,11.46,4,11.07,9.52-.56,7.78-8.77,7.91-9.18,13.54l-6.06-.43C305.65,224.42,313.71,223.65,314.06,218.88ZM303.83,239.1a3.81,3.81,0,0,1,7.59.55,3.81,3.81,0,0,1-7.59-.55Z" style="fill:#079BE0"></path></g><g id="freepik--light-bulb--inject-191"><path d="M244.65,158.87c-.14,2.73-4,4.76-8.63,4.52s-8.27-2.64-8.13-5.38,4-4.76,8.63-4.52S244.79,156.13,244.65,158.87Z" style="fill:#263238"></path><path d="M248.73,150a2.41,2.41,0,0,0,.84-1.6c.14-2.68-5.46-5.15-12.5-5.51s-12.86,1.53-13,4.21a2.42,2.42,0,0,0,.67,1.67,1.87,1.87,0,0,0-.26.85,2.36,2.36,0,0,0,.68,1.65,1.81,1.81,0,0,0-.27.86,2.26,2.26,0,0,0,.71,1.64,1.75,1.75,0,0,0-.3.88,2.25,2.25,0,0,0,.73,1.63,1.78,1.78,0,0,0-.32.89c-.12,2.23,4.54,4.28,10.39,4.58s10.7-1.26,10.81-3.5a1.69,1.69,0,0,0-.23-.91,2.19,2.19,0,0,0,.89-1.55,1.72,1.72,0,0,0-.2-.9,2.29,2.29,0,0,0,.87-1.56,1.88,1.88,0,0,0-.19-.89,2.3,2.3,0,0,0,.85-1.57A1.88,1.88,0,0,0,248.73,150Z" style="fill:#263238"></path><path d="M248.73,150a2.41,2.41,0,0,0,.84-1.6c.14-2.68-5.46-5.15-12.5-5.51s-12.86,1.53-13,4.21a2.42,2.42,0,0,0,.67,1.67,1.87,1.87,0,0,0-.26.85,2.36,2.36,0,0,0,.68,1.65,1.81,1.81,0,0,0-.27.86,2.26,2.26,0,0,0,.71,1.64,1.75,1.75,0,0,0-.3.88,2.25,2.25,0,0,0,.73,1.63,1.78,1.78,0,0,0-.32.89c-.12,2.23,4.54,4.28,10.39,4.58s10.7-1.26,10.81-3.5a1.69,1.69,0,0,0-.23-.91,2.19,2.19,0,0,0,.89-1.55,1.72,1.72,0,0,0-.2-.9,2.29,2.29,0,0,0,.87-1.56,1.88,1.88,0,0,0-.19-.89,2.3,2.3,0,0,0,.85-1.57A1.88,1.88,0,0,0,248.73,150Z" style="fill:#fff;opacity:0.30000000000000004"></path><path d="M260.52,126.69a22.59,22.59,0,1,0-37.76,15.56,3.71,3.71,0,0,1,1.2,3.27,1.1,1.1,0,0,0,0,.18c-.14,2.73,5.55,5.23,12.7,5.6s13.06-1.55,13.2-4.27v-.18a3.72,3.72,0,0,1,1.56-3.16A22.56,22.56,0,0,0,260.52,126.69Z" style="fill:#079BE0"></path><path d="M260.52,126.69a22.59,22.59,0,1,0-37.76,15.56,3.71,3.71,0,0,1,1.2,3.27,1.1,1.1,0,0,0,0,.18c-.14,2.73,5.55,5.23,12.7,5.6s13.06-1.55,13.2-4.27v-.18a3.72,3.72,0,0,1,1.56-3.16A22.56,22.56,0,0,0,260.52,126.69Z" style="fill:#fff;opacity:0.30000000000000004"></path><path d="M240.77,147.81h-.06a.27.27,0,0,1-.21-.32c.08-.43,2-10.21,7.37-13.76l-3.34-.17a.27.27,0,0,1-.24-.18l-1-2.7-2.82,5.18a.28.28,0,0,1-.49,0l-2.3-5.51-2.79,4.56a.23.23,0,0,1-.24.13.25.25,0,0,1-.23-.15l-2.3-4.8-1.27,2.62a.26.26,0,0,1-.26.15l-3.6-.18c1.42,1.68,5.83,7.49,5.47,14.46a.27.27,0,1,1-.54,0c.41-8-5.7-14.48-5.76-14.55a.26.26,0,0,1,0-.3.27.27,0,0,1,.26-.16l4.07.21,1.44-3a.28.28,0,0,1,.24-.15.29.29,0,0,1,.25.15l2.32,4.86,2.81-4.6a.26.26,0,0,1,.25-.12.26.26,0,0,1,.23.16l2.28,5.48,2.84-5.22a.27.27,0,0,1,.25-.14.28.28,0,0,1,.24.18l1.13,3.09,4.07.21a.27.27,0,0,1,.25.21.26.26,0,0,1-.14.3c-5.7,2.95-7.86,13.75-7.88,13.85A.27.27,0,0,1,240.77,147.81Z" style="fill:#263238"></path><path d="M245.17,109.77c2,4.56-1.72,10.54-8.25,13.37s-13.43,1.42-15.4-3.13,1.72-10.55,8.25-13.38S243.19,105.21,245.17,109.77Z" style="fill:#fff;opacity:0.4"></path><path d="M243,126.1c.79,1.83-.7,4.23-3.32,5.37s-5.39.57-6.18-1.26.69-4.23,3.31-5.37S242.22,124.27,243,126.1Z" style="fill:#fff;opacity:0.4"></path></g><g id="freepik--Gear--inject-191"><path d="M144.67,182.59l1.44,1.19,2.55-2.55-1.19-1.44a9.54,9.54,0,0,0,1.39-3.33l1.85-.18v-3.6l-1.85-.18a9.54,9.54,0,0,0-1.39-3.33l1.19-1.44-2.55-2.55-1.44,1.19a9.63,9.63,0,0,0-3.33-1.38l-.17-1.86h-3.61l-.17,1.86a9.63,9.63,0,0,0-3.33,1.38l-1.44-1.19-2.55,2.55,1.19,1.44a9.54,9.54,0,0,0-1.39,3.33l-1.85.18v3.6l1.85.18a9.54,9.54,0,0,0,1.39,3.33l-1.19,1.44,2.55,2.55,1.44-1.19a9.63,9.63,0,0,0,3.33,1.38l.17,1.86h3.61l.17-1.86A9.63,9.63,0,0,0,144.67,182.59Zm-10.19-8.11a4.89,4.89,0,1,1,4.89,4.88A4.88,4.88,0,0,1,134.48,174.48Z" style="fill:#079BE0"></path></g><g id="freepik--Character--inject-191"><polygon points="144.1 417.21 137.5 417.21 151 346.02 157.6 346.02 144.1 417.21" style="fill:#079BE0"></polygon><polygon points="289.26 417.21 282.65 417.21 296.15 346.02 302.76 346.02 289.26 417.21" style="fill:#079BE0"></polygon><polygon points="144.1 417.21 137.5 417.21 151 346.02 157.6 346.02 144.1 417.21" style="fill:#fff;opacity:0.30000000000000004"></polygon><polygon points="289.26 417.21 282.65 417.21 296.15 346.02 302.76 346.02 289.26 417.21" style="fill:#fff;opacity:0.30000000000000004"></polygon><rect x="147.55" y="379.11" width="199.15" height="6.69" style="fill:#079BE0"></rect><rect x="147.55" y="379.11" width="199.15" height="6.69" style="fill:#fff;opacity:0.5"></rect><polygon points="205 417.21 211.6 417.21 198.1 346.02 191.5 346.02 205 417.21" style="fill:#079BE0"></polygon><polygon points="350.15 417.21 356.75 417.21 343.25 346.02 336.65 346.02 350.15 417.21" style="fill:#079BE0"></polygon><polygon points="205 417.21 211.6 417.21 198.1 346.02 191.5 346.02 205 417.21" style="fill:#fff;opacity:0.30000000000000004"></polygon><polygon points="350.15 417.21 356.75 417.21 343.25 346.02 336.65 346.02 350.15 417.21" style="fill:#fff;opacity:0.30000000000000004"></polygon><polygon points="290.27 343.06 283.7 343.06 272.7 281.91 279.27 281.91 290.27 343.06" style="fill:#079BE0"></polygon><polygon points="290.27 343.06 283.7 343.06 272.7 281.91 279.27 281.91 290.27 343.06" style="fill:#fff;opacity:0.30000000000000004"></polygon><polygon points="159.78 343.06 153.21 343.06 142.21 281.91 148.78 281.91 159.78 343.06" style="fill:#079BE0"></polygon><polygon points="225.03 343.06 218.45 343.06 207.45 281.91 214.03 281.91 225.03 343.06" style="fill:#079BE0"></polygon><polygon points="159.78 343.06 153.21 343.06 142.21 281.91 148.78 281.91 159.78 343.06" style="fill:#fff;opacity:0.30000000000000004"></polygon><polygon points="225.03 343.06 218.45 343.06 207.45 281.91 214.03 281.91 225.03 343.06" style="fill:#fff;opacity:0.30000000000000004"></polygon><polygon points="301.62 286.08 129.05 286.08 126.99 274.64 299.56 274.64 301.62 286.08" style="fill:#079BE0"></polygon><polygon points="305.34 306.79 132.77 306.79 130.71 295.34 303.28 295.34 305.34 306.79" style="fill:#079BE0"></polygon><polygon points="309.06 327.49 136.5 327.49 134.44 316.04 307.01 316.04 309.06 327.49" style="fill:#079BE0"></polygon><rect x="138.2" y="341.25" width="219.93" height="7.92" style="fill:#079BE0"></rect><polygon points="301.62 286.08 129.05 286.08 126.99 274.64 299.56 274.64 301.62 286.08" style="fill:#fff;opacity:0.5"></polygon><polygon points="305.34 306.79 132.77 306.79 130.71 295.34 303.28 295.34 305.34 306.79" style="fill:#fff;opacity:0.5"></polygon><polygon points="309.06 327.49 136.5 327.49 134.44 316.04 307.01 316.04 309.06 327.49" style="fill:#fff;opacity:0.5"></polygon><rect x="138.2" y="341.25" width="219.93" height="7.92" style="fill:#fff;opacity:0.5"></rect><rect x="192.2" y="341.25" width="165.93" height="7.92" style="fill:#fff;opacity:0.2"></rect><g id="freepik--group--inject-191"><path d="M225.89,242.42c7.46.81,15.91,2.24,23.15,1.43a4.48,4.48,0,0,0-1.48,5.86c.31.47.35.42.33.4a32,32,0,0,0-5.85-3.79c-4.32-2.42-15.31-7.8-19.88-10.12l1.93-5.3a159.4,159.4,0,0,1,22,7c4,1.88,10.35,3.83,11.14,9.06.48,8.37-11.8,8.05-17.39,8.12a105.86,105.86,0,0,1-15.64-1.43l1.73-11.27Z" style="fill:#ebc0bb"></path><path d="M241,256.78l-5.12.59-4.48.51-2.59-6.72-3.59-9.33L235.93,243l4.61,1.86A41.09,41.09,0,0,1,241,256.78Z" style="fill:#079BE0"></path><path d="M235.86,257.37l-4.48.51-2.59-6.72C230.92,252.14,234.17,254.1,235.86,257.37Z" style="opacity:0.2"></path><path d="M191.42,251a14,14,0,0,1,9.23-9.13c7.45-2.28,15.63-.37,18.53,1.74S207.25,254.58,191.42,251Z" style="fill:#079BE0"></path><path d="M225.2,241.83s14,20,13.71,58.4l-39.44,7.11c-.71-2.66-1.53-10.65-3.57-21-.87-4.43-2-9.29-3.36-14.35a138,138,0,0,0-7.7-21.3s14.32-4.51,19.51-5.65C209.25,244,225.2,241.83,225.2,241.83Z" style="fill:#263238"></path><path d="M195.75,228.11v0c.39.94.8,2,1.19,3.2,0,0,0,0,0,0,1.78,5.31,3.28,12.39.77,16a16.92,16.92,0,0,0,13.92,2.53c4.61-1,4.23-4.33,2.85-5.92a7,7,0,0,1-5-1.84c-1.7-1.76-1.92-4.54-1.77-7.28Z" style="fill:#eec1bb"></path><path d="M195.75,228.11v0a31.07,31.07,0,0,0,1.19,3.2s0,0,0,0c1.82,4.17,5.79,10.81,12.55,10.72-1.7-1.76-1.92-4.54-1.77-7.28Z" style="opacity:0.2"></path><path d="M317.11,393.08s-16.62-60.17-19.36-63.62c-4.49-5.65-47.5-11.62-47.5-11.62L239,298.39l-40.62,5.69s3,28.57,8,35.93,70.45,6.13,74.81,7.56S302,396,302,396Z" style="fill:#263238"></path><polygon points="211.09 303.45 198.38 305.04 198.86 308.9 212.41 307.3 211.09 303.45" style="fill:#fff;opacity:0.4"></polygon><polygon points="213.02 303.1 214.36 306.99 240.54 302.84 238.91 299.35 213.02 303.1" style="fill:#fff;opacity:0.4"></polygon><path d="M226.81,302.11l.89,2.57a1.45,1.45,0,0,0,1.57.93l4.49-.78a1,1,0,0,0,.8-1.34l-.89-2.57a1.46,1.46,0,0,0-1.58-.93l-4.49.78A1,1,0,0,0,226.81,302.11Z" style="fill:#fff"></path><polygon points="250.25 317.84 235.58 316.19 248.68 315.13 250.25 317.84" style="isolation:isolate;opacity:0.2"></polygon><path d="M210.8,212.66c2.17,1.92.43,5,.83,7.16s1.17,4.87-2,2.31S207.47,210,210.8,212.66Z" style="fill:#263238"></path><path d="M213.94,232a5.74,5.74,0,0,1-3,5.67c-3.17,1.71-8.27,1-12.39-1.66-4.37-2.85-3.6-4.2-5.56-11.21a10,10,0,0,1,11.31-12.69c7,1.17,9.1,11.43,9.56,18.29C213.9,231,213.92,231.49,213.94,232Z" style="fill:#eec1bb"></path><path d="M194.74,229.46c3.51,1.48,3.9-3.22,3.63-3.54-1.2-1.39-1.34-2.71-.6-5.82s-5.65-5.65-9.74-3.76c-3.78,1.74.66,4.24.52,6.88C188.31,227.93,191.91,228.26,194.74,229.46Z" style="fill:#263238"></path><path d="M190.76,230.24a6.61,6.61,0,0,0,4,2.77c2.08.42,2.73-1.66,1.84-3.7-.81-1.84-2.86-4.27-4.8-3.76S189.54,228.46,190.76,230.24Z" style="fill:#eec1bb"></path><path d="M202.18,222.49c.16.6.44.6.84.49s.74-.26.59-.86-.6-1-1-.9S202,221.89,202.18,222.49Z" style="fill:#263238"></path><path d="M209.26,221.57c.15.61.44.6.84.5s.74-.27.58-.87-.59-1-1-.9S209.11,221,209.26,221.57Z" style="fill:#263238"></path><path d="M208.06,222.53a16.73,16.73,0,0,0,3,3.56,2.76,2.76,0,0,1-2.15.87Z" style="fill:#ed847e"></path><path d="M200,221.2a.41.41,0,0,1-.18,0,.37.37,0,0,1-.13-.5,3.68,3.68,0,0,1,2.77-1.87.36.36,0,0,1,.39.34.37.37,0,0,1-.35.39h0a2.94,2.94,0,0,0-2.18,1.51A.38.38,0,0,1,200,221.2Z" style="fill:#263238"></path><path d="M211.45,219a.37.37,0,0,1-.34,0,2.88,2.88,0,0,0-2.59-.44.36.36,0,0,1-.47-.21.37.37,0,0,1,.2-.47,3.62,3.62,0,0,1,3.28.52.38.38,0,0,1,.09.51A.36.36,0,0,1,211.45,219Z" style="fill:#263238"></path><path d="M203.11,215.06s5.76,1.61,7.47-3.46-5.12-7-5.12-7a4,4,0,0,1,.48,3.29s-1.59-3.26-6-1.51-11.37,4.21-12.51,6.85a4.1,4.1,0,0,0,.22,3.95l7.65.71A5.85,5.85,0,0,1,203.11,215.06Z" style="fill:#263238"></path><path d="M208.92,230.54a7.53,7.53,0,0,1-4.82-1.67.37.37,0,0,1,0-.51.36.36,0,0,1,.51,0,7.1,7.1,0,0,0,5.22,1.42.37.37,0,0,1,.4.32.36.36,0,0,1-.31.4A8.44,8.44,0,0,1,208.92,230.54Z" style="fill:#263238"></path><path d="M317.11,393.07,302,396S285.51,349,281.15,347.57s-69.83-.2-74.8-7.56-8-35.93-8-35.93L239,298.39l3.32,5.74,1.86,3.21,6.07,10.5s43,6,47.5,11.62C300.5,332.91,317.11,393.07,317.11,393.07Z" style="fill:#fff;opacity:0.2"></path><path d="M219.77,315.13s47.17-18.07,60-13.06,53.44,50.31,53.44,50.31L324.05,364s-41.11-39.08-45.92-41.31S225,344.74,225,344.74Z" style="fill:#263238"></path><path d="M219.77,315.13s47.17-18.07,60-13.06,53.44,50.31,53.44,50.31L324.05,364s-41.11-39.08-45.92-41.31S225,344.74,225,344.74Z" style="fill:#fff;opacity:0.2"></path><polygon points="339.98 370.54 344.08 363.66 331.64 352.04 327.56 358.92 339.98 370.54" style="fill:#eec1bb"></polygon><polygon points="327.56 358.92 331.65 352.05 338.76 358.69 334.4 365.33 327.56 358.92" style="isolation:isolate;opacity:0.2"></polygon><path d="M344.89,362.82s0,0,.06,0a.21.21,0,0,0,0-.06,10.13,10.13,0,0,0,1.62-1.37,2.2,2.2,0,0,0,.72-1.38,1,1,0,0,0-.62-.87.72.72,0,0,0-.68,0c-.51.26-.84,1.15-1.06,2a2.89,2.89,0,0,0-.92-1.78.71.71,0,0,0-.87.11.89.89,0,0,0-.32.73c0,1.11,1.87,2.44,2,2.52l.06-.12h0l-.05.13a.65.65,0,0,0,0,.13A.14.14,0,0,0,344.89,362.82Zm-.14-.73q0,.11,0,.18c-.57-.49-1.47-1.39-1.49-2a.56.56,0,0,1,.14-.41l.07-.06c.2-.18.34-.14.43-.08A3.69,3.69,0,0,1,344.75,362.09Zm.39.16c.18-1.09.58-2.53,1.08-2.78a.35.35,0,0,1,.33,0,.71.71,0,0,1,.41.55C347,360.56,346.3,361.37,345.14,362.25Z" style="fill:#079BE0"></path><path d="M343.7,362.59l-6,6.66a.57.57,0,0,0,0,.81h0l5,5.1a1.4,1.4,0,0,0,2-.09c2.07-2.36,2.94-3.59,5.56-6.54a74.54,74.54,0,0,0,6.83-8c1.83-2.82-1-4.55-2-3.52-2.43,2.43-7.22,4.41-10.05,4.9A2.22,2.22,0,0,0,343.7,362.59Z" style="fill:#263238"></path><polygon points="325.52 367.68 337.36 354.67 332.42 348.81 319.7 363.34 325.52 367.68" style="fill:#079BE0"></polygon><polygon points="325.52 367.68 337.36 354.67 332.42 348.81 319.7 363.34 325.52 367.68" style="fill:#fff;opacity:0.2"></polygon><path d="M320,406.56s0,0,.06,0l.06,0a9.91,9.91,0,0,0,2.09-.41,2.11,2.11,0,0,0,1.29-.85,1,1,0,0,0-.11-1.06.74.74,0,0,0-.58-.37c-.56,0-1.29.6-1.88,1.21a2.94,2.94,0,0,0,.06-2,.71.71,0,0,0-.81-.33.9.9,0,0,0-.64.48c-.5,1,.44,3.05.49,3.16l.11-.07h0l-.12.08s-.1.09-.1.1Zm.25-.7a1.58,1.58,0,0,0-.12.15,4,4,0,0,1-.3-2.53.52.52,0,0,1,.32-.28l.09,0c.26-.05.37.05.42.15A3.79,3.79,0,0,1,320.26,405.86Zm.25.32c.7-.85,1.74-1.92,2.3-1.89a.35.35,0,0,1,.29.18.7.7,0,0,1,.08.67C322.94,405.61,322,406,320.51,406.18Z" style="fill:#079BE0"></path><polygon points="311.96 410.9 318.9 406.9 313.37 390.07 306.45 394.08 311.96 410.9" style="fill:#eec1bb"></polygon><polygon points="306.45 394.08 313.38 390.08 316.53 399.7 309.48 403.35 306.45 394.08" style="isolation:isolate;opacity:0.2"></polygon><path d="M319.09,405.78l-8.51,2.88a.56.56,0,0,0-.39.7h0l1.87,6.88a1.41,1.41,0,0,0,1.77.89c2.95-1.05,4.31-1.7,8.05-3,2.29-.78,6.91-2.11,9.88-3.67s1.34-4.46-.05-4.06c-3.32.94-8.47.32-11.17-.63A2.25,2.25,0,0,0,319.09,405.78Z" style="fill:#263238"></path><polygon points="302.61 401.35 319.3 395.77 317.85 388.24 299.65 394.71 302.61 401.35" style="fill:#079BE0"></polygon><polygon points="302.61 401.35 319.3 395.77 317.85 388.24 299.65 394.71 302.61 401.35" style="fill:#fff;opacity:0.2"></polygon><path d="M229.63,342.45s42-21.14,49.64-24,24.06,6.23,26.85,28.7l-3.36-3.69s-3.92-12.27-5-14-21.24-4.72-21.24-4.72S245.38,340.35,229.63,342.45Z" style="opacity:0.2"></path><path d="M244.18,307.34,225,313.2s11.17-6.28,17.29-9.07Z" style="opacity:0.2"></path><path d="M189.64,262.17c-3.31,1.22-7.88,2.94-11.08,4.26-3.59,1.52-7.68,3.11-10.69,5.3-.18.12-.28.25-.12,0a3.77,3.77,0,0,0,.14-3,2.94,2.94,0,0,0-1.34-1.66c1.25.82,3.52,2.15,4.89,2.94,3.42,2,7,3.92,10.48,6l-1.81,5.35a70,70,0,0,1-15.46-4c-4-1.32-7.75-3.83-6.82-8.77,1.49-8,21-14.64,28.13-17.16l3.68,10.79Z" style="fill:#ebc0bb"></path><path d="M201,314.25l-7.52,4.22s-3-25.42-5.47-45.17c-.34-2.73-.67-5.36-1-7.79-1-7.89-1.85-13.77-2.17-14.84l10.88-3.73S203.28,272.32,201,314.25Z" style="fill:#079BE0"></path><path d="M198,243c-1.45,3,0,8.33,0,8.33L192.61,255s-1.24-1.51-.85-5S198,243,198,243Z" style="fill:#079BE0"></path><path d="M198,243c-1.45,3,0,8.33,0,8.33L192.61,255s-1.24-1.51-.85-5S198,243,198,243Z" style="fill:#fff;opacity:0.5"></path><path d="M181.83,275.71l6.31,4.28-8.29,4.94s-4.54-4.84-2.22-7.53Z" style="fill:#eec1bb"></path><polygon points="190.06 285.94 183.01 289.7 179.85 284.93 188.14 279.99 190.06 285.94" style="fill:#eec1bb"></polygon><path d="M216.64,242.5s7,6.48,14,25.21c5.77,15.39,4,32.47,11.94,36.94l-2.74-8.33s-1.67-40.54-14.68-54.49Z" style="fill:#079BE0"></path><path d="M210.34,240.91s4.49.22,8.91,5.4l5,.63A19.9,19.9,0,0,0,210.34,240.91Z" style="fill:#079BE0"></path><path d="M210.34,240.91s4.49.22,8.91,5.4l5,.63A19.9,19.9,0,0,0,210.34,240.91Z" style="fill:#fff;opacity:0.5"></path><path d="M188,273.3c-.34-2.73-.67-5.36-1-7.79,1.14-2.51,2.09-4.42,2.09-4.42S190.29,268.24,188,273.3Z" style="opacity:0.2"></path><path d="M184.84,250.67s-9.64,4-17.45,8.1l8,11.67,12.17-.91A17.81,17.81,0,0,0,184.84,250.67Z" style="fill:#079BE0"></path><path d="M213.94,232a5.74,5.74,0,0,1-3,5.67,30.63,30.63,0,0,0-2.17-6l5.09-1.24C213.9,231,213.92,231.49,213.94,232Z" style="opacity:0.1"></path><path d="M224.15,230.94l-7.51-1.54,2.05,8.25s6.78,1,7.13-2.55Z" style="fill:#eec1bb"></path><polygon points="209.5 231.97 213.67 238.46 218.69 237.65 216.64 229.4 209.5 231.97" style="fill:#eec1bb"></polygon></g></g></svg>