<svg width="451" height="410" viewBox="0 0 451 410" fill="none" xmlns="http://www.w3.org/2000/svg">
<path opacity="0.32" d="M450.998 392.993C450.792 393.315 433.624 383.058 412.637 370.086C391.65 357.114 374.805 346.33 375.002 346.007C375.198 345.685 392.376 355.942 413.363 368.914C434.35 381.886 451.195 392.67 450.998 392.993Z" fill="white"/>
<path style="mix-blend-mode:screen" d="M386.333 356.934C382.742 354.13 380.764 350.656 381.935 349.169C383.105 347.681 386.947 348.76 390.539 351.564C394.13 354.368 396.108 357.842 394.937 359.329C393.766 360.817 389.925 359.738 386.333 356.934Z" fill="url(#paint0_radial_1293_974)"/>
<path style="mix-blend-mode:screen" d="M399.905 365.571C396.779 363.131 395.188 359.952 396.347 358.465C397.507 356.977 400.985 357.761 404.11 360.202C407.236 362.642 408.827 365.821 407.668 367.308C406.508 368.796 403.031 368.012 399.905 365.571Z" fill="url(#paint1_radial_1293_974)"/>
<path style="mix-blend-mode:screen" d="M413.147 373.559C410.01 371.107 408.419 367.928 409.578 366.441C410.737 364.954 414.215 365.737 417.352 368.189C420.489 370.641 422.08 373.82 420.921 375.307C419.762 376.794 416.284 376.011 413.147 373.559Z" fill="url(#paint2_radial_1293_974)"/>
<path style="mix-blend-mode:screen" d="M427.682 381.904C424.477 379.645 422.761 376.557 423.852 375.024C424.943 373.492 428.421 374.082 431.626 376.341C434.831 378.612 436.547 381.688 435.456 383.221C434.365 384.754 430.887 384.163 427.682 381.904Z" fill="url(#paint3_radial_1293_974)"/>
<path style="mix-blend-mode:screen" d="M439.934 389.971C436.706 387.451 435.024 384.204 436.183 382.717C437.342 381.23 440.9 382.081 444.128 384.601C447.356 387.122 449.038 390.369 447.878 391.856C446.719 393.343 443.162 392.492 439.934 389.971Z" fill="url(#paint4_radial_1293_974)"/>
<path opacity="0.32" d="M0.00551665 406.155C-0.192309 405.828 16.6037 394.972 37.5249 381.894C58.4461 368.816 75.5717 358.484 75.7739 358.803C75.976 359.122 59.1757 369.986 38.2545 383.064C17.3333 396.142 0.207681 406.474 0.00551665 406.155Z" fill="white"/>
<path style="mix-blend-mode:screen" d="M60.9623 364.131C65.0664 362.151 69.0569 361.916 69.8723 363.624C70.6878 365.332 68.0204 368.299 63.9163 370.279C59.8121 372.258 55.8217 372.494 55.0062 370.786C54.1907 369.078 56.8581 366.11 60.9623 364.131Z" fill="url(#paint5_radial_1293_974)"/>
<path style="mix-blend-mode:screen" d="M47.2092 372.473C50.7813 370.75 54.336 370.73 55.1565 372.428C55.977 374.126 53.7353 376.898 50.1632 378.62C46.591 380.343 43.0363 380.363 42.2158 378.665C41.3953 376.967 43.637 374.195 47.2092 372.473Z" fill="url(#paint6_radial_1293_974)"/>
<path style="mix-blend-mode:screen" d="M34.1866 380.814C37.7739 379.086 41.3287 379.066 42.1492 380.764C42.9697 382.462 40.7279 385.234 37.1406 386.961C33.5533 388.689 29.9985 388.709 29.178 387.011C28.3575 385.313 30.5993 382.541 34.1866 380.814Z" fill="url(#paint7_radial_1293_974)"/>
<path style="mix-blend-mode:screen" d="M20.2686 390.158C23.7131 388.284 27.2417 388.112 28.1331 389.769C29.0245 391.426 26.9558 394.283 23.5114 396.157C20.0568 398.026 16.5383 398.204 15.6469 396.547C14.7555 394.89 16.8241 392.033 20.2686 390.158Z" fill="url(#paint8_radial_1293_974)"/>
<path style="mix-blend-mode:screen" d="M7.61333 397.571C11.302 395.792 14.9581 395.721 15.7786 397.419C16.5991 399.116 14.2611 401.93 10.5724 403.709C6.88373 405.488 3.22766 405.559 2.40714 403.861C1.58662 402.163 3.92466 399.35 7.61333 397.571Z" fill="url(#paint9_radial_1293_974)"/>
<path d="M219.005 410.003C332.225 410.003 424.009 357.023 424.009 291.669C424.009 226.316 332.225 173.336 219.005 173.336C105.784 173.336 14 226.316 14 291.669C14 357.023 105.784 410.003 219.005 410.003Z" fill="#014F98"/>
<path d="M254.093 356.719C274.911 356.719 291.787 346.977 291.787 334.961C291.787 322.944 274.911 313.203 254.093 313.203C233.275 313.203 216.398 322.944 216.398 334.961C216.398 346.977 233.275 356.719 254.093 356.719Z" fill="white" fill-opacity="0.9"/>
<path d="M352.155 343.844C372.973 343.844 389.849 334.102 389.849 322.086C389.849 310.069 372.973 300.328 352.155 300.328C331.337 300.328 314.461 310.069 314.461 322.086C314.461 334.102 331.337 343.844 352.155 343.844Z" fill="white" fill-opacity="0.9"/>
<path d="M145.975 389.351C166.793 389.351 183.67 379.61 183.67 367.594C183.67 355.577 166.793 345.836 145.975 345.836C125.158 345.836 108.281 355.577 108.281 367.594C108.281 379.61 125.158 389.351 145.975 389.351Z" fill="white" fill-opacity="0.9"/>
<path d="M62.396 341.747C61.3302 341.136 60.4648 339.57 60.4648 338.258V148.459C60.4648 147.147 61.3849 145.554 62.5144 144.898L285.856 15.9998C286.995 15.3441 288.771 15.3077 289.837 15.927C290.903 16.5372 291.768 18.1036 291.768 19.4151V209.215C291.768 210.526 290.848 212.12 289.718 212.776L66.3859 341.683C65.2472 342.339 63.4709 342.375 62.4051 341.756L62.396 341.747Z" fill="#455A64"/>
<path d="M65.9864 341.859C65.9864 341.859 65.9317 341.886 65.9044 341.886C65.8406 341.923 65.7678 341.941 65.704 341.959C65.6585 341.977 65.6129 341.995 65.5491 342.005C65.4672 342.032 65.367 342.059 65.2668 342.068C65.2121 342.086 65.1392 342.105 65.0755 342.105C64.9844 342.123 64.8659 342.141 64.7657 342.15C63.9186 342.241 63.035 342.114 62.4064 341.74C61.3315 341.121 60.4844 339.564 60.4844 338.261V172.797L64.3376 175.028V340.484C64.3376 341.413 64.8022 341.95 65.4763 341.95C65.5674 341.95 65.6585 341.941 65.7495 341.913C65.7678 341.913 65.7769 341.913 65.7951 341.904C65.8589 341.895 65.9317 341.877 65.9955 341.85L65.9864 341.859Z" fill="url(#paint10_linear_1293_974)"/>
<path opacity="0.81" d="M65.9864 341.859C65.9864 341.859 65.9317 341.886 65.9044 341.886C65.8406 341.923 65.7678 341.941 65.704 341.959C65.6585 341.977 65.6129 341.995 65.5491 342.005C65.4672 342.032 65.367 342.059 65.2668 342.068C65.2121 342.086 65.1392 342.105 65.0755 342.105C64.9844 342.123 64.8659 342.141 64.7657 342.15C63.9186 342.241 63.035 342.114 62.4064 341.74C61.3315 341.121 60.4844 339.564 60.4844 338.261V172.797L64.3376 175.028V340.484C64.3376 341.413 64.8022 341.95 65.4763 341.95C65.5674 341.95 65.6585 341.941 65.7495 341.913C65.7678 341.913 65.7769 341.913 65.7951 341.904C65.8589 341.895 65.9317 341.877 65.9955 341.85L65.9864 341.859Z" fill="#E0E0E0"/>
<path d="M64.3272 175.036L60.4648 172.805V209.553L64.3272 211.803V175.036Z" fill="url(#paint11_linear_1293_974)"/>
<path opacity="0.15" d="M64.3272 175.036L60.4648 172.805V209.553L64.3272 211.803V175.036Z" fill="black"/>
<path d="M64.9206 148.669C64.5471 149.306 64.3194 150.035 64.3194 150.691V175.026L60.457 172.795V148.468C60.457 148.386 60.457 148.305 60.4661 148.223C60.4844 148.05 60.5117 147.876 60.5481 147.713C60.6483 147.284 60.8305 146.838 61.0582 146.438L64.9115 148.669H64.9206Z" fill="#263238"/>
<path d="M291.76 19.4121V30.3866L128.057 124.877C126.927 125.532 126.007 125.004 126.007 123.693V119.54C126.007 118.228 125.087 117.7 123.948 118.356L74.0933 147.135C72.9546 147.791 72.0346 149.385 72.0346 150.696V154.849C72.0346 156.161 71.1145 157.755 69.985 158.41L64.3281 161.671V150.696C64.3281 149.385 65.2482 147.791 66.3777 147.135L289.71 18.2191C290.84 17.5633 291.76 18.0916 291.76 19.403V19.4121Z" fill="#37474F"/>
<path d="M291.769 209.207C291.769 210.518 290.849 212.112 289.71 212.768L66.3777 341.675C65.2482 342.331 64.3281 341.802 64.3281 340.491V161.675L69.985 158.414C71.1145 157.759 72.9546 147.795 74.0933 147.139L123.11 118.842C124.249 118.187 126.927 125.545 128.057 124.89L291.76 30.3906V209.207H291.769Z" fill="url(#paint12_linear_1293_974)"/>
<path opacity="0.9" d="M291.769 209.207C291.769 210.518 290.849 212.112 289.71 212.768L66.3777 341.675C65.2482 342.331 64.3281 341.802 64.3281 340.491V161.675L69.985 158.414C71.1145 157.759 72.9546 147.795 74.0933 147.139L123.11 118.842C124.249 118.187 126.927 125.545 128.057 124.89L291.76 30.3906V209.207H291.769Z" fill="white"/>
<g opacity="0.4">
<path d="M290.849 31.9662V209.207C290.858 210.19 290.111 211.484 289.255 211.975L65.9223 340.882C65.6763 341.028 65.5214 341.037 65.4668 341.037C65.2482 341.037 65.2391 340.573 65.2391 340.482V162.194L70.4405 159.188C71.2512 158.724 71.7613 157.13 72.9091 153.032C73.4283 151.192 74.2026 148.423 74.6216 147.877L123.238 119.817C123.657 120.29 124.367 121.529 124.805 122.312C126.116 124.626 126.854 125.828 127.911 125.828C128.12 125.828 128.339 125.773 128.521 125.664L290.849 31.9662ZM291.76 30.3906L128.057 124.881C128.011 124.908 127.957 124.926 127.902 124.926C126.754 124.926 124.422 118.797 123.265 118.797C123.211 118.797 123.156 118.806 123.11 118.842L74.0933 147.139C72.9546 147.795 71.1145 157.759 69.985 158.414L64.3281 161.675V340.491C64.3281 341.42 64.7927 341.957 65.4668 341.957C65.7401 341.957 66.0498 341.866 66.3777 341.675L289.71 212.768C290.849 212.112 291.769 210.518 291.769 209.207V43.7513L291.76 30.3906Z" fill="url(#paint13_linear_1293_974)"/>
</g>
<path d="M64.3281 175.034V211.801L291.76 80.5351V43.75L64.3281 175.034Z" fill="url(#paint14_linear_1293_974)"/>
<path d="M291.76 30.3906V43.7513L64.3281 175.035V161.675L68.5548 159.225C69.6844 158.569 70.067 157.576 70.6044 155.664L72.0346 150.691C72.49 148.961 72.9546 147.786 74.0933 147.13L123.11 118.833C124.249 118.178 125.142 118.105 126.007 119.535L127.765 122.722C128.412 123.833 128.731 124.489 129.86 123.833L291.76 30.3906Z" fill="#F0F0F0"/>
<path d="M282.122 26.3001C283.552 25.4713 284.709 26.1453 284.709 27.7937C284.709 29.4422 283.552 31.4458 282.122 32.2746C280.692 33.0943 279.535 32.4294 279.535 30.781C279.535 29.1325 280.692 27.1289 282.122 26.3001Z" fill="url(#paint15_linear_1293_974)"/>
<path d="M272.821 31.6673C274.252 30.8385 275.408 31.5125 275.408 33.1609C275.408 34.8094 274.252 36.813 272.821 37.6418C271.391 38.4615 270.234 37.7966 270.234 36.1482C270.234 34.4997 271.391 32.4961 272.821 31.6673Z" fill="url(#paint16_linear_1293_974)"/>
<path d="M263.513 37.0267C264.943 36.1979 266.1 36.8718 266.1 38.5203C266.1 40.1687 264.943 42.1724 263.513 43.0012C262.083 43.8299 260.926 43.156 260.926 41.5075C260.926 39.8591 262.083 37.8554 263.513 37.0267Z" fill="url(#paint17_linear_1293_974)"/>
<path opacity="0.5" d="M73.7489 162.626L70.5242 164.484L71.7539 162.116C71.8633 161.907 71.8724 161.652 71.7813 161.543C71.6902 161.433 71.5262 161.506 71.4169 161.716L69.6679 165.085C69.6679 165.085 69.6679 165.085 69.6679 165.095C69.6497 165.131 69.6315 165.177 69.6224 165.222C69.6224 165.24 69.6133 165.249 69.6042 165.268C69.5859 165.322 69.5859 165.386 69.5859 165.441C69.5859 165.495 69.5859 165.55 69.6042 165.586C69.6042 165.595 69.6133 165.605 69.6224 165.614C69.6315 165.641 69.6497 165.668 69.6679 165.687L71.4169 167.034C71.4624 167.071 71.5262 167.071 71.59 167.034C71.6629 166.989 71.7357 166.907 71.7813 166.789C71.8724 166.57 71.8633 166.324 71.7539 166.242L70.5242 165.295L73.7489 163.437C73.8946 163.355 74.0039 163.109 74.0039 162.891C74.0039 162.672 73.8855 162.563 73.7489 162.645V162.626Z" fill="#455A64"/>
<path opacity="0.5" d="M76.4426 161.086L79.6672 159.228L78.4375 158.28C78.3282 158.199 78.3191 157.953 78.4102 157.734C78.5013 157.515 78.6652 157.406 78.7745 157.488L80.5235 158.836C80.5417 158.854 80.56 158.882 80.5691 158.909C80.5691 158.909 80.5782 158.927 80.5873 158.936C80.6055 158.982 80.6055 159.027 80.6055 159.082C80.6055 159.137 80.6055 159.2 80.5873 159.255C80.5873 159.273 80.5782 159.282 80.5691 159.291C80.56 159.337 80.5417 159.373 80.5235 159.419C80.5235 159.419 80.5235 159.419 80.5235 159.428L78.7745 162.798C78.729 162.889 78.6652 162.962 78.6015 162.998C78.5286 163.044 78.4557 163.035 78.4102 162.971C78.3191 162.862 78.3282 162.597 78.4375 162.397L79.6672 160.029L76.4426 161.887C76.2968 161.969 76.1875 161.86 76.1875 161.641C76.1875 161.423 76.3059 161.177 76.4426 161.095V161.086Z" fill="#455A64"/>
<path opacity="0.5" d="M87.0291 151.796C87.0109 151.605 86.8379 151.623 86.7559 151.841L86.3095 152.925C85.5535 152.843 84.6425 153.581 84.0231 154.883C83.2215 156.577 83.2215 158.572 84.0231 159.346C84.4239 159.729 84.9431 159.738 85.4715 159.428C85.9998 159.127 86.519 158.517 86.9198 157.67C87.02 157.452 87.02 157.206 86.9198 157.106C86.8196 157.005 86.6557 157.106 86.5555 157.315C85.9634 158.572 84.9887 159.137 84.3875 158.563C83.7954 157.989 83.7954 156.495 84.3875 155.229C84.8156 154.328 85.4259 153.8 85.9543 153.763L85.6172 154.574C85.5352 154.783 85.6172 154.984 85.7447 154.892L87.0565 154.036C87.1476 153.973 87.2204 153.809 87.2022 153.672L87.0109 151.787L87.0291 151.796Z" fill="#455A64"/>
<path opacity="0.5" d="M121.698 124.931L122.873 122.445C123.009 122.153 123.009 121.807 122.873 121.67C122.736 121.534 122.508 121.67 122.372 121.962L121.197 124.448L120.021 123.319C119.885 123.182 119.657 123.319 119.52 123.61C119.384 123.902 119.384 124.248 119.52 124.384L120.696 125.514L119.52 128C119.384 128.292 119.384 128.638 119.52 128.774C119.593 128.838 119.684 128.838 119.776 128.792C119.867 128.738 119.958 128.638 120.031 128.483L121.206 125.996L122.381 127.126C122.454 127.19 122.545 127.19 122.636 127.144C122.727 127.089 122.818 126.989 122.891 126.834C123.028 126.543 123.028 126.197 122.891 126.06L121.716 124.931H121.698Z" fill="#455A64"/>
<path d="M91.3099 154.85V150.697C91.3099 149.385 92.2299 147.792 93.3686 147.136L278.141 40.5237C279.28 39.868 280.2 40.3962 280.2 41.7077V45.8607C280.2 47.1722 279.28 48.766 278.141 49.4217L93.3595 156.034C92.2208 156.69 91.3008 156.161 91.3008 154.85H91.3099Z" fill="white"/>
<path d="M275.344 49.6618C275.29 49.6618 275.235 49.6527 275.189 49.6345C275.044 49.5707 274.898 49.3977 274.934 49.1063L275.144 47.3849C275.144 47.3849 275.144 47.3758 275.144 47.3667L274.315 46.7656C274.197 46.6837 274.133 46.5471 274.133 46.374C274.133 46.1281 274.251 45.864 274.443 45.7274L275.645 44.7984C275.645 44.7984 275.709 44.7256 275.727 44.6618L276.264 42.895C276.355 42.6035 276.565 42.3941 276.802 42.3849C276.966 42.3667 277.121 42.4669 277.194 42.6217L277.676 43.66L278.769 43.241C278.933 43.1773 279.106 43.2137 279.216 43.3412C279.371 43.5143 279.371 43.8057 279.234 44.0789L278.36 45.7183C278.323 45.782 278.314 45.8367 278.323 45.8731L278.533 47.3576C278.569 47.6217 278.442 47.8767 278.296 48.0225C278.177 48.1409 278.032 48.2046 277.886 48.1864L276.811 48.0498L275.763 49.4523C275.627 49.6254 275.481 49.68 275.353 49.68L275.344 49.6618ZM274.67 46.3558L275.499 46.9569C275.636 47.0571 275.7 47.2392 275.672 47.4487L275.499 48.8695L276.401 47.7219C276.529 47.558 276.693 47.476 276.866 47.4942L277.95 47.6308C277.95 47.6308 277.995 47.4851 277.986 47.4123L277.777 45.9277C277.758 45.7729 277.795 45.5999 277.877 45.4451L278.751 43.8057L277.749 44.1882C277.54 44.2702 277.321 44.1882 277.23 43.9788L276.784 43.0225C276.784 43.0225 276.784 43.0316 276.784 43.0407L276.246 44.8075C276.192 44.9715 276.1 45.1263 275.973 45.2174L274.77 46.1463C274.716 46.1919 274.679 46.292 274.679 46.3467L274.67 46.3558Z" fill="#E0E0E0"/>
<g opacity="0.5">
<path d="M282.623 40.0274C282.377 40.0274 282.14 39.8999 282.004 39.6722C281.803 39.3353 281.922 38.8981 282.268 38.6977L288.052 35.3553C288.398 35.1549 288.827 35.2733 289.027 35.6194C289.227 35.9564 289.109 36.3936 288.763 36.5939L282.978 39.9364C282.869 40.0001 282.742 40.0274 282.623 40.0274Z" fill="#455A64"/>
<path d="M282.623 43.3634C282.377 43.3634 282.14 43.2359 282.004 43.0082C281.803 42.6712 281.922 42.234 282.268 42.0337L288.052 38.6912C288.398 38.4909 288.827 38.6093 289.027 38.9554C289.227 39.2923 289.109 39.7295 288.763 39.9299L282.978 43.2723C282.869 43.3361 282.742 43.3634 282.623 43.3634Z" fill="#455A64"/>
<path d="M282.623 46.6993C282.377 46.6993 282.14 46.5718 282.004 46.3441C281.803 46.0071 281.922 45.57 282.268 45.3696L288.052 42.0272C288.398 41.8268 288.827 41.9452 289.027 42.2913C289.227 42.6283 289.109 43.0654 288.763 43.2658L282.978 46.6082C282.869 46.672 282.742 46.6993 282.623 46.6993Z" fill="#455A64"/>
</g>
<path d="M64.3272 161.675V175.036L60.4648 172.805V159.453L64.3272 161.675Z" fill="#E0E0E0"/>
<path d="M221.883 111.055L220.207 112.02L223.969 93.7596L225.791 92.7031L229.553 106.628L227.877 107.594L224.926 96.1275L224.844 96.1731L221.883 111.055ZM222.166 104.588L227.595 101.455V103.495L222.166 106.628V104.588Z" fill="white"/>
<path d="M231.064 105.765V89.6725L232.594 88.7891V94.7727L232.685 94.718C232.776 94.4175 232.904 94.0532 233.068 93.6251C233.232 93.1971 233.469 92.7781 233.76 92.3592C234.061 91.9402 234.443 91.5851 234.935 91.3118C235.564 90.9475 236.138 90.8656 236.63 91.075C237.131 91.2845 237.513 91.7672 237.805 92.5322C238.087 93.2973 238.233 94.3264 238.233 95.6379C238.233 96.9494 238.087 98.1424 237.805 99.2353C237.522 100.328 237.131 101.266 236.639 102.05C236.147 102.833 235.582 103.407 234.944 103.78C234.471 104.053 234.079 104.153 233.778 104.08C233.478 104.008 233.241 103.853 233.068 103.625C232.895 103.397 232.767 103.179 232.676 102.969L232.549 103.042V104.918L231.055 105.774L231.064 105.765ZM232.558 98.871C232.558 99.718 232.64 100.419 232.795 100.966C232.959 101.512 233.186 101.876 233.487 102.059C233.787 102.241 234.161 102.204 234.598 101.958C235.054 101.694 235.436 101.285 235.737 100.738C236.047 100.183 236.274 99.545 236.429 98.8073C236.584 98.0696 236.666 97.3045 236.666 96.494C236.666 95.6834 236.584 95.0277 236.429 94.4812C236.274 93.9348 236.047 93.5705 235.737 93.3792C235.427 93.188 235.045 93.2244 234.589 93.4976C234.143 93.7526 233.769 94.1443 233.469 94.6725C233.168 95.2007 232.931 95.82 232.776 96.5395C232.621 97.259 232.539 98.0331 232.539 98.871H232.558Z" fill="white"/>
<path d="M243.235 98.977C242.497 99.405 241.859 99.5143 241.313 99.3139C240.766 99.1136 240.338 98.6309 240.037 97.875C239.737 97.119 239.582 96.1172 239.582 94.8695C239.582 93.6218 239.737 92.4378 240.037 91.3267C240.338 90.2156 240.766 89.2411 241.313 88.4032C241.859 87.5653 242.506 86.9369 243.235 86.5179C243.964 86.099 244.61 85.9806 245.157 86.181C245.703 86.3813 246.132 86.864 246.432 87.6291C246.733 88.3941 246.888 89.3959 246.888 90.6527C246.888 91.9096 246.733 93.0753 246.432 94.1864C246.132 95.2975 245.703 96.2629 245.157 97.1008C244.61 97.9387 243.964 98.5671 243.235 98.9861V98.977ZM243.235 97.0006C243.709 96.7274 244.109 96.2994 244.419 95.7347C244.729 95.17 244.966 94.5143 245.12 93.7857C245.275 93.0571 245.348 92.3012 245.348 91.527C245.348 90.7529 245.275 90.0881 245.12 89.5325C244.966 88.977 244.738 88.5853 244.419 88.3759C244.1 88.1664 243.709 88.1937 243.235 88.4669C242.752 88.7402 242.36 89.1682 242.042 89.742C241.723 90.3158 241.495 90.9715 241.34 91.7092C241.185 92.4469 241.112 93.1937 241.112 93.9679C241.112 94.742 241.185 95.4068 241.34 95.9624C241.495 96.5179 241.723 96.9005 242.042 97.1099C242.351 97.3194 242.752 97.283 243.235 97.0006Z" fill="white"/>
<path d="M253.556 87.7633V80.6959L255.086 79.8125V91.8799L253.583 92.7451V90.6595L253.501 90.705C253.319 91.4518 253.036 92.1531 252.636 92.8089C252.235 93.4646 251.743 93.9655 251.16 94.3025C250.659 94.5939 250.213 94.6759 249.821 94.5575C249.438 94.4391 249.129 94.1021 248.91 93.5557C248.691 93.0092 248.582 92.2351 248.582 91.2424V83.5648L250.103 82.6814V90.0766C250.103 90.8963 250.249 91.4701 250.55 91.7888C250.841 92.1076 251.233 92.1258 251.707 91.8526C251.989 91.6886 252.28 91.4154 252.563 91.0238C252.845 90.6413 253.082 90.1677 253.273 89.6121C253.465 89.0566 253.556 88.4373 253.556 87.7542V87.7633Z" fill="white"/>
<path d="M260.797 76.5297V78.415L256.516 80.8831V78.9978L260.797 76.5297ZM257.663 75.4459L259.194 74.5625V85.9833C259.194 86.4386 259.239 86.7574 259.33 86.9304C259.421 87.1035 259.531 87.1946 259.677 87.1946C259.822 87.1946 259.968 87.149 260.141 87.0488C260.26 86.976 260.369 86.9031 260.46 86.8212C260.551 86.7392 260.624 86.6754 260.679 86.639L260.952 88.4241C260.861 88.5243 260.733 88.6518 260.569 88.8066C260.405 88.9614 260.205 89.1071 259.959 89.2528C259.558 89.4987 259.185 89.5989 258.839 89.5716C258.492 89.5443 258.21 89.3439 258 88.9887C257.791 88.6335 257.682 88.0871 257.682 87.3585V75.455L257.663 75.4459Z" fill="white"/>
<path d="M271.254 77.5602V70.4928L272.784 69.6094V81.6768L271.281 82.542V80.4564L271.199 80.5019C271.017 81.2487 270.734 81.95 270.334 82.6057C269.933 83.2615 269.441 83.7624 268.858 84.0994C268.357 84.3908 267.911 84.4728 267.528 84.3544C267.145 84.236 266.836 83.899 266.617 83.3525C266.398 82.8061 266.289 82.032 266.289 81.0393V73.3617L267.819 72.4782V79.8735C267.819 80.6932 267.965 81.2669 268.266 81.5857C268.566 81.9045 268.949 81.9227 269.423 81.6494C269.705 81.4855 269.997 81.2123 270.279 80.8207C270.561 80.4382 270.798 79.9646 270.989 79.409C271.181 78.8535 271.272 78.2341 271.263 77.5511L271.254 77.5602Z" fill="white"/>
<path d="M280.711 67.9761L279.327 69.151C279.272 68.9142 279.181 68.7047 279.053 68.5317C278.926 68.3586 278.762 68.2493 278.552 68.2129C278.343 68.1765 278.079 68.2493 277.76 68.4315C277.332 68.6774 276.967 69.0417 276.676 69.4971C276.384 69.9615 276.239 70.426 276.239 70.8905C276.239 71.2912 276.339 71.5645 276.53 71.7011C276.721 71.8377 277.04 71.8559 277.468 71.7648L278.716 71.4825C279.436 71.3186 279.973 71.4096 280.329 71.7375C280.684 72.0654 280.857 72.6574 280.857 73.5135C280.857 74.233 280.72 74.9615 280.447 75.681C280.174 76.4005 279.8 77.0563 279.317 77.6574C278.835 78.2585 278.279 78.732 277.651 79.1054C276.776 79.6155 276.056 79.7339 275.501 79.4789C274.945 79.2238 274.608 78.5954 274.48 77.5936L275.956 76.4005C276.047 76.9379 276.239 77.2748 276.521 77.4115C276.803 77.5481 277.177 77.4843 277.641 77.2202C278.142 76.9288 278.543 76.5371 278.844 76.0453C279.144 75.5535 279.29 75.0708 279.29 74.6064C279.29 74.2238 279.199 73.9597 279.017 73.814C278.835 73.6592 278.552 73.6319 278.179 73.7138L276.849 74.0326C276.12 74.1965 275.574 74.1054 275.227 73.7411C274.881 73.386 274.699 72.7758 274.699 71.9105C274.699 71.2002 274.827 70.4989 275.091 69.8158C275.355 69.1328 275.71 68.5044 276.166 67.9397C276.621 67.375 277.14 66.9197 277.732 66.5827C278.58 66.0909 279.245 65.9907 279.737 66.273C280.219 66.5554 280.547 67.12 280.702 67.9761H280.711Z" fill="white"/>
<path opacity="0.1" d="M74.1939 220.468L137.094 184.156V286.679L74.0117 322.881L74.1939 220.468Z" fill="url(#paint18_linear_1293_974)"/>
<path opacity="0.15" d="M150.959 178.038L226.84 134.24C228.361 133.357 229.6 134.031 229.6 135.734C229.6 137.437 228.37 139.541 226.849 140.424L150.95 184.723C149.429 185.607 148.199 184.905 148.199 183.138V182.82C148.199 181.062 149.438 178.922 150.959 178.038Z" fill="url(#paint19_linear_1293_974)"/>
<path opacity="0.1" d="M150.166 191.317L275.728 118.839C276.821 118.211 277.705 118.657 277.696 119.841C277.696 121.025 276.812 122.491 275.719 123.12L150.156 195.597C149.063 196.226 148.18 195.779 148.18 194.595C148.18 193.411 149.063 191.954 150.156 191.317H150.166Z" fill="url(#paint20_linear_1293_974)"/>
<path opacity="0.1" d="M150.166 199.887L275.728 127.41C276.821 126.781 277.705 127.228 277.696 128.411C277.696 129.595 276.812 131.062 275.719 131.69L150.156 204.167C149.063 204.796 148.18 204.35 148.18 203.166C148.18 201.982 149.063 200.524 150.156 199.887H150.166Z" fill="url(#paint21_linear_1293_974)"/>
<path opacity="0.1" d="M150.166 208.465L275.728 135.988C276.821 135.359 277.705 135.806 277.696 136.99C277.696 138.174 276.812 139.631 275.719 140.268L150.156 212.746C149.063 213.374 148.18 212.928 148.18 211.744C148.18 210.56 149.063 209.103 150.156 208.465H150.166Z" fill="url(#paint22_linear_1293_974)"/>
<path opacity="0.1" d="M150.166 217.043L275.728 144.566C276.821 143.937 277.705 144.384 277.696 145.568C277.696 146.752 276.812 148.218 275.719 148.846L150.156 221.324C149.063 221.952 148.18 221.506 148.18 220.322C148.18 219.138 149.063 217.681 150.156 217.043H150.166Z" fill="url(#paint23_linear_1293_974)"/>
<path opacity="0.1" d="M150.166 225.619L237.77 174.644C238.863 174.016 239.737 174.462 239.737 175.646C239.737 176.83 238.854 178.287 237.76 178.925L150.156 229.899C149.063 230.527 148.18 230.081 148.18 228.897C148.18 227.713 149.063 226.256 150.156 225.619H150.166Z" fill="url(#paint24_linear_1293_974)"/>
<path opacity="0.1" d="M150.166 242.778L275.728 170.3C276.821 169.672 277.705 170.118 277.696 171.302C277.696 172.486 276.812 173.952 275.719 174.581L150.156 247.058C149.063 247.686 148.18 247.24 148.18 246.056C148.18 244.872 149.063 243.415 150.156 242.778H150.166Z" fill="url(#paint25_linear_1293_974)"/>
<path opacity="0.1" d="M150.166 251.34L275.728 178.863C276.821 178.234 277.705 178.681 277.696 179.865C277.696 181.049 276.812 182.515 275.719 183.143L150.156 255.621C149.063 256.249 148.18 255.803 148.18 254.619C148.18 253.435 149.063 251.978 150.156 251.34H150.166Z" fill="url(#paint26_linear_1293_974)"/>
<path opacity="0.1" d="M150.166 259.926L275.728 187.449C276.821 186.82 277.705 187.267 277.696 188.451C277.696 189.635 276.812 191.092 275.719 191.729L150.156 264.206C149.063 264.835 148.18 264.389 148.18 263.205C148.18 262.021 149.063 260.563 150.156 259.926H150.166Z" fill="url(#paint27_linear_1293_974)"/>
<path opacity="0.1" d="M150.166 268.503L196.295 241.582C197.388 240.953 198.263 241.399 198.263 242.583C198.263 243.767 197.379 245.225 196.286 245.862L150.156 272.784C149.063 273.412 148.18 272.966 148.18 271.782C148.18 270.598 149.063 269.141 150.156 268.503H150.166Z" fill="url(#paint28_linear_1293_974)"/>
<path d="M340.657 203.784C347.335 182.126 353.829 167.855 347.207 163.438C341.04 164.576 338.28 167.627 336.968 175.751C335.593 184.275 332.741 196.142 331.074 203C329.744 208.474 327.148 215.35 324.926 219.539C324.534 220.277 323.869 220.842 323.104 221.142C321.045 221.944 320.061 223 318.385 224.193C317.073 225.131 316.108 225.241 316.163 225.632C316.235 226.142 316.837 227.053 318.221 226.898C318.923 226.825 319.888 226.461 321.091 225.978C321.091 225.978 319.879 229.239 317.493 231.224C314.268 233.92 314.751 236.625 319.943 236.935C321.801 237.044 326.119 235.35 330.109 228.547C331.257 226.589 332.596 223.374 333.671 220.705C336.467 213.738 339.318 208.11 340.648 203.774L340.657 203.784Z" fill="#FFA8A7"/>
<path d="M348.392 163.184C348.392 163.184 343.255 162.92 340.148 166.345C337.042 169.769 333.398 190.288 333.398 190.288C333.398 190.288 336.805 194.969 345.796 193.057L348.392 163.184Z" fill="url(#paint29_linear_1293_974)"/>
<path opacity="0.3" d="M348.392 163.184C348.392 163.184 343.255 162.92 340.148 166.345C337.042 169.769 333.398 190.288 333.398 190.288C333.398 190.288 336.805 194.969 345.796 193.057L348.392 163.184Z" fill="black"/>
<path d="M372.419 308.688H365.523V320.983H372.419V308.688Z" fill="#FFA8A7"/>
<path d="M348.508 308.03L341.612 308.276L341.266 295.262L348.508 295.016V308.03Z" fill="#FFA8A7"/>
<path d="M373.397 202.23C373.397 209.088 372.386 264.28 372.386 264.28C372.55 266.256 374.326 269.89 373.934 277.467C373.415 287.768 372.714 314.826 372.714 314.826C372.714 314.826 369.361 316.866 365.034 314.981C365.034 314.981 358.512 277.504 357.273 267.303C356.198 258.396 354.367 228.414 354.367 228.414L350.633 263.278C350.633 263.278 351.908 268.587 351.489 274.689C351.17 279.407 348.947 303.988 348.947 303.988C348.947 303.988 345.704 306.283 340.986 304.626C340.986 304.626 337.06 267.604 336.987 263.278C336.896 258.341 339.282 202.148 339.282 202.148L373.406 202.221L373.397 202.23Z" fill="#37474F"/>
<path d="M365.527 317.442V316.413C364.871 316.714 363.331 322.807 360.599 325.402C358.421 327.47 355.452 329.856 354.705 332.16C353.921 334.555 358.84 335.876 360.872 335.503C363.231 335.065 367.33 333.335 368.351 331.732C369.38 330.129 369.863 327.761 370.692 326.586C371.53 325.411 373.452 324.1 373.907 322.734C374.153 321.987 373.862 320.348 373.516 318.963C373.197 317.697 372.851 316.295 372.432 316.413C372.432 316.568 372.432 317.196 372.432 317.196C371.931 317.77 370.546 318.344 368.979 318.408C367.968 318.444 365.518 318.244 365.527 317.442Z" fill="#263238"/>
<path d="M341.54 306.063C341.185 306.072 340.893 306.6 340.101 307.492C339.144 308.567 337.587 309.733 336.047 310.534C333.46 311.882 328.441 313.95 326.173 315.015C324.752 315.68 324.815 317.465 326.291 318.485C327.758 319.505 331.301 320.234 335.555 319.241C337.869 318.704 340.893 316.472 342.797 316.591C344.71 316.709 348.281 316.682 349.693 315.671C351.105 314.66 350.54 312.502 350.139 310.644C349.702 308.613 349.165 305.461 348.518 305.598V306.299C347.689 307.611 343.407 308.139 341.586 307.174L341.549 306.063H341.54Z" fill="#263238"/>
<path d="M354.367 228.425C354.367 228.425 348.856 226.804 344.766 222.688C344.766 222.688 346.615 226.303 352.126 229.664L350.951 260.793L354.367 228.416V228.425Z" fill="#263238"/>
<path d="M369.806 164.827C369.806 164.827 375.208 165.318 374.816 175.601L373.623 191.976L373.659 216.548C368.585 222.295 346.104 221.876 338.406 216.083C338.406 216.083 339.281 187.003 339.8 175.81C340.173 167.85 342.004 163.852 349.82 162.969L359.44 163.388L369.806 164.808V164.827Z" fill="url(#paint30_linear_1293_974)"/>
<path opacity="0.3" d="M354.477 170.219L353.238 178.853L350.359 178.798L353.611 179.308L354.477 170.219Z" fill="black"/>
<path d="M361.67 141.653C361.67 147.555 357.07 152.345 351.404 152.345C345.738 152.345 341.393 147.555 341.138 141.653C340.682 131.207 345.738 130.961 351.404 130.961C357.07 130.961 361.67 135.751 361.67 141.653Z" fill="#263238"/>
<path d="M367.52 146.953C367.52 146.953 365.944 154.658 365.315 155.924C364.687 157.19 363.375 157.554 363.375 157.554L363.484 152.135L367.52 146.962V146.953Z" fill="#263238"/>
<path d="M365.544 135.914C365.544 135.914 366.673 135.631 367.876 137.507C368.905 139.11 369.142 142.726 367.52 146.952L364.551 147.307L365.544 135.914Z" fill="#263238"/>
<path d="M363.667 147.318C364.259 147.692 365.107 146.499 365.845 145.697C366.582 144.896 368.969 143.803 370.171 146.426C371.392 149.094 369.115 152.628 367.229 153.247C363.977 154.313 363.494 152.136 363.494 152.136L363.248 164.34C358.931 171.007 349.165 170.77 352.682 164.021V160.306C352.682 160.306 349.748 160.77 348.309 160.542C345.922 160.16 344.419 158.193 343.691 155.497C342.525 151.171 342.087 147.674 343.071 139.167C344.155 129.841 354.567 129.741 360.197 133.429C365.817 137.118 363.676 147.309 363.676 147.309L363.667 147.318Z" fill="#FFA8A7"/>
<path d="M363.294 161.6C363.294 161.6 361.773 164.879 359.067 166.891C356.58 168.74 353.957 169.059 353.957 169.059C353.957 169.059 356.489 170.735 357.564 173.103C358.639 175.48 366.227 168.94 366.163 164.314C366.163 164.314 364.97 159.66 363.34 159.359L363.294 161.591V161.6Z" fill="#263238"/>
<path d="M353.965 169.067C353.965 169.067 351.624 167.902 352.672 164.013V160.297L351.651 160.433C350.85 161.153 349.593 162.847 349.183 164.705C348.946 165.77 348.372 171.153 349.401 172.228C350.34 173.202 351.861 169.35 353.956 169.058L353.965 169.067Z" fill="#263238"/>
<path d="M359.677 137.145C359.951 137.108 360.233 137.09 360.479 137.199C361.363 137.6 361.554 140.341 361.709 141.134C362.228 143.802 362.665 148.329 363.667 148.356C363.968 148.356 365.106 146.398 365.844 145.697C366.874 144.722 365.544 135.924 365.544 135.924C365.544 135.924 366.527 133.739 364.551 131.471C362.702 129.358 359.805 128.884 357.154 128.739C354.03 128.565 350.86 128.802 347.781 128.119C346.806 127.901 345.84 127.591 344.847 127.491C344.756 127.482 344.656 127.473 344.583 127.536C344.483 127.618 344.501 127.773 344.519 127.901C344.711 128.821 345.039 129.713 345.494 130.542C343.663 130.396 341.85 130.041 340.092 129.476C339.992 129.44 339.883 129.412 339.783 129.44C339.573 129.504 339.537 129.777 339.555 129.995C339.682 132.208 340.73 135.533 342.525 136.835C343.927 137.855 346.123 138.474 347.853 138.52C352.681 138.647 355.678 137.627 359.677 137.154V137.145Z" fill="#263238"/>
<path d="M365.544 136.376L369.142 134.363C368.632 133.289 367.411 132.87 366.419 133.425C365.426 133.981 365.034 135.301 365.544 136.376Z" fill="#263238"/>
<path d="M352.68 160.293C352.68 160.293 358.018 159.173 359.876 158.144C361.124 157.452 362.153 156.259 362.454 155.484C362.454 155.484 362.108 157.133 360.987 158.617C359.621 160.43 352.68 161.769 352.68 161.769V160.293Z" fill="#F28F8F"/>
<path d="M353.969 145.93C353.969 146.568 354.452 147.087 355.035 147.087C355.627 147.087 356.1 146.568 356.1 145.93C356.1 145.293 355.618 144.773 355.035 144.773C354.442 144.773 353.969 145.293 353.969 145.93Z" fill="#263238"/>
<path d="M355.68 141.317L357.966 142.629C358.303 141.946 358.066 141.099 357.438 140.734C356.809 140.37 356.017 140.634 355.68 141.317Z" fill="#263238"/>
<path d="M353.164 153.617L350.723 154.573C350.969 155.302 351.706 155.675 352.381 155.411C353.055 155.147 353.401 154.346 353.164 153.617Z" fill="#F28F8F"/>
<path d="M344.156 142.302L346.242 140.626C345.814 140.007 345.004 139.88 344.43 140.335C343.856 140.799 343.728 141.674 344.156 142.293V142.302Z" fill="#263238"/>
<path d="M345.078 145.61C345.078 146.247 345.561 146.766 346.144 146.766C346.736 146.766 347.21 146.247 347.21 145.61C347.21 144.972 346.727 144.453 346.144 144.453C345.552 144.453 345.078 144.972 345.078 145.61Z" fill="#263238"/>
<path d="M350.798 144.719L350.671 151.467L346.836 150.593L350.798 144.719Z" fill="#F28F8F"/>
<path d="M380.304 151.503C381.844 149.463 384.959 153.989 386.398 157.113C387.838 160.237 387.856 162.004 386.681 163.242C385.506 164.481 383.265 163.734 381.033 160.774C378.801 157.814 379.421 153.005 380.304 151.503Z" fill="url(#paint31_linear_1293_974)"/>
<path opacity="0.5" d="M380.304 151.503C381.844 149.463 384.959 153.989 386.398 157.113C387.838 160.237 387.856 162.004 386.681 163.242C385.506 164.481 383.265 163.734 381.033 160.774C378.801 157.814 379.421 153.005 380.304 151.503Z" fill="black"/>
<path d="M391.132 152.109C385.703 164.896 378.061 172.046 374.645 180.251C370.163 179.951 366.683 169.14 370.017 164.523C370.017 164.523 383.116 150.343 384.31 144.769C385.366 139.823 386.778 131.663 386.651 127.483C386.632 126.781 386.323 126.144 385.849 125.625C384.473 124.149 384.474 122.956 383.59 121.326C382.898 120.051 382.151 119.577 382.36 119.286C382.633 118.922 383.508 118.439 384.592 119.122C385.138 119.468 385.494 119.869 386.286 120.743C386.286 120.743 386.642 118.494 385.512 115.953C383.991 112.51 384.355 110.761 389.001 111.982C391.907 112.747 393.738 115.169 394.175 122.164C394.302 124.177 394.466 128.348 394.23 130.898C393.729 136.281 393.401 141.891 392.736 146.344C392.444 148.321 391.925 150.261 391.141 152.1L391.132 152.109Z" fill="#FFA8A7"/>
<path d="M368.688 164.667L380.248 151.461C380.248 151.461 378.872 154.685 381.878 159.366C384.884 164.047 386.67 163.246 386.67 163.246C386.67 163.246 379.847 173.2 378.016 176.534C376.185 179.867 374.29 182.672 374.29 182.672C374.29 182.672 373.835 183.847 372.131 183.847C370.428 183.847 365.937 176.324 368.679 164.667H368.688Z" fill="url(#paint32_linear_1293_974)"/>
<path opacity="0.3" d="M368.688 164.667L380.248 151.461C380.248 151.461 378.872 154.685 381.878 159.366C384.884 164.047 386.67 163.246 386.67 163.246C386.67 163.246 379.847 173.2 378.016 176.534C376.185 179.867 374.29 182.672 374.29 182.672C374.29 182.672 373.835 183.847 372.131 183.847C370.428 183.847 365.937 176.324 368.679 164.667H368.688Z" fill="black"/>
<path d="M274.958 194.352L280.405 201.592L274.557 208.295L267.023 199.488L274.958 194.352Z" fill="#F28F8F"/>
<path d="M257.156 177.884C261.902 178.103 264.161 178.84 266.648 181.764C269.071 184.624 281.56 202.656 281.56 202.656C281.56 202.656 279.365 208.813 274.555 208.285L265.819 199.278L257.156 177.875V177.884Z" fill="#455A64"/>
<path d="M233.872 328.273C233.718 329.421 233.39 330.751 233.326 333.984C233.262 337.454 232.625 338.683 232.543 341.525C232.442 344.776 233.007 345.997 234.328 347.818C235.649 349.64 239.11 351.306 240.577 348.219C242.062 345.095 241.852 343.11 241.388 339.913C240.905 336.616 240.841 334.794 240.559 332.281C240.313 330.068 240.012 328.383 240.012 328.383L233.872 328.273Z" fill="#263238"/>
<path d="M243.72 301.006L232.297 300.797C232.47 308.42 233.681 321.116 233.873 328.274C233.909 329.622 233.836 338.739 234.346 341.507C235.112 345.669 240.049 345.105 240.313 342.618C240.577 340.123 239.994 329.476 240.012 328.383C239.967 323.793 242.117 311.817 243.246 303.584C243.301 303.183 243.665 301.398 243.72 301.006Z" fill="#FFBDA7"/>
<path d="M260.51 322.336C260.51 322.336 259.918 322.372 259.827 322.855C259.718 323.429 259.69 324.33 259.454 325.269C259.126 326.571 258.852 328.729 259.044 329.795C259.244 330.861 261.676 332.445 263.334 332.728C265.001 333.01 267.342 334.649 268.645 335.879C270.239 337.381 273.682 338.802 276.033 338.784C278.811 338.766 280.742 337.864 281.662 336.371C282.619 334.822 280.833 334.704 277.654 332.646C276.934 332.181 276.115 331.653 275.194 331.052C270.166 327.773 268.326 326.006 266.905 322.728L260.51 322.345V322.336Z" fill="#263238"/>
<path d="M266.949 320.551C266.867 318.192 268.079 300.797 268.079 300.797L258.25 301.899C260.573 315.77 260.764 320.487 260.5 322.509C260.482 322.564 260.436 322.755 260.436 323.092C260.445 325.788 263.488 327.236 265.856 329.039C266.795 329.75 269.199 331.935 272.023 332.892C273.845 333.511 277.225 333.748 277.662 332.637C274.774 330.433 270.848 327.555 268.553 325.032C267.459 323.83 267.04 322.91 266.958 320.542L266.949 320.551Z" fill="#FFBDA7"/>
<path d="M234.94 222.135C229.575 233.848 235.131 275.086 235.131 275.086C234.968 276.99 232.8 280.724 231.989 289.084C231.032 298.966 233.756 325.414 233.756 325.414C233.756 325.414 236.37 327.363 240.151 325.551C240.151 325.551 247.065 286.68 248.313 276.862C249.397 268.292 251.474 249.44 251.474 249.44L257.376 276.817C257.376 276.817 255.864 281.616 255.509 285.277C254.953 291.061 260.574 320.059 260.574 320.059C260.574 320.059 263.206 321.452 266.95 319.931C266.95 319.931 269.446 282.463 269.965 275.505C270.84 263.811 267.734 227.336 265.593 220.414L234.949 222.126L234.94 222.135Z" fill="url(#paint33_linear_1293_974)"/>
<path opacity="0.5" d="M234.94 222.135C229.575 233.848 235.131 275.086 235.131 275.086C234.968 276.99 232.8 280.724 231.989 289.084C231.032 298.966 233.756 325.414 233.756 325.414C233.756 325.414 236.37 327.363 240.151 325.551C240.151 325.551 247.065 286.68 248.313 276.862C249.397 268.292 251.474 249.44 251.474 249.44L257.376 276.817C257.376 276.817 255.864 281.616 255.509 285.277C254.953 291.061 260.574 320.059 260.574 320.059C260.574 320.059 263.206 321.452 266.95 319.931C266.95 319.931 269.446 282.463 269.965 275.505C270.84 263.811 267.734 227.336 265.593 220.414L234.949 222.126L234.94 222.135Z" fill="black"/>
<path opacity="0.2" d="M251.474 249.451L253.214 238.577C253.214 238.577 260.574 237.056 263.917 233.914C263.917 233.914 260.41 238.267 255.209 239.697L253.25 248.067L256.666 273.422L251.465 249.451H251.474Z" fill="black"/>
<path d="M237.691 185.775L244.988 187.678V172.259C240.962 171.212 237.691 173.534 237.691 177.45V185.775Z" fill="url(#paint34_linear_1293_974)"/>
<path opacity="0.6" d="M237.691 185.775L244.988 187.678V172.259C240.962 171.212 237.691 173.534 237.691 177.45V185.775Z" fill="black"/>
<path d="M252.117 174.452L249.503 174.388C241.523 174.206 235.201 167.321 235.375 159.015C235.329 149.962 242.38 142.585 251.079 142.539C259.769 142.494 266.856 149.789 266.902 158.842L266.884 159.78C266.683 168.068 260.088 174.625 252.127 174.443L252.117 174.452Z" fill="url(#paint35_linear_1293_974)"/>
<path opacity="0.6" d="M252.117 174.452L249.503 174.388C241.523 174.206 235.201 167.321 235.375 159.015C235.329 149.962 242.38 142.585 251.079 142.539C259.769 142.494 266.856 149.789 266.902 158.842L266.884 159.78C266.683 168.068 260.088 174.625 252.127 174.443L252.117 174.452Z" fill="black"/>
<path d="M239.905 146.335C239.613 145.206 238.484 144.568 237.381 144.915L238.083 147.61C237.937 147.428 237.764 147.273 237.554 147.155C236.571 146.581 235.35 146.973 234.812 148.029L238.365 150.124C238.547 149.751 238.62 149.35 238.602 148.958C239.604 148.548 240.187 147.419 239.905 146.335Z" fill="url(#paint36_linear_1293_974)"/>
<path opacity="0.6" d="M239.905 146.335C239.613 145.206 238.484 144.568 237.381 144.915L238.083 147.61C237.937 147.428 237.764 147.273 237.554 147.155C236.571 146.581 235.35 146.973 234.812 148.029L238.365 150.124C238.547 149.751 238.62 149.35 238.602 148.958C239.604 148.548 240.187 147.419 239.905 146.335Z" fill="black"/>
<path d="M244.212 178.512C244.212 178.512 238.938 179.259 236.916 179.915C239.74 186.837 235.313 197.538 235.313 197.538L239.494 210.407C236.615 216.317 234.229 219.25 233.254 224.059C235.914 229.25 254.688 234.204 266.913 224.742C266.913 224.742 266.521 211.6 264.963 203.94C268.962 196.135 268.316 193.84 267.496 191.117C265.592 184.787 261.748 182.347 257.166 177.893L254.406 177.602L244.221 178.521L244.212 178.512Z" fill="#37474F"/>
<path d="M239.975 215.567C242.243 213.244 247.053 212.579 247.053 212.579L242.644 210.066L237.698 198.135C241.132 191.541 240.668 185.011 240.668 185.011L237.835 184.328C238.181 190.64 235.32 197.552 235.32 197.552L239.502 210.421C236.623 216.332 234.236 219.264 233.262 224.073C235.084 227.625 244.457 231.068 254.104 229.856C241.169 228.991 237.807 217.825 239.984 215.585L239.975 215.567Z" fill="#263238"/>
<path d="M253.039 229.945C253.212 229.927 253.394 229.909 253.567 229.891C253.422 229.891 253.249 229.909 253.039 229.945Z" fill="#E6E6E6"/>
<path d="M261.037 150.625C262.604 152.064 264.562 155.188 264.407 164.323C264.271 172.064 261.875 173.986 260.673 174.541C259.47 175.097 257.129 174.778 254.861 174.395L254.834 177.601C254.834 177.601 257.821 180.916 257.639 183.048C257.457 185.179 253.385 186.062 250.443 183.995C247.501 181.927 244.995 178.485 244.995 178.485L244.968 168.749C244.968 168.749 243.638 170.106 241.37 168.057C239.493 166.363 238.847 163.503 240.295 161.955C241.743 160.406 244.44 160.816 245.478 163.002C245.478 163.002 250.652 162.574 255.426 160.079C259.652 157.865 261.347 153.867 261.046 150.625H261.037Z" fill="#FFBDA7"/>
<path d="M254.852 162.543C254.879 163.099 254.487 163.573 253.977 163.6C253.458 163.627 253.021 163.199 252.994 162.644C252.966 162.088 253.358 161.614 253.877 161.587C254.396 161.56 254.834 161.988 254.861 162.543H254.852Z" fill="#263238"/>
<path d="M255.206 169.031L257.638 169.824C257.437 170.552 256.736 170.962 256.062 170.743C255.388 170.525 255.005 169.76 255.206 169.031Z" fill="#F79776"/>
<path d="M263.615 159.049L261.41 158.293C261.574 157.656 262.203 157.31 262.813 157.51C263.423 157.719 263.779 158.402 263.615 159.04V159.049Z" fill="#263238"/>
<path d="M245.477 162.079L245.449 165.349C246.324 165.395 247.034 164.693 247.043 163.783C247.043 162.881 246.351 162.116 245.477 162.07V162.079Z" fill="url(#paint37_linear_1293_974)"/>
<path opacity="0.6" d="M245.477 162.079L245.449 165.349C246.324 165.395 247.034 164.693 247.043 163.783C247.043 162.881 246.351 162.116 245.477 162.07V162.079Z" fill="black"/>
<path d="M262.849 162.231C262.877 162.787 262.485 163.26 261.966 163.287C261.446 163.315 261.009 162.887 260.982 162.331C260.954 161.776 261.346 161.302 261.856 161.275C262.376 161.247 262.813 161.675 262.84 162.231H262.849Z" fill="#263238"/>
<path d="M257.659 160.898L257.641 167.237L260.592 166.272L257.659 160.898Z" fill="#F79776"/>
<path d="M254.862 174.389C252.476 174.079 247.548 172.631 246.773 170.609C246.773 170.609 247.038 171.884 248.513 173.187C249.989 174.489 254.853 175.955 254.853 175.955V174.398L254.862 174.389Z" fill="#F79776"/>
<path d="M225.712 210.914C225.712 210.914 231.561 219.22 232.563 220.304C233.565 221.388 234.248 221.032 235.341 220.55C236.425 220.067 238.493 219.448 239.404 219.22C241.189 218.774 241.572 220.422 239.805 221.606C238.529 222.453 237.063 222.827 237.673 223.528C238.283 224.229 240.178 225.45 241.936 226.142C246.254 227.845 245.917 228.701 245.124 230.094C244.432 231.315 242.419 233.938 234.703 230.832C231.515 229.557 227.033 225.923 224.92 223.583C221.868 220.204 217.113 214.147 217.113 214.147L225.722 210.923L225.712 210.914Z" fill="#FFBDA7"/>
<path d="M238.045 179.617C235.931 179.763 231.95 180.264 226.959 188.552C222.577 195.819 215.8 205.683 214.534 209.207C214.023 210.628 216.009 213.597 218.569 216.63C222.067 216.475 225.246 214.062 226.895 212.131C226.13 210.364 225.282 209.207 225.282 209.207L235.521 197.532C235.521 197.532 239.411 193.971 240.222 189.308C241.096 184.317 240.823 180.355 238.045 179.617Z" fill="#455A64"/>
<path d="M295.368 195.336L270.126 201.984L263.176 230.545L287.179 223.578L295.368 195.336Z" fill="url(#paint38_linear_1293_974)"/>
<path opacity="0.25" d="M295.368 195.336L270.126 201.984L263.176 230.545L287.179 223.578L295.368 195.336Z" fill="black"/>
<g opacity="0.1">
<path d="M283.965 215.562C284.202 216.2 285.75 218.522 288.683 218.386L288.866 217.757L283.965 215.572V215.562Z" fill="black"/>
</g>
<g opacity="0.1">
<path d="M287.761 199.871C287.761 199.871 287.852 199.443 287.97 198.906C288.089 198.378 286.604 198.35 284.664 198.851L280.947 199.817C279.007 200.318 277.34 201.156 277.221 201.693L277.012 202.658L287.77 199.871H287.761Z" fill="black"/>
</g>
<path d="M289.703 196.254C289.776 195.926 289.175 195.835 288.364 196.063L286.889 196.472C286.889 196.472 287.326 194.387 284.056 195.115C280.785 195.844 280.075 198.203 280.075 198.203C280.075 198.203 279.373 198.403 278.499 198.649C277.624 198.895 276.841 199.359 276.741 199.696L276.559 200.298L289.567 196.873C289.567 196.873 289.63 196.591 289.703 196.254Z" fill="#37474F"/>
<path d="M287.906 197.284C286.713 197.575 286.221 197.73 286.039 198.549C285.839 199.488 285.757 200.171 285.757 200.171L280 201.692C280 201.692 280.282 200.508 280.364 200.043C280.455 199.579 280.255 199.305 279.344 199.542L279.262 199.178L288.28 196.883L287.897 197.284H287.906Z" fill="#37474F"/>
<path d="M288.108 199.957C288.108 199.957 288.199 199.529 288.318 198.992C288.436 198.464 286.951 198.436 285.011 198.937L281.295 199.903C279.354 200.404 277.687 201.242 277.569 201.779L277.359 202.744L288.117 199.957H288.108Z" fill="#37474F"/>
<path d="M292.707 204.506C292.707 204.506 291.759 207.739 291.55 208.504C291.331 209.269 288.507 210.653 286.649 211.163C284.791 211.673 282.759 212.274 283.643 214.87C284.454 217.265 287.505 217.812 289.063 217.739C290.621 217.675 292.743 216.181 293.581 213.795C294.647 210.744 294.073 207.475 294.501 205.69C294.929 203.905 293.645 203.44 292.707 204.497V204.506Z" fill="#FFBDA7"/>
<path d="M197.085 205.262C193.624 201.774 192.385 203.131 191.948 206.956C191.629 209.78 190.791 211.628 190.791 211.628C190.545 210.444 190.445 209.907 190.144 209.324C189.543 208.158 188.523 208.131 188.085 208.313C187.748 208.459 188.167 209.27 188.113 210.745C188.049 212.639 187.43 213.696 187.876 215.709C188.04 216.464 187.903 217.248 187.539 217.931C185.672 221.382 179.714 227.785 175.515 232.384C171.798 229.033 163.5 221.528 159.519 217.949C154.062 213.031 152.286 210.818 147.012 211.182C147.012 211.182 149.052 211.801 151.503 213.869C153.944 215.936 153.361 227.767 153.361 227.767C153.361 227.767 171.507 240.781 173.374 242.02C173.647 242.202 173.93 242.366 174.203 242.512C176.025 243.477 178.284 243.022 179.641 241.464C183.513 237.038 189.16 228.322 192.422 223.796C193.952 221.674 195.437 218.769 196.366 216.929C199.609 210.535 199.253 207.448 197.085 205.262Z" fill="#914F4E"/>
<path d="M147.54 210.852C147.54 210.852 151.221 209.886 154.837 212.637C157.952 214.996 171.197 227.181 171.197 227.181C171.197 227.181 171.562 233.63 164.821 237.482L148.533 225.997L147.531 210.843L147.54 210.852Z" fill="url(#paint39_linear_1293_974)"/>
<path opacity="0.3" d="M147.54 210.852C147.54 210.852 151.221 209.886 154.837 212.637C157.952 214.996 171.197 227.181 171.197 227.181C171.197 227.181 171.562 233.63 164.821 237.482L148.533 225.997L147.531 210.843L147.54 210.852Z" fill="black"/>
<path d="M131.833 356.57H124.938V368.865H131.833V356.57Z" fill="#914F4E"/>
<path d="M148.852 355.913L155.747 356.159L156.093 343.153L148.852 342.898V355.913Z" fill="#914F4E"/>
<path d="M123.965 250.121C123.965 256.979 124.976 312.17 124.976 312.17C124.812 314.147 123.036 317.78 123.427 325.358C123.947 335.658 124.648 362.717 124.648 362.717C124.648 362.717 128 364.757 132.327 362.871C132.327 362.871 138.849 325.394 140.088 315.194C141.163 306.287 142.994 276.305 142.994 276.305L146.729 311.168C146.729 311.168 145.454 316.478 145.873 322.58C146.191 327.298 148.414 351.879 148.414 351.879C148.414 351.879 151.657 354.174 156.376 352.516C156.376 352.516 160.302 315.494 160.375 311.168C160.466 306.232 158.079 250.039 158.079 250.039L123.956 250.112L123.965 250.121Z" fill="#37474F"/>
<path d="M131.835 365.325V364.296C132.491 364.597 134.031 370.69 136.763 373.285C138.94 375.353 141.91 377.739 142.657 380.043C143.44 382.438 138.521 383.759 136.49 383.385C134.131 382.948 130.032 381.218 129.011 379.615C127.982 378.012 127.499 375.644 126.67 374.469C125.832 373.294 123.91 371.983 123.455 370.617C123.209 369.87 123.5 368.231 123.846 366.846C124.165 365.58 124.511 364.178 124.93 364.296C124.93 364.451 124.93 365.079 124.93 365.079C125.431 365.653 126.816 366.227 128.383 366.291C129.394 366.327 131.844 366.127 131.835 365.325Z" fill="#263238"/>
<path d="M155.818 353.945C156.173 353.954 156.465 354.483 157.257 355.375C158.214 356.45 159.772 357.616 161.311 358.417C163.898 359.765 168.917 361.832 171.186 362.898C172.607 363.563 172.543 365.348 171.067 366.368C169.601 367.388 166.057 368.117 161.803 367.124C159.489 366.587 156.465 364.355 154.561 364.474C152.648 364.592 149.077 364.565 147.665 363.554C146.253 362.543 146.818 360.384 147.219 358.526C147.656 356.495 148.194 353.344 148.84 353.481V354.182C149.669 355.494 153.951 356.022 155.773 355.056L155.809 353.945H155.818Z" fill="#263238"/>
<path d="M142.992 276.308C142.992 276.308 148.503 274.687 152.593 270.57C152.593 270.57 150.744 274.186 145.233 277.547L146.408 308.676L142.992 276.299V276.308Z" fill="#263238"/>
<path d="M127.554 212.709C127.554 212.709 122.152 213.201 122.544 223.484L123.737 239.859L123.628 264.431C128.702 270.178 151.183 269.759 158.881 263.966C158.881 263.966 158.088 234.886 157.569 223.693C157.195 215.733 155.365 211.735 147.549 210.852L137.929 211.271L127.563 212.691L127.554 212.709Z" fill="url(#paint40_linear_1293_974)"/>
<path opacity="0.3" d="M142.887 218.102L144.126 226.735L147.004 226.681L143.752 227.2L142.887 218.102Z" fill="black"/>
<path d="M110.438 248.007C113.235 225.511 119.675 214.336 127.518 213.016L126.963 227.405C126.963 227.405 121.688 239.418 119.493 251.221C118.464 256.759 117.27 266.385 117.58 271.121C117.635 271.959 118.008 272.742 118.582 273.325C120.131 274.901 120.595 276.267 121.634 278.052C122.445 279.445 123.283 279.937 123.073 280.274C122.791 280.702 121.88 281.294 120.668 280.584C120.058 280.229 119.329 279.5 118.427 278.562C118.427 278.562 118.2 282.032 119.557 284.828C121.397 288.608 121.087 290.611 116.004 289.491C112.816 288.79 110.52 285.429 109.664 277.588C109.418 275.329 109.391 271.677 109.509 268.799C109.819 261.303 109.883 252.515 110.438 248.016V248.007Z" fill="#914F4E"/>
<path d="M127.963 212.649C123.891 212.631 120.174 213.35 117.214 219.042C114.381 224.498 112.195 236.064 111.102 239.844C111.102 239.844 117.05 243.359 122.525 243.277L126.378 229.907C126.378 229.907 128.983 223.669 127.963 212.658V212.649Z" fill="url(#paint41_linear_1293_974)"/>
<path opacity="0.3" d="M127.963 212.649C123.891 212.631 120.174 213.35 117.214 219.042C114.381 224.498 112.195 236.064 111.102 239.844C111.102 239.844 117.05 243.359 122.525 243.277L126.378 229.907C126.378 229.907 128.983 223.669 127.963 212.658V212.649Z" fill="black"/>
<path d="M136.375 189.489C136.375 195.391 140.975 200.181 146.641 200.181C152.307 200.181 156.907 195.391 156.907 189.489C156.907 183.587 152.307 178.797 146.641 178.797C140.975 178.797 136.375 183.587 136.375 189.489Z" fill="#263238"/>
<path d="M129.844 194.844C129.844 194.844 131.42 202.549 132.048 203.815C132.677 205.081 133.988 205.445 133.988 205.445L133.879 200.026L129.844 194.853V194.844Z" fill="#263238"/>
<path d="M131.821 183.812C131.821 183.812 130.691 183.53 129.489 185.406C128.459 187.009 128.223 190.624 129.844 194.85L132.814 195.205L131.821 183.812Z" fill="#263238"/>
<path d="M133.696 195.201C133.103 195.575 132.256 194.381 131.518 193.58C130.781 192.779 128.394 191.686 127.192 194.309C125.971 196.977 128.248 200.511 130.134 201.13C133.386 202.196 133.869 200.019 133.869 200.019L134.115 212.223C138.432 218.89 148.198 218.653 144.681 211.904V208.188C144.681 208.188 147.615 208.653 149.054 208.425C151.44 208.043 152.944 206.075 153.672 203.38C154.838 199.054 155.275 195.556 154.292 187.05C153.208 177.724 142.796 177.624 137.166 181.312C131.546 185.001 133.686 195.192 133.686 195.192L133.696 195.201Z" fill="#914F4E"/>
<path d="M134.069 209.489C134.069 209.489 135.59 212.768 138.296 214.781C140.783 216.629 143.406 216.948 143.406 216.948C143.406 216.948 140.874 218.624 139.799 221.001C138.724 223.378 131.136 216.839 131.2 212.212C131.2 212.212 132.393 207.558 134.023 207.258L134.069 209.489Z" fill="#263238"/>
<path d="M143.398 216.95C143.398 216.95 145.74 215.784 144.692 211.896V208.18L145.712 208.316C146.514 209.036 147.771 210.73 148.181 212.588C148.418 213.653 148.992 219.036 147.962 220.11C147.024 221.085 145.503 217.233 143.408 216.941L143.398 216.95Z" fill="#263238"/>
<path d="M133.697 196.24C133.396 196.24 132.257 194.282 131.52 193.58C130.49 192.606 131.82 183.808 131.82 183.808C131.82 183.808 130.836 181.622 132.813 179.355C134.216 177.743 136.566 177.56 140.574 176.905C142.141 176.65 143.808 176.477 145.329 176.049C146.96 175.584 148.563 174.509 150.084 173.735C150.585 173.48 151.15 173.216 151.697 173.362C152.216 173.499 152.58 173.999 152.717 174.528C152.854 175.056 152.799 175.602 152.744 176.14C153.673 175.111 155.486 175.265 156.434 176.267C157.381 177.278 157.518 178.872 157.007 180.156C156.497 181.44 155.468 182.46 154.32 183.234C149.283 186.641 143.334 185.693 137.687 185.019C137.413 184.983 137.131 184.965 136.885 185.074C136.001 185.475 135.81 188.216 135.655 189.009C135.136 191.677 134.699 196.203 133.697 196.231V196.24Z" fill="#263238"/>
<path d="M131.821 184.274L128.223 182.262C128.733 181.187 129.953 180.768 130.946 181.324C131.939 181.879 132.331 183.2 131.821 184.274Z" fill="#263238"/>
<path d="M144.681 208.192C144.681 208.192 139.342 207.071 137.484 206.042C136.236 205.35 135.207 204.157 134.906 203.383C134.906 203.383 135.252 205.031 136.373 206.516C137.739 208.328 144.681 209.667 144.681 209.667V208.192Z" fill="#783736"/>
<path d="M142.753 193.493C142.753 194.13 142.27 194.649 141.687 194.649C141.095 194.649 140.621 194.13 140.621 193.493C140.621 192.855 141.104 192.336 141.687 192.336C142.279 192.336 142.753 192.855 142.753 193.493Z" fill="#263238"/>
<path d="M140.92 188.872L138.634 190.183C138.297 189.5 138.533 188.653 139.171 188.289C139.8 187.925 140.592 188.189 140.929 188.872H140.92Z" fill="#263238"/>
<path d="M144.199 201.5L146.641 202.456C146.395 203.185 145.657 203.558 144.983 203.294C144.309 203.03 143.963 202.229 144.199 201.5Z" fill="#783736"/>
<path d="M153.436 190.149L151.031 188.974C151.305 188.273 152.07 187.972 152.735 188.291C153.4 188.61 153.709 189.448 153.436 190.14V190.149Z" fill="#263238"/>
<path d="M151.85 193.5C151.85 194.138 151.368 194.657 150.785 194.657C150.192 194.657 149.719 194.138 149.719 193.5C149.719 192.863 150.202 192.344 150.785 192.344C151.377 192.344 151.85 192.863 151.85 193.5Z" fill="#263238"/>
<path d="M145.793 192.672L145.911 199.421L149.746 198.537L145.793 192.672Z" fill="#783736"/>
<path d="M141.101 190.703C139.653 190.703 138.478 191.896 138.478 193.371C138.478 194.847 139.653 196.04 141.101 196.04H141.584C143.032 196.04 144.207 194.847 144.207 193.371C144.207 191.896 143.032 190.703 141.584 190.703H141.101ZM137.949 193.371C137.949 191.604 139.361 190.156 141.101 190.156H141.584C143.324 190.156 144.736 191.595 144.736 193.371C144.736 195.147 143.324 196.586 141.584 196.586H141.101C139.361 196.586 137.949 195.147 137.949 193.371Z" fill="#263238"/>
<path d="M150.71 190.703C149.262 190.703 148.087 191.896 148.087 193.371C148.087 194.847 149.262 196.04 150.71 196.04H151.193C152.642 196.04 153.817 194.847 153.817 193.371C153.817 191.896 152.642 190.703 151.193 190.703H150.71ZM147.559 193.371C147.559 191.604 148.971 190.156 150.71 190.156H151.193C152.933 190.156 154.345 191.595 154.345 193.371C154.345 195.147 152.933 196.586 151.193 196.586H150.71C148.971 196.586 147.559 195.147 147.559 193.371Z" fill="#263238"/>
<path d="M144.698 192.743C144.989 192.251 145.645 191.914 146.365 191.878C146.984 191.841 147.531 192.051 147.813 192.433L148.241 192.105C147.84 191.568 147.148 191.295 146.337 191.331C145.436 191.377 144.634 191.805 144.242 192.452L144.698 192.734V192.743Z" fill="#263238"/>
<path d="M138.23 192.719H132.801V193.256H138.23V192.719Z" fill="#263238"/>
<path d="M409.09 201V272.212" stroke="white" stroke-width="1.39053" stroke-miterlimit="10"/>
<path style="mix-blend-mode:screen" d="M409.085 215.139C405.734 215.139 403 213.45 403 211.382C403 209.314 405.718 207.625 409.085 207.625C412.451 207.625 415.169 209.314 415.169 211.382C415.169 213.45 412.451 215.139 409.085 215.139Z" fill="url(#paint42_radial_1293_974)"/>
<path style="mix-blend-mode:screen" d="M409.085 236.303C405.734 236.303 403 234.614 403 232.546C403 230.478 405.718 228.789 409.085 228.789C412.451 228.789 415.169 230.478 415.169 232.546C415.169 234.614 412.451 236.303 409.085 236.303Z" fill="url(#paint43_radial_1293_974)"/>
<path style="mix-blend-mode:screen" d="M409.085 257.452C405.734 257.452 403 255.763 403 253.695C403 251.627 405.718 249.938 409.085 249.938C412.451 249.938 415.169 251.627 415.169 253.695C415.169 255.763 412.451 257.452 409.085 257.452Z" fill="url(#paint44_radial_1293_974)"/>
<path d="M28.0898 203V274.212" stroke="white" stroke-width="1.39053" stroke-miterlimit="10"/>
<path style="mix-blend-mode:screen" d="M28.0847 217.139C24.7341 217.139 22 215.45 22 213.382C22 211.314 24.7183 209.625 28.0847 209.625C31.451 209.625 34.1694 211.314 34.1694 213.382C34.1694 215.45 31.451 217.139 28.0847 217.139Z" fill="url(#paint45_radial_1293_974)"/>
<path style="mix-blend-mode:screen" d="M28.0847 238.303C24.7341 238.303 22 236.614 22 234.546C22 232.478 24.7183 230.789 28.0847 230.789C31.451 230.789 34.1694 232.478 34.1694 234.546C34.1694 236.614 31.451 238.303 28.0847 238.303Z" fill="url(#paint46_radial_1293_974)"/>
<path style="mix-blend-mode:screen" d="M28.0847 259.452C24.7341 259.452 22 257.763 22 255.695C22 253.627 24.7183 251.938 28.0847 251.938C31.451 251.938 34.1694 253.627 34.1694 255.695C34.1694 257.763 31.451 259.452 28.0847 259.452Z" fill="url(#paint47_radial_1293_974)"/>
<defs>
<radialGradient id="paint0_radial_1293_974" cx="0" cy="0" r="1" gradientUnits="userSpaceOnUse" gradientTransform="translate(388.576 354.341) rotate(128.472) scale(3.71554 8.10509)">
<stop stop-color="white"/>
<stop offset="0.3" stop-color="#33A3FF"/>
<stop offset="0.35" stop-color="#33A3FF" stop-opacity="0.93"/>
<stop offset="0.47" stop-color="#337AFF" stop-opacity="0.76"/>
<stop offset="0.63" stop-color="#334EFF" stop-opacity="0.49"/>
<stop offset="0.81" stop-color="#3363FF" stop-opacity="0.14"/>
<stop offset="1" stop-opacity="0"/>
</radialGradient>
<radialGradient id="paint1_radial_1293_974" cx="0" cy="0" r="1" gradientUnits="userSpaceOnUse" gradientTransform="translate(402.131 362.97) rotate(127.936) scale(3.32043 7.2105)">
<stop stop-color="white"/>
<stop offset="0.3" stop-color="#33A3FF"/>
<stop offset="0.35" stop-color="#33A3FF" stop-opacity="0.93"/>
<stop offset="0.47" stop-color="#337AFF" stop-opacity="0.76"/>
<stop offset="0.63" stop-color="#334EFF" stop-opacity="0.49"/>
<stop offset="0.81" stop-color="#3363FF" stop-opacity="0.14"/>
<stop offset="1" stop-opacity="0"/>
</radialGradient>
<radialGradient id="paint2_radial_1293_974" cx="0" cy="0" r="1" gradientUnits="userSpaceOnUse" gradientTransform="translate(415.373 370.957) rotate(127.93) scale(3.32711 7.22459)">
<stop stop-color="white"/>
<stop offset="0.3" stop-color="#33A3FF"/>
<stop offset="0.35" stop-color="#33A3FF" stop-opacity="0.93"/>
<stop offset="0.47" stop-color="#337AFF" stop-opacity="0.76"/>
<stop offset="0.63" stop-color="#334EFF" stop-opacity="0.49"/>
<stop offset="0.81" stop-color="#3363FF" stop-opacity="0.14"/>
<stop offset="1" stop-opacity="0"/>
</radialGradient>
<radialGradient id="paint3_radial_1293_974" cx="0" cy="0" r="1" gradientUnits="userSpaceOnUse" gradientTransform="translate(429.78 379.202) rotate(129.6) scale(3.2512 7.15138)">
<stop stop-color="white"/>
<stop offset="0.3" stop-color="#33A3FF"/>
<stop offset="0.35" stop-color="#33A3FF" stop-opacity="0.93"/>
<stop offset="0.47" stop-color="#337AFF" stop-opacity="0.76"/>
<stop offset="0.63" stop-color="#334EFF" stop-opacity="0.49"/>
<stop offset="0.81" stop-color="#3363FF" stop-opacity="0.14"/>
<stop offset="1" stop-opacity="0"/>
</radialGradient>
<radialGradient id="paint4_radial_1293_974" cx="0" cy="0" r="1" gradientUnits="userSpaceOnUse" gradientTransform="translate(442.158 387.372) rotate(128.062) scale(3.40731 7.40725)">
<stop stop-color="white"/>
<stop offset="0.3" stop-color="#33A3FF"/>
<stop offset="0.35" stop-color="#33A3FF" stop-opacity="0.93"/>
<stop offset="0.47" stop-color="#337AFF" stop-opacity="0.76"/>
<stop offset="0.63" stop-color="#334EFF" stop-opacity="0.49"/>
<stop offset="0.81" stop-color="#3363FF" stop-opacity="0.14"/>
<stop offset="1" stop-opacity="0"/>
</radialGradient>
<radialGradient id="paint5_radial_1293_974" cx="0" cy="0" r="1" gradientUnits="userSpaceOnUse" gradientTransform="translate(62.2944 367.29) rotate(-115.258) scale(3.71554 8.10509)">
<stop stop-color="white"/>
<stop offset="0.3" stop-color="#33A3FF"/>
<stop offset="0.35" stop-color="#33A3FF" stop-opacity="0.93"/>
<stop offset="0.47" stop-color="#337AFF" stop-opacity="0.76"/>
<stop offset="0.63" stop-color="#334EFF" stop-opacity="0.49"/>
<stop offset="0.81" stop-color="#3363FF" stop-opacity="0.14"/>
<stop offset="1" stop-opacity="0"/>
</radialGradient>
<radialGradient id="paint6_radial_1293_974" cx="0" cy="0" r="1" gradientUnits="userSpaceOnUse" gradientTransform="translate(48.5568 375.621) rotate(-115.794) scale(3.32043 7.2105)">
<stop stop-color="white"/>
<stop offset="0.3" stop-color="#33A3FF"/>
<stop offset="0.35" stop-color="#33A3FF" stop-opacity="0.93"/>
<stop offset="0.47" stop-color="#337AFF" stop-opacity="0.76"/>
<stop offset="0.63" stop-color="#334EFF" stop-opacity="0.49"/>
<stop offset="0.81" stop-color="#3363FF" stop-opacity="0.14"/>
<stop offset="1" stop-opacity="0"/>
</radialGradient>
<radialGradient id="paint7_radial_1293_974" cx="0" cy="0" r="1" gradientUnits="userSpaceOnUse" gradientTransform="translate(35.534 383.962) rotate(-115.801) scale(3.32711 7.22459)">
<stop stop-color="white"/>
<stop offset="0.3" stop-color="#33A3FF"/>
<stop offset="0.35" stop-color="#33A3FF" stop-opacity="0.93"/>
<stop offset="0.47" stop-color="#337AFF" stop-opacity="0.76"/>
<stop offset="0.63" stop-color="#334EFF" stop-opacity="0.49"/>
<stop offset="0.81" stop-color="#3363FF" stop-opacity="0.14"/>
<stop offset="1" stop-opacity="0"/>
</radialGradient>
<radialGradient id="paint8_radial_1293_974" cx="0" cy="0" r="1" gradientUnits="userSpaceOnUse" gradientTransform="translate(21.7631 393.235) rotate(-114.131) scale(3.2512 7.15138)">
<stop stop-color="white"/>
<stop offset="0.3" stop-color="#33A3FF"/>
<stop offset="0.35" stop-color="#33A3FF" stop-opacity="0.93"/>
<stop offset="0.47" stop-color="#337AFF" stop-opacity="0.76"/>
<stop offset="0.63" stop-color="#334EFF" stop-opacity="0.49"/>
<stop offset="0.81" stop-color="#3363FF" stop-opacity="0.14"/>
<stop offset="1" stop-opacity="0"/>
</radialGradient>
<radialGradient id="paint9_radial_1293_974" cx="0" cy="0" r="1" gradientUnits="userSpaceOnUse" gradientTransform="translate(8.96012 400.716) rotate(-115.669) scale(3.40731 7.40725)">
<stop stop-color="white"/>
<stop offset="0.3" stop-color="#33A3FF"/>
<stop offset="0.35" stop-color="#33A3FF" stop-opacity="0.93"/>
<stop offset="0.47" stop-color="#337AFF" stop-opacity="0.76"/>
<stop offset="0.63" stop-color="#334EFF" stop-opacity="0.49"/>
<stop offset="0.81" stop-color="#3363FF" stop-opacity="0.14"/>
<stop offset="1" stop-opacity="0"/>
</radialGradient>
<linearGradient id="paint10_linear_1293_974" x1="60.7636" y1="306.06" x2="67.6738" y2="305.918" gradientUnits="userSpaceOnUse">
<stop stop-color="#4EC4F0"/>
<stop offset="1" stop-color="#3A58A7"/>
</linearGradient>
<linearGradient id="paint11_linear_1293_974" x1="60.6605" y1="203.487" x2="65.4866" y2="203.185" gradientUnits="userSpaceOnUse">
<stop stop-color="#4EC4F0"/>
<stop offset="1" stop-color="#3A58A7"/>
</linearGradient>
<linearGradient id="paint12_linear_1293_974" x1="75.8517" y1="275.52" x2="311.196" y2="167.089" gradientUnits="userSpaceOnUse">
<stop stop-color="#4EC4F0"/>
<stop offset="1" stop-color="#3A58A7"/>
</linearGradient>
<linearGradient id="paint13_linear_1293_974" x1="75.8517" y1="275.52" x2="311.196" y2="167.09" gradientUnits="userSpaceOnUse">
<stop stop-color="#4EC4F0"/>
<stop offset="1" stop-color="#3A58A7"/>
</linearGradient>
<linearGradient id="paint14_linear_1293_974" x1="75.8513" y1="175.967" x2="240.798" y2="35.0756" gradientUnits="userSpaceOnUse">
<stop stop-color="#4EC4F0"/>
<stop offset="1" stop-color="#3A58A7"/>
</linearGradient>
<linearGradient id="paint15_linear_1293_974" x1="279.797" y1="31.201" x2="285.036" y2="28.6401" gradientUnits="userSpaceOnUse">
<stop stop-color="#4EC4F0"/>
<stop offset="1" stop-color="#3A58A7"/>
</linearGradient>
<linearGradient id="paint16_linear_1293_974" x1="270.497" y1="36.5681" x2="275.735" y2="34.0073" gradientUnits="userSpaceOnUse">
<stop stop-color="#4EC4F0"/>
<stop offset="1" stop-color="#3A58A7"/>
</linearGradient>
<linearGradient id="paint17_linear_1293_974" x1="261.188" y1="41.9307" x2="266.428" y2="39.3707" gradientUnits="userSpaceOnUse">
<stop stop-color="#4EC4F0"/>
<stop offset="1" stop-color="#3A58A7"/>
</linearGradient>
<linearGradient id="paint18_linear_1293_974" x1="77.2078" y1="293.3" x2="150.316" y2="272.318" gradientUnits="userSpaceOnUse">
<stop stop-color="#4EC4F0"/>
<stop offset="1" stop-color="#3A58A7"/>
</linearGradient>
<linearGradient id="paint19_linear_1293_974" x1="152.323" y1="174.176" x2="203.256" y2="123.121" gradientUnits="userSpaceOnUse">
<stop stop-color="#4EC4F0"/>
<stop offset="1" stop-color="#3A58A7"/>
</linearGradient>
<linearGradient id="paint20_linear_1293_974" x1="154.742" y1="179.393" x2="231.467" y2="98.2857" gradientUnits="userSpaceOnUse">
<stop stop-color="#4EC4F0"/>
<stop offset="1" stop-color="#3A58A7"/>
</linearGradient>
<linearGradient id="paint21_linear_1293_974" x1="154.742" y1="187.963" x2="231.467" y2="106.856" gradientUnits="userSpaceOnUse">
<stop stop-color="#4EC4F0"/>
<stop offset="1" stop-color="#3A58A7"/>
</linearGradient>
<linearGradient id="paint22_linear_1293_974" x1="154.742" y1="196.541" x2="231.467" y2="115.434" gradientUnits="userSpaceOnUse">
<stop stop-color="#4EC4F0"/>
<stop offset="1" stop-color="#3A58A7"/>
</linearGradient>
<linearGradient id="paint23_linear_1293_974" x1="154.742" y1="205.119" x2="231.467" y2="124.012" gradientUnits="userSpaceOnUse">
<stop stop-color="#4EC4F0"/>
<stop offset="1" stop-color="#3A58A7"/>
</linearGradient>
<linearGradient id="paint24_linear_1293_974" x1="152.819" y1="218.28" x2="208.261" y2="160.889" gradientUnits="userSpaceOnUse">
<stop stop-color="#4EC4F0"/>
<stop offset="1" stop-color="#3A58A7"/>
</linearGradient>
<linearGradient id="paint25_linear_1293_974" x1="154.742" y1="230.854" x2="231.467" y2="149.747" gradientUnits="userSpaceOnUse">
<stop stop-color="#4EC4F0"/>
<stop offset="1" stop-color="#3A58A7"/>
</linearGradient>
<linearGradient id="paint26_linear_1293_974" x1="154.742" y1="239.416" x2="231.467" y2="158.309" gradientUnits="userSpaceOnUse">
<stop stop-color="#4EC4F0"/>
<stop offset="1" stop-color="#3A58A7"/>
</linearGradient>
<linearGradient id="paint27_linear_1293_974" x1="154.742" y1="248.002" x2="231.467" y2="166.895" gradientUnits="userSpaceOnUse">
<stop stop-color="#4EC4F0"/>
<stop offset="1" stop-color="#3A58A7"/>
</linearGradient>
<linearGradient id="paint28_linear_1293_974" x1="150.717" y1="266.294" x2="182.29" y2="234.882" gradientUnits="userSpaceOnUse">
<stop stop-color="#4EC4F0"/>
<stop offset="1" stop-color="#3A58A7"/>
</linearGradient>
<linearGradient id="paint29_linear_1293_974" x1="334.158" y1="187.047" x2="351.298" y2="181.7" gradientUnits="userSpaceOnUse">
<stop stop-color="#4EC4F0"/>
<stop offset="1" stop-color="#3A58A7"/>
</linearGradient>
<linearGradient id="paint30_linear_1293_974" x1="340.252" y1="208.35" x2="379.684" y2="192.631" gradientUnits="userSpaceOnUse">
<stop stop-color="#4EC4F0"/>
<stop offset="1" stop-color="#3A58A7"/>
</linearGradient>
<linearGradient id="paint31_linear_1293_974" x1="379.907" y1="161.081" x2="388.613" y2="157.642" gradientUnits="userSpaceOnUse">
<stop stop-color="#4EC4F0"/>
<stop offset="1" stop-color="#3A58A7"/>
</linearGradient>
<linearGradient id="paint32_linear_1293_974" x1="368.768" y1="176.941" x2="389.608" y2="169.283" gradientUnits="userSpaceOnUse">
<stop stop-color="#4EC4F0"/>
<stop offset="1" stop-color="#3A58A7"/>
</linearGradient>
<linearGradient id="paint33_linear_1293_974" x1="233.727" y1="303.739" x2="279.426" y2="293.3" gradientUnits="userSpaceOnUse">
<stop stop-color="#4EC4F0"/>
<stop offset="1" stop-color="#3A58A7"/>
</linearGradient>
<linearGradient id="paint34_linear_1293_974" x1="238.061" y1="184.337" x2="246.486" y2="181.861" gradientUnits="userSpaceOnUse">
<stop stop-color="#4EC4F0"/>
<stop offset="1" stop-color="#3A58A7"/>
</linearGradient>
<linearGradient id="paint35_linear_1293_974" x1="236.969" y1="167.647" x2="265.447" y2="149.888" gradientUnits="userSpaceOnUse">
<stop stop-color="#4EC4F0"/>
<stop offset="1" stop-color="#3A58A7"/>
</linearGradient>
<linearGradient id="paint36_linear_1293_974" x1="235.074" y1="148.993" x2="239.776" y2="146.104" gradientUnits="userSpaceOnUse">
<stop stop-color="#4EC4F0"/>
<stop offset="1" stop-color="#3A58A7"/>
</linearGradient>
<linearGradient id="paint37_linear_1293_974" x1="245.53" y1="164.652" x2="247.358" y2="164.091" gradientUnits="userSpaceOnUse">
<stop stop-color="#4EC4F0"/>
<stop offset="1" stop-color="#3A58A7"/>
</linearGradient>
<linearGradient id="paint38_linear_1293_974" x1="264.807" y1="223.038" x2="295.101" y2="205.556" gradientUnits="userSpaceOnUse">
<stop stop-color="#4EC4F0"/>
<stop offset="1" stop-color="#3A58A7"/>
</linearGradient>
<linearGradient id="paint39_linear_1293_974" x1="148.73" y1="231.768" x2="171.381" y2="219.14" gradientUnits="userSpaceOnUse">
<stop stop-color="#4EC4F0"/>
<stop offset="1" stop-color="#3A58A7"/>
</linearGradient>
<linearGradient id="paint40_linear_1293_974" x1="124.366" y1="256.233" x2="163.74" y2="240.568" gradientUnits="userSpaceOnUse">
<stop stop-color="#4EC4F0"/>
<stop offset="1" stop-color="#3A58A7"/>
</linearGradient>
<linearGradient id="paint41_linear_1293_974" x1="111.968" y1="236.747" x2="131.048" y2="230.025" gradientUnits="userSpaceOnUse">
<stop stop-color="#4EC4F0"/>
<stop offset="1" stop-color="#3A58A7"/>
</linearGradient>
<radialGradient id="paint42_radial_1293_974" cx="0" cy="0" r="1" gradientUnits="userSpaceOnUse" gradientTransform="translate(409.089 211.433) rotate(90) scale(3.76506 6.0812)">
<stop stop-color="white"/>
<stop offset="0.3" stop-color="#3392FF"/>
<stop offset="0.35" stop-color="#339CFF" stop-opacity="0.93"/>
<stop offset="0.47" stop-color="#339CFF" stop-opacity="0.76"/>
<stop offset="0.63" stop-color="#3392FF" stop-opacity="0.49"/>
<stop offset="0.81" stop-color="#33AAFF" stop-opacity="0.14"/>
<stop offset="1" stop-opacity="0"/>
</radialGradient>
<radialGradient id="paint43_radial_1293_974" cx="0" cy="0" r="1" gradientUnits="userSpaceOnUse" gradientTransform="translate(409.089 232.598) rotate(90) scale(3.76506 6.0812)">
<stop stop-color="white"/>
<stop offset="0.3" stop-color="#3392FF"/>
<stop offset="0.35" stop-color="#339CFF" stop-opacity="0.93"/>
<stop offset="0.47" stop-color="#339CFF" stop-opacity="0.76"/>
<stop offset="0.63" stop-color="#3392FF" stop-opacity="0.49"/>
<stop offset="0.81" stop-color="#33AAFF" stop-opacity="0.14"/>
<stop offset="1" stop-opacity="0"/>
</radialGradient>
<radialGradient id="paint44_radial_1293_974" cx="0" cy="0" r="1" gradientUnits="userSpaceOnUse" gradientTransform="translate(409.089 253.746) rotate(90) scale(3.76506 6.0812)">
<stop stop-color="white"/>
<stop offset="0.3" stop-color="#3392FF"/>
<stop offset="0.35" stop-color="#339CFF" stop-opacity="0.93"/>
<stop offset="0.47" stop-color="#339CFF" stop-opacity="0.76"/>
<stop offset="0.63" stop-color="#3392FF" stop-opacity="0.49"/>
<stop offset="0.81" stop-color="#33AAFF" stop-opacity="0.14"/>
<stop offset="1" stop-opacity="0"/>
</radialGradient>
<radialGradient id="paint45_radial_1293_974" cx="0" cy="0" r="1" gradientUnits="userSpaceOnUse" gradientTransform="translate(28.0891 213.433) rotate(90) scale(3.76506 6.0812)">
<stop stop-color="white"/>
<stop offset="0.3" stop-color="#3392FF"/>
<stop offset="0.35" stop-color="#339CFF" stop-opacity="0.93"/>
<stop offset="0.47" stop-color="#339CFF" stop-opacity="0.76"/>
<stop offset="0.63" stop-color="#3392FF" stop-opacity="0.49"/>
<stop offset="0.81" stop-color="#33AAFF" stop-opacity="0.14"/>
<stop offset="1" stop-opacity="0"/>
</radialGradient>
<radialGradient id="paint46_radial_1293_974" cx="0" cy="0" r="1" gradientUnits="userSpaceOnUse" gradientTransform="translate(28.0891 234.598) rotate(90) scale(3.76506 6.0812)">
<stop stop-color="white"/>
<stop offset="0.3" stop-color="#3392FF"/>
<stop offset="0.35" stop-color="#339CFF" stop-opacity="0.93"/>
<stop offset="0.47" stop-color="#339CFF" stop-opacity="0.76"/>
<stop offset="0.63" stop-color="#3392FF" stop-opacity="0.49"/>
<stop offset="0.81" stop-color="#33AAFF" stop-opacity="0.14"/>
<stop offset="1" stop-opacity="0"/>
</radialGradient>
<radialGradient id="paint47_radial_1293_974" cx="0" cy="0" r="1" gradientUnits="userSpaceOnUse" gradientTransform="translate(28.0891 255.746) rotate(90) scale(3.76506 6.0812)">
<stop stop-color="white"/>
<stop offset="0.3" stop-color="#3392FF"/>
<stop offset="0.35" stop-color="#339CFF" stop-opacity="0.93"/>
<stop offset="0.47" stop-color="#339CFF" stop-opacity="0.76"/>
<stop offset="0.63" stop-color="#3392FF" stop-opacity="0.49"/>
<stop offset="0.81" stop-color="#33AAFF" stop-opacity="0.14"/>
<stop offset="1" stop-opacity="0"/>
</radialGradient>
</defs>
</svg>
