<svg width="223" height="220" viewBox="0 0 223 220" fill="none" xmlns="http://www.w3.org/2000/svg">
<g filter="url(#filter0_f_1038_747)">
<path d="M208 122C211.032 128.837 213.5 138 214 150H171V90C194.5 102.5 204.982 115.195 208 122Z" fill="white" fill-opacity="0.85"/>
</g>
<g filter="url(#filter1_d_1038_747)">
<path d="M111.5 206.001C167.557 206.001 213 177.373 213 142.059C213 106.745 167.557 78.1172 111.5 78.1172C55.4431 78.1172 10 106.745 10 142.059C10 177.373 55.4431 206.001 111.5 206.001Z" fill="#00152E"/>
</g>
<path d="M169.68 181.548C178 181.548 184.744 177.3 184.744 172.059C184.744 166.819 178 162.57 169.68 162.57C161.361 162.57 154.617 166.819 154.617 172.059C154.617 177.3 161.361 181.548 169.68 181.548Z" fill="white"/>
<path d="M32.9633 161.486L16.1152 150.873C15.5189 150.499 15.5189 149.89 16.1152 149.516L108.97 91.0231C109.567 90.6486 110.528 90.6486 111.124 91.0231L127.972 101.636C128.568 102.01 128.568 102.619 127.972 102.993L35.117 161.486C34.5206 161.86 33.5596 161.86 32.9633 161.486Z" fill="black"/>
<path d="M91.4024 144.861L104.968 136.304C106.367 135.424 107.066 134.267 107.066 133.116C107.066 131.959 107.071 131.056 107.071 131.056L90.746 120.963C89.9995 120.495 89.3946 119.353 89.3946 118.412V100.164L65.6992 115.102V133.35C65.6992 134.291 66.3041 135.433 67.0507 135.901L81.273 144.861C84.0703 146.621 88.6051 146.621 91.4024 144.861Z" fill="url(#paint0_linear_1038_747)"/>
<g opacity="0.5">
<path d="M91.4024 144.861L104.968 136.304C106.367 135.424 107.066 134.267 107.066 133.116C107.066 131.959 107.071 131.056 107.071 131.056L90.746 120.963C89.9995 120.495 89.3946 119.353 89.3946 118.412V100.164L65.6992 115.102V133.35C65.6992 134.291 66.3041 135.433 67.0507 135.901L81.273 144.861C84.0703 146.621 88.6051 146.621 91.4024 144.861Z" fill="black"/>
</g>
<path d="M71.3882 136.577V138.627L67.0464 135.898C66.3042 135.43 65.6992 134.293 65.6992 133.347V115.099L70.2126 112.258C70.307 113.508 70.4057 114.8 70.5001 116.059L67.3338 118.058V132.317C67.3338 133.263 67.9345 134.4 68.681 134.868L71.3882 136.577Z" fill="url(#paint1_linear_1038_747)"/>
<path opacity="0.7" d="M71.3882 136.577V138.627L67.0464 135.898C66.3042 135.43 65.6992 134.293 65.6992 133.347V115.099L70.2126 112.258C70.307 113.508 70.4057 114.8 70.5001 116.059L67.3338 118.058V132.317C67.3338 133.263 67.9345 134.4 68.681 134.868L71.3882 136.577Z" fill="black"/>
<path d="M67.332 132.319C67.332 133.26 67.937 134.402 68.6835 134.87L81.2712 142.8C84.0685 144.561 88.6034 144.561 91.4006 142.8L104.971 134.243C107.768 132.483 107.768 129.627 104.971 127.862L92.3788 119.928C91.6323 119.46 91.0274 118.317 91.0274 117.376V103.117L67.332 118.055V132.314V132.319Z" fill="url(#paint2_linear_1038_747)"/>
<path opacity="0.3" d="M67.332 132.319C67.332 133.26 67.937 134.402 68.6835 134.87L81.2712 142.8C84.0685 144.561 88.6034 144.561 91.4006 142.8L104.971 134.243C107.768 132.483 107.768 129.627 104.971 127.862L92.3788 119.928C91.6323 119.46 91.0274 118.317 91.0274 117.376V103.117L67.332 118.055V132.314V132.319Z" fill="black"/>
<path opacity="0.7" d="M95.1289 121.664L92.3788 119.928C91.6323 119.46 91.0274 118.317 91.0274 117.376V103.117L67.332 118.055V132.314C67.332 133.255 67.937 134.398 68.6835 134.866L71.3864 136.57L95.1289 121.66V121.664Z" fill="url(#paint3_linear_1038_747)"/>
<path opacity="0.6" d="M95.1289 121.664L92.3788 119.928C91.6323 119.46 91.0274 118.317 91.0274 117.376V103.117L67.332 118.055V132.314C67.332 133.255 67.937 134.398 68.6835 134.866L71.3864 136.57L95.1289 121.66V121.664Z" fill="black"/>
<path d="M107.065 131.055V133.114C107.065 134.271 106.362 135.418 104.968 136.302L91.4016 144.855C90.0587 145.707 88.3211 146.133 86.5664 146.166V144.115C88.3211 144.092 90.0587 143.647 91.4016 142.805L104.968 134.243C106.362 133.367 107.065 132.211 107.065 131.055Z" fill="url(#paint4_linear_1038_747)"/>
<path opacity="0.2" d="M107.065 131.055V133.114C107.065 134.271 106.362 135.418 104.968 136.302L91.4016 144.855C90.0587 145.707 88.3211 146.133 86.5664 146.166V144.115C88.3211 144.092 90.0587 143.647 91.4016 142.805L104.968 134.243C106.362 133.367 107.065 132.211 107.065 131.055Z" fill="black"/>
<path d="M29.2902 152.012C30.1654 152.565 31.6284 152.532 32.5637 151.947C44.2118 144.606 112.548 101.557 124.196 94.2216C125.127 93.6365 125.882 92.2087 125.882 91.0337V3.51703C125.882 2.34202 125.174 0.94232 124.299 0.394609C123.424 -0.157782 121.961 -0.125013 121.03 0.460147L29.3931 58.1804C28.4621 58.7656 27.707 60.198 27.707 61.3684V148.885C27.707 150.06 28.4149 151.46 29.2902 152.007V152.012Z" fill="url(#paint5_linear_1038_747)"/>
<path opacity="0.3" d="M29.2902 152.012C30.1654 152.565 31.6284 152.532 32.5637 151.947C44.2118 144.606 112.548 101.557 124.196 94.2216C125.127 93.6365 125.882 92.2087 125.882 91.0337V3.51703C125.882 2.34202 125.174 0.94232 124.299 0.394609C123.424 -0.157782 121.961 -0.125013 121.03 0.460147L29.3931 58.1804C28.4621 58.7656 27.707 60.198 27.707 61.3684V148.885C27.707 150.06 28.4149 151.46 29.2902 152.007V152.012Z" fill="black"/>
<path d="M32.5607 151.94L124.193 94.2155C125.124 93.6303 125.879 92.1979 125.879 91.0275V3.51086C125.879 2.33586 125.124 1.85837 124.193 2.44821L32.565 60.1732C31.634 60.7583 30.8789 62.1908 30.8789 63.3611V150.878C30.8789 152.053 31.634 152.53 32.565 151.94H32.5607Z" fill="url(#paint6_linear_1038_747)"/>
<path d="M32.5607 151.94L124.193 94.2155C125.124 93.6303 125.879 92.1979 125.879 91.0275V3.51086C125.879 2.33586 125.124 1.85837 124.193 2.44821L32.565 60.1732C31.634 60.7583 30.8789 62.1908 30.8789 63.3611V150.878C30.8789 152.053 31.634 152.53 32.565 151.94H32.5607Z" fill="url(#paint7_linear_1038_747)"/>
<path opacity="0.5" d="M32.5607 151.94L124.193 94.2155C125.124 93.6303 125.879 92.1979 125.879 91.0275V3.51086C125.879 2.33586 125.124 1.85837 124.193 2.44821L32.565 60.1732C31.634 60.7583 30.8789 62.1908 30.8789 63.3611V150.878C30.8789 152.053 31.634 152.53 32.565 151.94H32.5607Z" fill="#00152E"/>
<path d="M32.3109 152.086C31.3756 152.535 30.08 152.521 29.2862 152.016C28.411 151.463 27.7031 150.068 27.7031 148.884V139.039L30.8694 141.038V150.883C30.8694 151.955 31.4915 152.442 32.3109 152.081V152.086Z" fill="url(#paint8_linear_1038_747)"/>
<path opacity="0.7" d="M32.3109 152.086C31.3756 152.535 30.08 152.521 29.2862 152.016C28.411 151.463 27.7031 150.068 27.7031 148.884V139.039L30.8694 141.038V150.883C30.8694 151.955 31.4915 152.442 32.3109 152.081V152.086Z" fill="#00152E"/>
<path d="M30.8754 141.035V150.875C30.8754 152.05 31.6305 152.527 32.5615 151.937L124.194 94.2124C125.125 93.6272 125.88 92.1948 125.88 91.0244V81.1797L30.8711 141.03L30.8754 141.035Z" fill="url(#paint9_linear_1038_747)"/>
<g opacity="0.5">
<path d="M30.8754 141.035V150.875C30.8754 152.05 31.6305 152.527 32.5615 151.937L124.194 94.2124C125.125 93.6272 125.88 92.1948 125.88 91.0244V81.1797L30.8711 141.03L30.8754 141.035Z" fill="#00152E"/>
</g>
<path d="M34.0391 133.772V64.508C34.0391 63.8011 34.4938 62.9445 35.0516 62.5934L121.699 8.00957C122.256 7.65847 122.711 7.94403 122.711 8.64622V77.9105C122.711 78.6174 122.261 79.4741 121.703 79.8252L35.0516 134.409C34.4938 134.76 34.0391 134.475 34.0391 133.772Z" fill="#FCFCFC"/>
<path d="M78.3761 115.104C77.5009 115.656 76.793 116.995 76.793 118.095C76.793 119.195 77.5009 119.644 78.3761 119.092C79.2513 118.54 79.9592 117.201 79.9592 116.101C79.9592 115.001 79.2513 114.551 78.3761 115.104Z" fill="url(#paint10_linear_1038_747)"/>
<path opacity="0.5" d="M78.3761 115.104C77.5009 115.656 76.793 116.995 76.793 118.095C76.793 119.195 77.5009 119.644 78.3761 119.092C79.2513 118.54 79.9592 117.201 79.9592 116.101C79.9592 115.001 79.2513 114.551 78.3761 115.104Z" fill="white"/>
<path d="M31.367 61.5442C31.0624 62.1247 30.878 62.7801 30.8694 63.3653V141.042L27.7031 139.043V61.3757C27.7031 60.7905 27.8962 60.1352 28.2008 59.5547L31.367 61.5442Z" fill="url(#paint11_linear_1038_747)"/>
<path opacity="0.7" d="M31.367 61.5442C31.0624 62.1247 30.878 62.7801 30.8694 63.3653V141.042L27.7031 139.043V61.3757C27.7031 60.7905 27.8962 60.1352 28.2008 59.5547L31.367 61.5442Z" fill="#00152E"/>
<path d="M64.2419 171.958L87.1392 186.423C87.8471 186.873 88.9969 186.873 89.7048 186.423L157.346 143.87C158.054 143.426 158.054 142.7 157.346 142.255L134.448 127.79C133.74 127.341 132.591 127.341 131.883 127.79L64.2419 170.343C63.534 170.788 63.534 171.513 64.2419 171.958Z" fill="black"/>
<path d="M155.954 139.691C155.954 139.401 155.778 139.106 155.422 138.881L133.91 125.334C133.202 124.889 132.053 124.889 131.345 125.334L65.7117 166.749C65.3556 166.974 65.1797 167.264 65.1797 167.559C65.1797 167.849 65.1797 169.726 65.1797 170.021C65.1797 170.316 65.3556 170.606 65.7117 170.831L87.2104 184.379C87.9183 184.823 89.0681 184.823 89.776 184.379L155.418 143.029C155.769 142.809 155.95 142.514 155.95 142.224C155.95 141.929 155.95 139.991 155.95 139.696L155.954 139.691Z" fill="url(#paint12_linear_1038_747)"/>
<path opacity="0.5" d="M155.954 139.691C155.954 139.401 155.778 139.106 155.422 138.881L133.91 125.334C133.202 124.889 132.053 124.889 131.345 125.334L65.7117 166.749C65.3556 166.974 65.1797 167.264 65.1797 167.559C65.1797 167.849 65.1797 169.726 65.1797 170.021C65.1797 170.316 65.3556 170.606 65.7117 170.831L87.2104 184.379C87.9183 184.823 89.0681 184.823 89.776 184.379L155.418 143.029C155.769 142.809 155.95 142.514 155.95 142.224C155.95 141.929 155.95 139.991 155.95 139.696L155.954 139.691Z" fill="black"/>
<path d="M87.2148 181.852L65.7161 168.366C65.0082 167.921 65.0039 167.2 65.7161 166.751L131.349 125.335C132.057 124.891 133.207 124.886 133.915 125.335L155.426 138.883C156.134 139.328 156.134 140.053 155.426 140.498L89.7847 181.848C89.0768 182.293 87.927 182.297 87.2191 181.848L87.2148 181.852Z" fill="url(#paint13_linear_1038_747)"/>
<path opacity="0.3" d="M87.2148 181.852L65.7161 168.366C65.0082 167.921 65.0039 167.2 65.7161 166.751L131.349 125.335C132.057 124.891 133.207 124.886 133.915 125.335L155.426 138.883C156.134 139.328 156.134 140.053 155.426 140.498L89.7847 181.848C89.0768 182.293 87.927 182.297 87.2191 181.848L87.2148 181.852Z" fill="black" fill-opacity="0.8"/>
<path d="M88.4152 182.184V184.702C87.9819 184.693 87.5443 184.585 87.2096 184.379L65.7195 170.832C65.3634 170.607 65.1875 170.317 65.1875 170.022V167.555C65.1875 167.845 65.3634 168.135 65.7195 168.365L87.2096 181.856C87.5443 182.062 87.9819 182.174 88.4152 182.184Z" fill="url(#paint14_linear_1038_747)"/>
<path opacity="0.7" d="M88.4152 182.184V184.702C87.9819 184.693 87.5443 184.585 87.2096 184.379L65.7195 170.832C65.3634 170.607 65.1875 170.317 65.1875 170.022V167.555C65.1875 167.845 65.3634 168.135 65.7195 168.365L87.2096 181.856C87.5443 182.062 87.9819 182.174 88.4152 182.184Z" fill="black"/>
<path d="M115.871 142.775L118.321 144.32C118.381 144.357 118.45 144.362 118.475 144.362L120.736 142.99L118.102 141.375L115.871 142.779V142.775Z" fill="#00152E"/>
<path d="M118.82 140.92L121.283 142.47C121.322 142.493 121.373 142.502 121.429 142.502H121.519L123.686 141.131L121.051 139.516L118.82 140.92Z" fill="#00152E"/>
<path d="M110.906 145.906L113.365 147.456C113.403 147.479 113.459 147.489 113.51 147.489L117.17 145.237L114.536 143.617L110.911 145.902L110.906 145.906Z" fill="#00152E"/>
<path d="M107.961 147.759L110.419 149.309C110.458 149.332 110.514 149.346 110.565 149.346L112.826 147.974L110.192 146.359L107.961 147.764V147.759Z" fill="#00152E"/>
<path d="M94.4909 172.073L96.7519 170.701L94.1177 169.086L91.8867 170.49L94.3494 172.04C94.388 172.063 94.4395 172.073 94.4952 172.073H94.4909Z" fill="#00152E"/>
<path d="M105.012 149.62L107.457 151.16C107.513 151.198 107.582 151.202 107.616 151.202L109.877 149.831L107.243 148.211L105.012 149.615V149.62Z" fill="#00152E"/>
<path d="M121.434 143.469L119.203 144.873L121.657 146.418C121.7 146.441 121.752 146.455 121.807 146.455L124.068 145.084L121.434 143.469Z" fill="#00152E"/>
<path d="M113.194 156.088L115.455 154.717L112.821 153.102L110.59 154.506L113.048 156.055C113.087 156.079 113.143 156.093 113.198 156.093L113.194 156.088Z" fill="#00152E"/>
<path d="M124.76 144.604L127.021 143.232L124.383 141.617L122.156 143.022L124.615 144.571C124.653 144.594 124.705 144.604 124.76 144.604Z" fill="#00152E"/>
<path d="M110.245 157.948L112.506 156.576L109.868 154.961L107.637 156.365L110.082 157.905C110.138 157.943 110.207 157.948 110.241 157.948H110.245Z" fill="#00152E"/>
<path d="M107.3 159.799L109.561 158.428L106.926 156.812L104.695 158.217L107.158 159.766C107.201 159.79 107.252 159.804 107.304 159.804L107.3 159.799Z" fill="#00152E"/>
<path d="M119.091 152.371L123.832 149.436L117.868 145.719L115.324 147.32L118.443 149.281C118.482 149.305 118.533 149.351 118.533 149.422C118.533 149.468 118.503 149.515 118.456 149.548L116.487 150.789L118.932 152.329C118.988 152.371 119.057 152.376 119.091 152.376V152.371Z" fill="#00152E"/>
<path d="M99.1133 153.337L101.572 154.887C101.61 154.91 101.666 154.924 101.717 154.924L103.978 153.553L101.344 151.938L99.1133 153.342V153.337Z" fill="#00152E"/>
<path d="M116.139 154.229L118.4 152.857L115.766 151.242L113.535 152.647L115.981 154.187C116.041 154.229 116.114 154.234 116.144 154.234L116.139 154.229Z" fill="#00152E"/>
<path d="M82.5495 171.198L84.8105 169.826L82.1763 168.211L79.9453 169.615L82.3908 171.155C82.4508 171.193 82.5195 171.198 82.5495 171.198Z" fill="#00152E"/>
<path d="M75.5234 168.197L77.9904 169.751C78.029 169.769 78.0805 169.784 78.1319 169.784H78.222L80.3886 168.412L77.7544 166.797L75.5234 168.201V168.197Z" fill="#00152E"/>
<path d="M86.6593 172.807H86.7494L88.916 171.435L86.2817 169.82L84.0508 171.225L86.5134 172.774C86.552 172.798 86.6035 172.807 86.6593 172.807Z" fill="#00152E"/>
<path d="M88.5929 175.784L90.8539 174.412L88.2153 172.797L85.9844 174.201L88.4298 175.741C88.4899 175.779 88.5586 175.784 88.5886 175.784H88.5929Z" fill="#00152E"/>
<path d="M78.4727 166.334L80.9353 167.884C80.9739 167.907 81.0297 167.916 81.0812 167.916L83.3421 166.545L80.7079 164.93L78.4769 166.334H78.4727Z" fill="#00152E"/>
<path d="M91.5421 173.932L93.7988 172.56L91.1646 170.945L88.9336 172.35L91.3919 173.899C91.4348 173.923 91.4863 173.937 91.5421 173.937V173.932Z" fill="#00152E"/>
<path d="M87.3203 160.767L89.7787 162.316C89.8216 162.34 89.873 162.354 89.9245 162.354L92.1855 160.982L89.5513 159.367L87.3203 160.772V160.767Z" fill="#00152E"/>
<path d="M90.2656 158.908L92.7197 160.452C92.7626 160.476 92.8184 160.494 92.8741 160.494L95.1351 159.123L92.5009 157.508L90.2699 158.912L90.2656 158.908Z" fill="#00152E"/>
<path d="M93.2152 157.045L95.6607 158.585C95.7165 158.623 95.7851 158.627 95.8194 158.627L98.0804 157.256L95.4419 155.641L93.2109 157.045H93.2152Z" fill="#00152E"/>
<path d="M84.3711 162.623L86.8166 164.163C86.8723 164.201 86.941 164.205 86.9753 164.205L89.2363 162.834L86.6021 161.219L84.3711 162.623Z" fill="#00152E"/>
<path d="M96.1641 155.197L98.6224 156.746C98.6224 156.746 98.6953 156.784 98.7683 156.784L101.029 155.412L98.3907 153.797L96.1641 155.201V155.197Z" fill="#00152E"/>
<path d="M81.418 164.478L83.8763 166.027C83.9192 166.051 83.9707 166.065 84.0265 166.065L86.2875 164.693L83.6489 163.078L81.418 164.483V164.478Z" fill="#00152E"/>
<path d="M102.059 151.478L104.521 153.032C104.56 153.051 104.611 153.065 104.663 153.065L106.924 151.693L104.29 150.078L102.059 151.483V151.478Z" fill="#00152E"/>
<path d="M109.426 151.033L111.876 152.577C111.932 152.615 112 152.619 112.03 152.619H112.12L114.287 151.248L111.653 149.633L109.422 151.037L109.426 151.033Z" fill="#00152E"/>
<path d="M125.34 136.814L127.79 138.359C127.85 138.396 127.918 138.401 127.944 138.401L130.205 137.029L127.571 135.414L125.34 136.818V136.814Z" fill="#00152E"/>
<path d="M128.285 134.959L130.735 136.499C130.778 136.527 130.834 136.541 130.889 136.541L133.15 135.17L130.516 133.555L128.285 134.959Z" fill="#00152E"/>
<path d="M106.48 152.889L108.935 154.434C108.99 154.466 109.055 154.471 109.089 154.471L111.35 153.099L108.716 151.484L106.485 152.889H106.48Z" fill="#00152E"/>
<path d="M131.238 133.1L133.688 134.645C133.748 134.682 133.817 134.687 133.842 134.687L136.103 133.315L133.469 131.695L131.238 133.1Z" fill="#00152E"/>
<path d="M114.984 150.76H115.074L117.24 149.388L114.606 147.773L112.375 149.178L114.825 150.723C114.881 150.76 114.945 150.765 114.979 150.765L114.984 150.76Z" fill="#00152E"/>
<path d="M128.668 138.915L131.113 140.455C131.169 140.498 131.238 140.502 131.276 140.502L133.537 139.131L130.903 137.516L128.672 138.92L128.668 138.915Z" fill="#00152E"/>
<path d="M134.566 135.197L137.012 136.737C137.072 136.779 137.145 136.784 137.171 136.784L139.432 135.412L136.797 133.797L134.566 135.201V135.197Z" fill="#00152E"/>
<path d="M134.225 138.643L136.486 137.271L133.852 135.656L131.621 137.061L134.079 138.61C134.122 138.634 134.174 138.648 134.23 138.648L134.225 138.643Z" fill="#00152E"/>
<path d="M143.316 136.993C143.355 137.012 143.406 137.026 143.458 137.026H143.548L145.714 135.654L139.747 131.938L137.516 133.342L143.316 136.993Z" fill="#00152E"/>
<path d="M103.531 154.751L105.981 156.296C106.037 156.334 106.101 156.338 106.135 156.338H106.226L108.396 154.967L105.762 153.352L103.531 154.756V154.751Z" fill="#00152E"/>
<path d="M137.558 140.737H137.648L139.814 139.365L137.18 137.75L134.949 139.154L137.399 140.699C137.455 140.737 137.523 140.741 137.553 140.741L137.558 140.737Z" fill="#00152E"/>
<path d="M140.507 138.877L142.768 137.506L140.129 135.891L137.898 137.295L140.344 138.835C140.4 138.877 140.473 138.882 140.507 138.882V138.877Z" fill="#00152E"/>
<path d="M88.7852 164.037L91.2349 165.577C91.2907 165.615 91.3593 165.619 91.3937 165.619L93.6547 164.248L91.0204 162.633L88.7894 164.037H88.7852Z" fill="#00152E"/>
<path d="M82.8906 167.756L85.3361 169.296C85.3919 169.334 85.4605 169.338 85.4948 169.338H85.5849L87.7558 167.967L85.1216 166.352L82.8906 167.756Z" fill="#00152E"/>
<path d="M92.5577 169.088L94.8187 167.717L92.1802 166.102L89.9492 167.506L92.4118 169.055C92.4376 169.069 92.4848 169.093 92.5577 169.093V169.088Z" fill="#00152E"/>
<path d="M89.6046 170.948L91.8656 169.576L89.227 167.961L86.9961 169.365L89.4587 170.915C89.4973 170.938 89.5488 170.948 89.6046 170.948Z" fill="#00152E"/>
<path d="M95.5027 167.229H95.5927L97.7636 165.857L95.1294 164.242L92.8984 165.647L95.3439 167.187C95.404 167.224 95.4726 167.229 95.5027 167.229Z" fill="#00152E"/>
<path d="M100.578 156.611L103.032 158.155C103.075 158.179 103.131 158.198 103.187 158.198H103.277L105.443 156.826L102.809 155.211L100.578 156.615V156.611Z" fill="#00152E"/>
<path d="M101.401 163.518L103.662 162.146L101.028 160.531L98.7969 161.936L101.242 163.476C101.302 163.513 101.371 163.518 101.401 163.518Z" fill="#00152E"/>
<path d="M98.4523 165.377L100.713 164.006L98.0747 162.391L95.8438 163.795L98.3064 165.345C98.3493 165.368 98.4008 165.382 98.4523 165.382V165.377Z" fill="#00152E"/>
<path d="M94.6836 160.318L97.1291 161.859C97.1848 161.896 97.2535 161.901 97.2878 161.901L99.5488 160.529L96.9146 158.914L94.6836 160.318Z" fill="#00152E"/>
<path d="M85.8398 165.897L88.2853 167.437C88.3411 167.474 88.4097 167.479 88.4441 167.479L90.705 166.107L88.0708 164.492L85.8398 165.897Z" fill="#00152E"/>
<path d="M97.6328 158.47L100.083 160.015C100.138 160.052 100.207 160.057 100.237 160.057L102.498 158.685L99.8638 157.07L97.6328 158.475V158.47Z" fill="#00152E"/>
<path d="M91.7387 162.178L94.1841 163.718C94.2399 163.755 94.3086 163.76 94.3429 163.76H94.433L96.5996 162.388L93.9653 160.773L91.7344 162.178H91.7387Z" fill="#00152E"/>
<path d="M104.346 161.659L106.607 160.287L103.973 158.672L101.742 160.076L104.201 161.626C104.243 161.649 104.295 161.663 104.351 161.663L104.346 161.659Z" fill="#00152E"/>
<path d="M121.77 139.061L124.232 140.61C124.271 140.634 124.322 140.643 124.378 140.643L126.639 139.271L124.005 137.656L121.774 139.061H121.77Z" fill="#00152E"/>
<path d="M74.8052 168.648L72.5742 170.053L75.0368 171.602C75.0755 171.626 75.1269 171.635 75.1827 171.635H75.2728L77.4437 170.263L74.8052 168.648Z" fill="#00152E"/>
<path d="M79.2227 170.062L75.9062 172.15L78.3689 173.7C78.4075 173.723 78.459 173.733 78.5148 173.733H78.6049L81.8612 171.678L79.2269 170.062H79.2227Z" fill="#00152E"/>
<path d="M71.2256 165.805L68.5312 167.504L70.981 169.049C71.0368 169.086 71.1054 169.091 71.1355 169.091L73.8598 167.424L71.2256 165.809V165.805Z" fill="#00152E"/>
<path d="M85.2685 174.648L82.5742 176.348L85.0197 177.888C85.0798 177.925 85.1484 177.93 85.1784 177.93L87.9028 176.263L85.2685 174.648Z" fill="#00152E"/>
<path d="M83.3312 171.672L79.2383 174.251L81.7009 175.801C81.7395 175.824 81.791 175.834 81.8468 175.834H81.9369L85.9698 173.287L83.3312 171.672Z" fill="#00152E"/>
<path d="M75.8347 166.127L78.0957 164.756L75.4614 163.141L73.2305 164.545L75.6759 166.085C75.7317 166.123 75.8004 166.127 75.8347 166.127Z" fill="#00152E"/>
<path d="M85.9062 178.455L88.356 180C88.3989 180.028 88.4547 180.042 88.5105 180.042L91.8569 177.982L89.2227 176.367L85.9062 178.455Z" fill="#00152E"/>
<path d="M78.78 164.268L81.041 162.896L78.4067 161.281L76.1758 162.686L78.6341 164.235C78.6727 164.259 78.7285 164.268 78.78 164.268Z" fill="#00152E"/>
<path d="M91.8581 156.034H91.9482L94.1191 154.662L91.4849 153.047L89.2539 154.451L91.708 155.996C91.7509 156.019 91.8066 156.038 91.8624 156.038L91.8581 156.034Z" fill="#00152E"/>
<path d="M94.8112 154.182L97.0722 152.81L94.438 151.195L92.207 152.6L94.6611 154.145C94.7169 154.177 94.7812 154.187 94.8155 154.187L94.8112 154.182Z" fill="#00152E"/>
<path d="M88.9089 157.893H88.999L91.1699 156.521L88.5356 154.906L86.3047 156.311L88.7502 157.851C88.8102 157.888 88.8789 157.893 88.9089 157.893Z" fill="#00152E"/>
<path d="M84.6784 160.557H84.7685L86.9394 159.185L84.3052 157.57L82.0742 158.975L84.5283 160.52C84.5712 160.543 84.627 160.562 84.6827 160.562L84.6784 160.557Z" fill="#00152E"/>
<path d="M81.7292 162.416L83.9902 161.045L81.356 159.43L79.125 160.834L81.5833 162.384C81.6263 162.407 81.6777 162.421 81.7292 162.421V162.416Z" fill="#00152E"/>
<path d="M144.566 141.493L147.033 143.048C147.072 143.066 147.123 143.08 147.175 143.08H147.265L149.436 141.709L146.802 140.094L144.571 141.498L144.566 141.493Z" fill="#00152E"/>
<path d="M129.199 151.173L131.645 152.713C131.7 152.751 131.769 152.76 131.803 152.76L134.064 151.388L131.43 149.773L129.199 151.178V151.173Z" fill="#00152E"/>
<path d="M138.668 145.208L141.118 146.748C141.178 146.786 141.246 146.79 141.272 146.79H141.362L146.481 143.56L143.846 141.945L138.668 145.208Z" fill="#00152E"/>
<path d="M132.152 149.314L134.598 150.854C134.654 150.891 134.722 150.901 134.761 150.901L137.022 149.529L134.388 147.914L132.157 149.318L132.152 149.314Z" fill="#00152E"/>
<path d="M135.098 147.462L137.535 148.998C137.595 149.04 137.668 149.049 137.706 149.049L139.967 147.678L137.333 146.062L135.102 147.467L135.098 147.462Z" fill="#00152E"/>
<path d="M97.7566 152.323H97.8467L100.018 150.951L97.3833 149.336L95.1523 150.74L97.5978 152.28C97.6536 152.318 97.7222 152.323 97.7566 152.323Z" fill="#00152E"/>
<path d="M146.415 136.133L144.184 137.537L149.984 141.189C150.023 141.207 150.074 141.221 150.126 141.221H150.216L152.382 139.85L146.415 136.133Z" fill="#00152E"/>
<path d="M93.3555 173.754L95.8009 175.294C95.861 175.332 95.9297 175.336 95.9597 175.336L98.684 173.67L96.0498 172.055L93.3555 173.754Z" fill="#00152E"/>
<path d="M96.7695 171.609L99.2107 173.15C99.2708 173.192 99.3351 173.196 99.3737 173.196H99.4638L116.222 162.635L113.588 161.016L96.7695 171.609Z" fill="#00152E"/>
<path d="M97.4401 170.213L99.7011 168.842L97.0669 167.227L94.8359 168.631L97.2943 170.18C97.3372 170.204 97.3887 170.218 97.4401 170.218V170.213Z" fill="#00152E"/>
<path d="M89.9414 175.91L92.3869 177.45C92.4427 177.488 92.5113 177.493 92.5456 177.493L95.27 175.826L92.6357 174.211L89.9414 175.91Z" fill="#00152E"/>
<path d="M114.305 160.562L116.755 162.107C116.811 162.144 116.875 162.149 116.909 162.149H116.999L119.634 160.482L116.995 158.867L114.301 160.566L114.305 160.562Z" fill="#00152E"/>
<path d="M121.133 156.254L123.587 157.799C123.643 157.832 123.707 157.836 123.737 157.836H123.827L126.461 156.17L123.827 154.555L121.133 156.254Z" fill="#00152E"/>
<path d="M117.719 158.406L120.181 159.955C120.224 159.978 120.276 159.993 120.327 159.993L123.052 158.326L120.413 156.711L117.719 158.41V158.406Z" fill="#00152E"/>
<path d="M124.547 154.107L126.997 155.651C127.053 155.689 127.117 155.694 127.151 155.694H127.242L130.494 153.638L127.859 152.023L124.543 154.111L124.547 154.107Z" fill="#00152E"/>
<path d="M127.706 142.744H127.796L129.963 141.373L127.329 139.758L125.098 141.162L127.552 142.707C127.595 142.73 127.646 142.744 127.702 142.744H127.706Z" fill="#00152E"/>
<path d="M131.421 148.799H131.511L133.678 147.428L131.043 145.812L128.812 147.217L131.267 148.766C131.322 148.799 131.387 148.804 131.417 148.804L131.421 148.799Z" fill="#00152E"/>
<path d="M121.026 155.352L127.166 151.537L124.531 149.922L118.422 153.77L120.885 155.319C120.885 155.319 120.957 155.357 121.03 155.357L121.026 155.352Z" fill="#00152E"/>
<path d="M137.944 144.698H138.035L140.201 143.326L137.567 141.711L135.336 143.115L137.799 144.665C137.837 144.688 137.889 144.698 137.944 144.698Z" fill="#00152E"/>
<path d="M140.89 142.838H140.98L143.146 141.467L140.512 139.852L138.281 141.256L140.735 142.801C140.791 142.834 140.855 142.838 140.885 142.838H140.89Z" fill="#00152E"/>
<path d="M118.077 157.205L120.338 155.834L117.704 154.219L115.473 155.623L117.922 157.168C117.965 157.196 118.021 157.21 118.077 157.21V157.205Z" fill="#00152E"/>
<path d="M134.612 142.596H134.703L136.869 141.224L134.235 139.609L132.004 141.014L134.449 142.554C134.505 142.596 134.578 142.601 134.612 142.601V142.596Z" fill="#00152E"/>
<path d="M103.335 166.494L105.596 165.123L102.961 163.508L100.73 164.912L103.189 166.462C103.232 166.485 103.283 166.499 103.335 166.499V166.494Z" fill="#00152E"/>
<path d="M115.132 159.065L117.389 157.693L114.754 156.078L112.523 157.483L114.99 159.037C114.99 159.037 115.059 159.069 115.132 159.069V159.065Z" fill="#00152E"/>
<path d="M100.386 168.354H100.476L102.643 166.982L100.008 165.367L97.7773 166.772L100.24 168.321C100.279 168.344 100.33 168.354 100.386 168.354Z" fill="#00152E"/>
<path d="M106.288 164.643L108.549 163.271L105.915 161.656L103.684 163.061L106.151 164.615C106.176 164.629 106.223 164.648 106.288 164.648V164.643Z" fill="#00152E"/>
<path d="M109.234 162.784H109.324L111.49 161.412L108.856 159.797L106.625 161.201L109.07 162.741C109.126 162.779 109.195 162.784 109.229 162.784H109.234Z" fill="#00152E"/>
<path d="M112.182 160.924H112.272L114.443 159.553L111.809 157.938L109.578 159.342L112.041 160.891C112.079 160.915 112.131 160.924 112.187 160.924H112.182Z" fill="#00152E"/>
<path d="M104.936 147.799L107.197 146.428L104.563 144.812L102.332 146.217L104.778 147.757C104.833 147.794 104.902 147.799 104.936 147.799Z" fill="#00152E"/>
<path d="M143.839 140.979H143.929L146.1 139.607L143.461 137.992L141.23 139.397L143.693 140.946C143.732 140.969 143.783 140.979 143.839 140.979Z" fill="#00152E"/>
<path d="M110.835 144.08L113.096 142.709L110.461 141.094L108.23 142.498L110.676 144.038C110.732 144.076 110.8 144.08 110.835 144.08Z" fill="#00152E"/>
<path d="M117.382 139.955L119.643 138.584L117.008 136.969L114.777 138.373L117.227 139.918C117.283 139.955 117.352 139.96 117.382 139.96V139.955Z" fill="#00152E"/>
<path d="M114.433 141.807L116.689 140.435L114.055 138.82L111.824 140.225L114.274 141.77C114.33 141.807 114.398 141.812 114.433 141.812V141.807Z" fill="#00152E"/>
<path d="M101.987 149.651L104.248 148.279L101.614 146.664L99.3828 148.068L101.837 149.613C101.893 149.646 101.957 149.655 101.991 149.655L101.987 149.651Z" fill="#00152E"/>
<path d="M107.886 145.94H107.976L110.143 144.568L107.508 142.953L105.277 144.358L107.723 145.898C107.779 145.935 107.847 145.94 107.882 145.94H107.886Z" fill="#00152E"/>
<path d="M120.331 138.096L122.588 136.724L119.954 135.109L117.723 136.514L120.172 138.059C120.228 138.096 120.297 138.101 120.331 138.101V138.096Z" fill="#00152E"/>
<path d="M131.892 129.738L134.148 128.366L132.715 127.523L130.484 128.928L131.741 129.7C131.784 129.724 131.84 129.738 131.892 129.738Z" fill="#00152E"/>
<path d="M136.792 132.83L139.053 131.459L136.418 129.844L134.188 131.248L136.637 132.788C136.697 132.826 136.766 132.83 136.792 132.83Z" fill="#00152E"/>
<path d="M123.044 135.308H123.134L125.301 133.936L123.868 133.094L121.637 134.498L122.885 135.266C122.941 135.303 123.005 135.308 123.04 135.308H123.044Z" fill="#00152E"/>
<path d="M125.993 133.456H126.083L128.25 132.085L126.817 131.242L124.586 132.647L125.847 133.424C125.886 133.447 125.942 133.456 125.993 133.456Z" fill="#00152E"/>
<path d="M128.942 131.597L131.199 130.225L129.766 129.383L127.535 130.787L128.797 131.564C128.835 131.588 128.891 131.597 128.942 131.597Z" fill="#00152E"/>
<g opacity="0.8">
<path d="M132.3 10.3726V79.871C132.3 80.7932 131.704 81.912 130.974 82.3708L45.1296 136.552C44.9795 136.646 44.825 136.692 44.692 136.688C44.6362 136.688 44.5805 136.678 44.5247 136.664C44.4861 136.655 44.4475 136.641 44.4131 136.622C44.3874 136.608 44.366 136.594 44.3445 136.58C44.3188 136.561 44.293 136.543 44.2673 136.524C44.2415 136.501 44.2158 136.482 44.1943 136.454C44.0914 136.351 44.0099 136.22 43.9498 136.075C43.864 135.859 43.8125 135.611 43.8125 135.344V66.197C43.8125 65.2794 44.4089 64.1559 45.1382 63.6971L130.974 9.53934C131.318 9.324 131.626 9.29123 131.862 9.41762C131.901 9.43635 131.94 9.45976 131.974 9.48784L131.983 9.49721C132.017 9.52529 132.043 9.55338 132.068 9.59083C132.085 9.60488 132.094 9.6236 132.107 9.64233C132.124 9.66573 132.141 9.68914 132.15 9.71723C132.184 9.7734 132.21 9.83426 132.227 9.8998C132.24 9.93725 132.253 9.97938 132.257 10.0262C132.261 10.0356 132.266 10.0449 132.261 10.0543C132.274 10.0964 132.279 10.1385 132.283 10.1854C132.287 10.2415 132.291 10.3024 132.291 10.3632L132.3 10.3726Z" fill="#455A64"/>
<path d="M131.563 9.81188C131.61 9.81188 131.649 9.82124 131.692 9.84465C131.696 9.84465 131.7 9.84933 131.704 9.85401L131.73 9.87742L131.764 9.92891L131.795 9.98509C131.795 9.98977 131.803 9.99913 131.807 10.0038L131.799 10.0179L131.842 10.1536V10.1677L131.855 10.1864V10.2004C131.855 10.2004 131.863 10.2285 131.863 10.2332C131.863 10.28 131.872 10.3268 131.872 10.3736V79.872C131.872 80.6304 131.365 81.59 130.761 81.9692L44.9159 136.15C44.8086 136.216 44.7357 136.225 44.6928 136.225C44.6928 136.225 44.6499 136.225 44.6027 136.207C44.5898 136.202 44.5812 136.193 44.5684 136.188L44.5126 136.15L44.504 136.141V136.132L44.4783 136.108C44.4225 136.052 44.3753 135.977 44.3367 135.884C44.268 135.72 44.2337 135.533 44.2337 135.345V66.198C44.2337 65.4396 44.74 64.4799 45.3449 64.1008L131.19 9.94295C131.331 9.85401 131.46 9.81188 131.563 9.81188ZM131.563 9.34375C131.387 9.34375 131.185 9.40461 130.975 9.54036L45.1304 63.6982C44.401 64.1569 43.8047 65.2804 43.8047 66.198V135.345C43.8047 135.612 43.8562 135.86 43.942 136.076C44.002 136.221 44.0793 136.352 44.1865 136.455C44.208 136.483 44.2337 136.502 44.2595 136.525C44.2852 136.544 44.3109 136.562 44.3367 136.581C44.3581 136.595 44.3796 136.609 44.4053 136.623C44.4397 136.642 44.4783 136.656 44.5169 136.665C44.5727 136.679 44.6284 136.689 44.6842 136.689C44.6885 136.689 44.6971 136.689 44.7014 136.689C44.8301 136.689 44.9759 136.642 45.1218 136.553L130.967 82.3718C131.696 81.9131 132.292 80.7942 132.292 79.872V10.369C132.292 10.3081 132.288 10.2472 132.284 10.1911C132.279 10.1443 132.275 10.1021 132.262 10.06C132.266 10.0506 132.262 10.0413 132.258 10.0319C132.254 9.98509 132.241 9.94296 132.228 9.9055C132.211 9.83997 132.185 9.77911 132.151 9.72293C132.142 9.69485 132.125 9.67144 132.108 9.64803C132.095 9.62931 132.086 9.61058 132.069 9.59654C132.043 9.55909 132.018 9.531 131.983 9.50291C131.983 9.50291 131.979 9.49823 131.975 9.49355C131.94 9.46546 131.902 9.44206 131.863 9.42333C131.773 9.37652 131.67 9.35311 131.559 9.35311L131.563 9.34375Z" fill="#455A64"/>
<g opacity="0.7">
<path d="M132.3 10.3726V79.871C132.3 80.7932 131.704 81.912 130.974 82.3708L45.1296 136.552C44.9795 136.646 44.825 136.692 44.692 136.688C44.6362 136.688 44.5805 136.678 44.5247 136.664C44.4861 136.655 44.4475 136.641 44.4131 136.622C44.3874 136.608 44.366 136.594 44.3445 136.58C44.3188 136.561 44.293 136.543 44.2673 136.524C44.2415 136.501 44.2158 136.482 44.1943 136.454C44.0914 136.351 44.0099 136.22 43.9498 136.075C43.864 135.859 43.8125 135.611 43.8125 135.344V66.197C43.8125 65.2794 44.4089 64.1559 45.1382 63.6971L130.974 9.53934C131.318 9.324 131.626 9.29123 131.862 9.41762C131.901 9.43635 131.94 9.45976 131.974 9.48784L131.983 9.49721C132.017 9.52529 132.043 9.55338 132.068 9.59083C132.085 9.60488 132.094 9.6236 132.107 9.64233C132.124 9.66573 132.141 9.68914 132.15 9.71723C132.184 9.7734 132.21 9.83426 132.227 9.8998C132.24 9.93725 132.253 9.97938 132.257 10.0262C132.261 10.0356 132.266 10.0449 132.261 10.0543C132.274 10.0964 132.279 10.1385 132.283 10.1854C132.287 10.2415 132.291 10.3024 132.291 10.3632L132.3 10.3726Z" fill="#455A64"/>
</g>
</g>
<path d="M131.866 9.41891C131.626 9.2972 131.321 9.32997 130.978 9.54062L45.1333 63.6984C44.4039 64.1572 43.8076 65.2807 43.8076 66.1982V70.917L42.1172 69.8356V65.1496C42.1172 64.2321 42.7092 63.1133 43.4386 62.6545L129.288 8.50138C129.665 8.25795 130.004 8.25327 130.249 8.41712C130.489 8.5716 131.587 9.25975 131.866 9.42359V9.41891Z" fill="url(#paint15_linear_1038_747)"/>
<path d="M132.296 10.3626C132.292 9.44979 131.7 9.08465 130.975 9.53874L45.13 63.6965C44.4007 64.1553 43.8086 65.2741 43.8086 66.1963V70.9151L132.3 15.0954V10.358L132.296 10.3626Z" fill="url(#paint16_linear_1038_747)"/>
<g opacity="0.4">
<path d="M130.973 9.54184L45.1284 63.6996C44.768 63.929 44.4334 64.3223 44.1974 64.7717L42.5156 63.709C42.7516 63.2643 43.0777 62.8757 43.4337 62.6557L129.283 8.49791C129.66 8.25917 129.999 8.25448 130.244 8.41365C130.48 8.57281 131.578 9.2516 131.857 9.41544C131.625 9.29373 131.312 9.33118 130.969 9.54184H130.973Z" fill="white"/>
</g>
<path opacity="0.15" d="M42.1133 69.8434V65.1528C42.1133 64.6846 42.272 64.1697 42.5166 63.7109L44.2027 64.7689C43.9581 65.223 43.808 65.7379 43.808 66.2014V70.9201L42.1133 69.8434Z" fill="black"/>
<path d="M124.329 15.7329C123.917 15.995 123.582 16.7674 123.582 17.4603C123.582 18.1531 123.917 18.5042 124.329 18.2467C124.74 17.9846 125.075 17.2121 125.075 16.5193C125.075 15.8265 124.74 15.4754 124.329 15.7329Z" fill="#455A64"/>
<path d="M127.02 14.0375C126.608 14.2997 126.273 15.0721 126.273 15.7649C126.273 16.4578 126.608 16.8089 127.02 16.5514C127.432 16.2892 127.766 15.5168 127.766 14.824C127.766 14.1312 127.432 13.7801 127.02 14.0375Z" fill="#455A64"/>
<path d="M129.707 12.3422C129.296 12.6044 128.961 13.3768 128.961 14.0696C128.961 14.7625 129.296 15.1136 129.707 14.8561C130.119 14.5939 130.454 13.8215 130.454 13.1287C130.454 12.4359 130.119 12.0848 129.707 12.3422Z" fill="#455A64"/>
<path opacity="0.9" d="M44.2924 136.558C44.2452 136.526 44.1894 136.493 44.1293 136.455C44.0092 136.376 43.8676 136.291 43.7218 136.203H43.7175C43.6445 136.151 43.5716 136.104 43.4944 136.062C43.4901 136.057 43.4815 136.053 43.4772 136.053C43.3571 135.978 43.237 135.903 43.1297 135.833C43.0182 135.762 42.9152 135.702 42.838 135.655C42.7607 135.603 42.7007 135.571 42.6749 135.557C42.5934 135.51 42.5162 135.444 42.4475 135.355C42.3789 135.276 42.3188 135.177 42.2673 135.06C42.173 134.84 42.1172 134.578 42.1172 134.297V69.8359L43.8076 70.9173V135.346C43.8204 135.631 43.8676 135.87 43.9449 136.076C44.0049 136.221 44.0821 136.352 44.1894 136.455C44.2066 136.483 44.2323 136.507 44.2623 136.526C44.2709 136.54 44.2795 136.549 44.2924 136.558Z" fill="#37474F"/>
<path d="M72.5052 94.9763C72.5052 94.9763 69.3819 92.7714 68.9743 92.7574C68.571 92.7434 60.0977 92.4531 60.0977 92.4531L63.6286 94.5035V94.6721L72.5052 94.9763Z" fill="#263238"/>
<path d="M57.2812 101.622V95.5554L72.5032 74.9062V82.9581L63.6266 94.5068V94.6753L72.5032 94.9796V103.031L57.2812 101.622Z" fill="#FAFAFA"/>
<path d="M72.5068 74.9064L68.9759 72.6875L53.7539 93.332L57.2805 95.5509L72.5068 74.9064Z" fill="#455A64"/>
<path d="M53.7539 93.3281V99.3998L57.2805 101.619V95.5471L53.7539 93.3281Z" fill="#37474F"/>
<path d="M81.7201 99.0361L76.9922 102.013L88.7734 54.9009L93.3297 52.0312L81.7158 99.0407L81.7201 99.0361Z" fill="#FAFAFA"/>
<path d="M93.3333 52.0314L89.8024 49.8125L85.2461 52.6821L88.777 54.9011L93.3333 52.0314Z" fill="#455A64"/>
<path d="M85.246 52.6797L88.7769 54.8986L76.9958 102.011L73.4648 99.7921L85.246 52.6797Z" fill="#37474F"/>
<path d="M94.293 76.8095L97.8196 79.0284L106.701 67.3674L103.17 65.1484L94.293 76.8095Z" fill="#263238"/>
<path d="M106.701 67.3654L97.8242 67.0049V58.9531L113.046 60.4184V66.4853L97.8242 87.0783V79.0265L106.701 67.5386V67.3701V67.3654Z" fill="#FAFAFA"/>
<path d="M94.293 56.7344L97.8196 58.9533L113.046 60.4185L109.515 58.1996L94.293 56.7344Z" fill="#455A64"/>
<path d="M97.8196 58.9533V67.0051L94.293 64.7862V56.7344" fill="#37474F"/>
<path d="M94.293 76.8047L97.8196 79.0236V87.0754L94.293 84.8565V76.8047Z" fill="#37474F"/>
<g opacity="0.8">
<path d="M160.016 22.3648V91.8632C160.016 92.7854 159.42 93.9042 158.69 94.363L122.098 117.4C121.948 117.493 121.794 117.54 121.661 117.535C121.605 117.535 121.549 117.526 121.493 117.512C121.455 117.503 121.416 117.489 121.382 117.47C121.356 117.456 121.335 117.442 121.313 117.428C121.288 117.409 121.262 117.39 121.236 117.372C121.21 117.348 121.185 117.329 121.163 117.301C121.06 117.198 120.979 117.067 120.919 116.922C120.833 116.707 120.781 116.459 120.781 116.192V47.0445C120.781 46.127 121.378 45.0035 122.107 44.5447L158.699 21.5315C159.042 21.3162 159.351 21.2834 159.587 21.4098C159.626 21.4285 159.664 21.4519 159.699 21.48L159.707 21.4894C159.742 21.5175 159.767 21.5456 159.793 21.583C159.81 21.5971 159.819 21.6158 159.832 21.6345C159.849 21.6579 159.866 21.6813 159.874 21.7094C159.909 21.7656 159.935 21.8264 159.952 21.892C159.965 21.9294 159.977 21.9716 159.982 22.0184C159.986 22.0277 159.99 22.0371 159.986 22.0465C159.999 22.0886 160.003 22.1307 160.008 22.1775C160.012 22.2337 160.016 22.2946 160.016 22.3554V22.3648Z" fill="#455A64"/>
<path d="M159.279 21.7994C159.326 21.7994 159.365 21.8087 159.408 21.8322C159.412 21.8322 159.417 21.8368 159.421 21.8415L159.447 21.8602L159.481 21.9117L159.511 21.9679C159.511 21.9726 159.52 21.982 159.52 21.9866L159.511 22.0007L159.554 22.1364V22.1505L159.562 22.1692V22.1832C159.562 22.1832 159.571 22.2113 159.571 22.216C159.571 22.2628 159.58 22.3096 159.58 22.3565V91.8548C159.58 92.6132 159.073 93.5729 158.468 93.9521L121.881 116.989C121.773 117.054 121.701 117.064 121.658 117.064C121.658 117.064 121.615 117.064 121.568 117.045C121.555 117.04 121.546 117.031 121.537 117.026L121.482 116.989L121.473 116.979V116.97L121.447 116.947C121.392 116.89 121.344 116.815 121.306 116.722C121.237 116.558 121.203 116.371 121.203 116.183V47.0409C121.203 46.2825 121.709 45.3228 122.314 44.9437L158.902 21.9351C159.043 21.8462 159.172 21.8041 159.275 21.8041M159.275 21.3359C159.099 21.3359 158.897 21.3968 158.687 21.5326L122.095 44.5458C121.366 45.0045 120.77 46.128 120.77 47.0456V116.193C120.77 116.46 120.821 116.708 120.907 116.923C120.967 117.068 121.044 117.199 121.151 117.302C121.173 117.33 121.199 117.349 121.224 117.373C121.25 117.391 121.276 117.41 121.302 117.429C121.323 117.443 121.344 117.457 121.37 117.471C121.404 117.49 121.443 117.504 121.482 117.513C121.537 117.527 121.593 117.536 121.649 117.536C121.653 117.536 121.662 117.536 121.666 117.536C121.795 117.536 121.941 117.49 122.087 117.401L158.679 94.364C159.408 93.9052 160.004 92.7864 160.004 91.8642V22.3611C160.004 22.3003 160 22.2394 159.996 22.1832C159.991 22.1364 159.987 22.0943 159.974 22.0522C159.979 22.0428 159.974 22.0334 159.97 22.0241C159.966 21.9773 159.953 21.9351 159.94 21.8977C159.923 21.8322 159.897 21.7713 159.863 21.7151C159.854 21.687 159.837 21.6636 159.82 21.6402C159.807 21.6215 159.798 21.6028 159.781 21.5887C159.756 21.5513 159.73 21.5232 159.695 21.4951C159.695 21.4951 159.691 21.4904 159.687 21.4857C159.653 21.4577 159.614 21.4342 159.575 21.4155C159.485 21.3687 159.382 21.3453 159.271 21.3453L159.275 21.3359Z" fill="#455A64"/>
<g opacity="0.8">
<path d="M160.016 22.3648V91.8632C160.016 92.7854 159.42 93.9042 158.69 94.363L122.098 117.4C121.948 117.493 121.794 117.54 121.661 117.535C121.605 117.535 121.549 117.526 121.493 117.512C121.455 117.503 121.416 117.489 121.382 117.47C121.356 117.456 121.335 117.442 121.313 117.428C121.288 117.409 121.262 117.39 121.236 117.372C121.21 117.348 121.185 117.329 121.163 117.301C121.06 117.198 120.979 117.067 120.919 116.922C120.833 116.707 120.781 116.459 120.781 116.192V47.0445C120.781 46.127 121.378 45.0035 122.107 44.5447L158.699 21.5315C159.042 21.3162 159.351 21.2834 159.587 21.4098C159.626 21.4285 159.664 21.4519 159.699 21.48L159.707 21.4894C159.742 21.5175 159.767 21.5456 159.793 21.583C159.81 21.5971 159.819 21.6158 159.832 21.6345C159.849 21.6579 159.866 21.6813 159.874 21.7094C159.909 21.7656 159.935 21.8264 159.952 21.892C159.965 21.9294 159.977 21.9716 159.982 22.0184C159.986 22.0277 159.99 22.0371 159.986 22.0465C159.999 22.0886 160.003 22.1307 160.008 22.1775C160.012 22.2337 160.016 22.2946 160.016 22.3554V22.3648Z" fill="#455A64"/>
</g>
</g>
<path d="M159.582 21.408C159.342 21.2863 159.037 21.319 158.694 21.5297L122.102 44.5429C121.373 45.0017 120.776 46.1252 120.776 47.0427V51.7614L119.086 50.6801V45.9941C119.086 45.0766 119.678 43.9577 120.407 43.499L157.004 20.4858C157.381 20.2423 157.72 20.2376 157.965 20.4015C158.205 20.556 159.303 21.2441 159.582 21.408Z" fill="url(#paint17_linear_1038_747)"/>
<path d="M160.012 22.3548C160.008 21.442 159.416 21.0768 158.691 21.5309L122.099 44.5441C121.369 45.0029 120.777 46.1217 120.777 47.0439V51.7627L160.012 27.0923V22.3548Z" fill="url(#paint18_linear_1038_747)"/>
<g opacity="0.4">
<path d="M158.689 21.534L122.101 44.5472C121.741 44.7766 121.406 45.1698 121.17 45.6192L119.488 44.5566C119.724 44.1119 120.05 43.7233 120.406 43.5033L156.998 20.4901C157.376 20.2514 157.715 20.2467 157.959 20.4058C158.195 20.565 159.294 21.2438 159.573 21.4076C159.341 21.2859 159.028 21.3234 158.684 21.534H158.689Z" fill="white"/>
</g>
<path opacity="0.15" d="M119.086 50.6872V45.9965C119.086 45.5284 119.245 45.0135 119.489 44.5547L121.175 45.6127C120.931 46.0667 120.781 46.5817 120.781 47.0451V51.7639L119.086 50.6872Z" fill="black"/>
<path d="M152.047 27.725C151.635 27.9872 151.301 28.7596 151.301 29.4524C151.301 30.1453 151.635 30.4964 152.047 30.2389C152.459 29.9767 152.794 29.2043 152.794 28.5115C152.794 27.8187 152.459 27.4676 152.047 27.725Z" fill="#455A64"/>
<path d="M154.739 26.0375C154.327 26.2997 153.992 27.0721 153.992 27.7649C153.992 28.4578 154.327 28.8089 154.739 28.5514C155.151 28.2892 155.485 27.5168 155.485 26.824C155.485 26.1312 155.151 25.7801 154.739 26.0375Z" fill="#455A64"/>
<path d="M157.426 24.3344C157.014 24.5966 156.68 25.369 156.68 26.0618C156.68 26.7546 157.014 27.1057 157.426 26.8483C157.838 26.5861 158.173 25.8137 158.173 25.1209C158.173 24.428 157.838 24.0769 157.426 24.3344Z" fill="#455A64"/>
<path opacity="0.9" d="M121.261 117.405C121.214 117.372 121.158 117.34 121.098 117.302C120.978 117.223 120.836 117.138 120.691 117.049H120.686C120.613 116.998 120.54 116.951 120.463 116.909C120.459 116.904 120.45 116.9 120.446 116.9C120.326 116.825 120.206 116.75 120.098 116.68C119.987 116.609 119.884 116.549 119.807 116.502C119.729 116.45 119.669 116.417 119.644 116.403C119.562 116.357 119.485 116.291 119.416 116.202C119.348 116.123 119.288 116.024 119.236 115.907C119.142 115.687 119.086 115.425 119.086 115.144V50.6875L120.776 51.7689V116.197C120.789 116.483 120.836 116.722 120.914 116.928C120.974 117.073 121.051 117.204 121.158 117.307C121.175 117.335 121.201 117.358 121.231 117.377C121.24 117.391 121.248 117.401 121.261 117.41V117.405Z" fill="#37474F"/>
<path d="M124.031 55.6805C124.031 55.5962 124.053 55.5026 124.1 55.409L125.052 53.2602C125.07 53.2275 125.082 53.2088 125.095 53.1947C125.108 53.1853 125.117 53.176 125.121 53.176C125.151 53.1573 125.172 53.1619 125.194 53.1807C125.215 53.2041 125.224 53.2368 125.224 53.2883V54.0093C125.224 54.1029 125.22 54.1731 125.203 54.234C125.19 54.2901 125.168 54.3557 125.134 54.4306L124.632 55.5634L125.134 56.0643C125.168 56.0971 125.19 56.1346 125.203 56.1767C125.215 56.2188 125.224 56.2844 125.224 56.3733V57.0942C125.224 57.141 125.215 57.1925 125.194 57.2393C125.172 57.2862 125.147 57.3189 125.121 57.3376C125.121 57.3376 125.108 57.3423 125.095 57.347C125.082 57.3517 125.07 57.347 125.052 57.3376L124.1 56.3873C124.057 56.3499 124.031 56.289 124.031 56.2048V55.6711V55.6805Z" fill="url(#paint19_linear_1038_747)"/>
<path d="M127.505 50.3002C127.522 50.23 127.544 50.1598 127.578 50.0896C127.612 50.0193 127.655 49.9632 127.719 49.9257L128.076 49.701C128.106 49.6823 128.131 49.6823 128.148 49.7057C128.17 49.7291 128.179 49.7619 128.179 49.8134C128.179 49.8368 128.179 49.8602 128.17 49.8929L126.54 57.4766C126.527 57.5375 126.505 57.6077 126.471 57.6826C126.437 57.7575 126.389 57.8137 126.325 57.8558L125.982 58.0711C125.952 58.0899 125.926 58.0899 125.909 58.0665C125.887 58.0431 125.879 58.0103 125.879 57.9588C125.879 57.9354 125.879 57.912 125.887 57.8792L127.505 50.3049V50.3002Z" fill="url(#paint20_linear_1038_747)"/>
<path d="M130.033 52.4418C130.033 52.5261 130.011 52.6197 129.964 52.7133L129.011 54.862C128.994 54.8948 128.981 54.9135 128.969 54.9276C128.956 54.9369 128.947 54.9463 128.943 54.9463C128.913 54.965 128.887 54.965 128.87 54.9416C128.848 54.9182 128.84 54.8854 128.84 54.834V54.113C128.84 54.0194 128.844 53.9445 128.857 53.8883C128.87 53.8322 128.891 53.7666 128.926 53.6917L129.428 52.5588L128.926 52.0579C128.896 52.0252 128.87 51.9877 128.857 51.9456C128.844 51.9035 128.84 51.8379 128.84 51.749V51.0281C128.84 50.9813 128.848 50.9298 128.87 50.8829C128.891 50.8361 128.917 50.8034 128.943 50.7846C128.943 50.7846 128.956 50.78 128.969 50.7753C128.981 50.7706 128.994 50.7753 129.011 50.7846L129.964 51.7349C130.007 51.7724 130.033 51.8332 130.033 51.9175V52.4512V52.4418Z" fill="url(#paint21_linear_1038_747)"/>
<path d="M132.677 51.9373C132.711 51.9139 132.741 51.9185 132.767 51.9419C132.793 51.97 132.806 52.0122 132.806 52.073V52.8688C132.806 52.9297 132.793 52.9859 132.767 53.0467C132.741 53.1076 132.711 53.145 132.677 53.1684L132.226 53.4493C132.192 53.4727 132.162 53.468 132.136 53.4446C132.111 53.4166 132.098 53.3744 132.098 53.3136V52.5177C132.098 52.4569 132.111 52.4007 132.136 52.3399C132.162 52.279 132.192 52.2415 132.226 52.2181L132.677 51.9373Z" fill="url(#paint22_linear_1038_747)"/>
<path d="M134.177 50.992C134.211 50.9685 134.241 50.9732 134.267 50.9966C134.293 51.0247 134.306 51.0669 134.306 51.1277V51.9235C134.306 51.9844 134.293 52.0406 134.267 52.1014C134.241 52.1623 134.211 52.1997 134.177 52.2231L133.726 52.504C133.692 52.5274 133.662 52.5227 133.636 52.4993C133.611 52.4712 133.598 52.4291 133.598 52.3682V51.5724C133.598 51.5116 133.611 51.4554 133.636 51.3945C133.662 51.3337 133.692 51.2962 133.726 51.2728L134.177 50.992Z" fill="url(#paint23_linear_1038_747)"/>
<path d="M135.677 50.0466C135.711 50.0232 135.741 50.0279 135.767 50.0513C135.793 50.0794 135.806 50.1215 135.806 50.1824V50.9782C135.806 51.0391 135.793 51.0952 135.767 51.1561C135.741 51.217 135.711 51.2544 135.677 51.2778L135.226 51.5587C135.192 51.5821 135.162 51.5774 135.136 51.554C135.111 51.5259 135.098 51.4838 135.098 51.4229V50.6271C135.098 50.5663 135.111 50.5101 135.136 50.4492C135.162 50.3884 135.192 50.3509 135.226 50.3275L135.677 50.0466Z" fill="url(#paint24_linear_1038_747)"/>
<path d="M124.429 61.473L146.412 47.6211C146.67 47.4572 146.884 47.5743 146.884 47.8785C146.884 48.1828 146.674 48.5667 146.412 48.7305L124.429 62.5825C124.172 62.7463 123.957 62.6293 123.957 62.325C123.957 62.016 124.167 61.6368 124.429 61.473Z" fill="url(#paint25_linear_1038_747)"/>
<path d="M131.484 70.3636L153.467 56.5117C153.725 56.3478 153.939 56.4649 153.939 56.7692C153.939 57.0734 153.729 57.4573 153.467 57.6212L131.484 71.4731C131.226 71.6369 131.012 71.5199 131.012 71.2156C131.012 70.9066 131.222 70.5275 131.484 70.3636Z" fill="#E0E0E0"/>
<path d="M131.484 74.8076L142.008 68.1836C142.265 68.0197 142.48 68.1368 142.48 68.441C142.48 68.7453 142.269 69.1292 142.008 69.293L131.484 75.9171C131.226 76.0809 131.012 75.9639 131.012 75.6596C131.012 75.3506 131.222 74.9714 131.484 74.8076Z" fill="#E0E0E0"/>
<path d="M131.484 79.2451L142.008 72.6211C142.265 72.4572 142.48 72.5743 142.48 72.8785C142.48 73.1828 142.269 73.5667 142.008 73.7305L131.484 80.3545C131.226 80.5184 131.012 80.4014 131.012 80.0971C131.012 79.7881 131.222 79.4089 131.484 79.2451Z" fill="#E0E0E0"/>
<path d="M148.238 46.4793L156.998 40.9414C157.256 40.7775 157.47 40.8946 157.47 41.1989C157.47 41.5031 157.26 41.887 156.998 42.0508L148.238 47.5888C147.98 47.7527 147.766 47.6356 147.766 47.3313C147.766 47.0224 147.976 46.6432 148.238 46.4793Z" fill="url(#paint26_linear_1038_747)"/>
<path d="M124.429 110.348L146.412 96.4961C146.67 96.3322 146.884 96.4493 146.884 96.7535C146.884 97.0578 146.674 97.4417 146.412 97.6055L124.429 111.457C124.172 111.621 123.957 111.504 123.957 111.2C123.957 110.891 124.167 110.512 124.429 110.348Z" fill="url(#paint27_linear_1038_747)"/>
<path d="M148.238 95.3543L156.998 89.8164C157.256 89.6525 157.47 89.7696 157.47 90.0738C157.47 90.3781 157.26 90.762 156.998 90.9258L148.238 96.4638C147.98 96.6277 147.766 96.5106 147.766 96.2063C147.766 95.8974 147.976 95.5182 148.238 95.3543Z" fill="url(#paint28_linear_1038_747)"/>
<path d="M148.238 82.0497L156.998 76.5117C157.256 76.3478 157.47 76.4649 157.47 76.7692C157.47 77.0734 157.26 77.4573 156.998 77.6212L148.238 83.1591C147.98 83.323 147.766 83.2059 147.766 82.9017C147.766 82.5927 147.976 82.2135 148.238 82.0497Z" fill="url(#paint29_linear_1038_747)"/>
<path d="M148.238 86.4872L156.998 80.9492C157.256 80.7853 157.47 80.9024 157.47 81.2067C157.47 81.5109 157.26 81.8948 156.998 82.0587L148.238 87.5966C147.98 87.7605 147.766 87.6434 147.766 87.3392C147.766 87.0302 147.976 86.651 148.238 86.4872Z" fill="url(#paint30_linear_1038_747)"/>
<path d="M124.429 105.911L146.412 92.0586C146.67 91.8947 146.884 92.0118 146.884 92.316C146.884 92.6203 146.674 93.0042 146.412 93.168L124.429 107.02C124.172 107.184 123.957 107.067 123.957 106.762C123.957 106.454 124.167 106.074 124.429 105.911Z" fill="#F5F5F5"/>
<path d="M140.765 86.7357L145.686 83.6367C145.948 83.4728 146.158 83.5899 146.158 83.8942C146.158 84.1984 145.948 84.5823 145.686 84.7462L140.765 87.8452C140.507 88.009 140.293 87.892 140.293 87.5877C140.293 87.2787 140.503 86.8995 140.765 86.7357Z" fill="url(#paint31_linear_1038_747)"/>
<path d="M124.429 65.9322L137.253 57.8476C137.51 57.6838 137.725 57.8008 137.725 58.1051C137.725 58.4094 137.514 58.7933 137.253 58.9571L124.429 67.0417C124.172 67.2055 123.957 67.0885 123.957 66.7842C123.957 66.4752 124.167 66.0961 124.429 65.9322Z" fill="url(#paint32_linear_1038_747)"/>
<path opacity="0.6" d="M124.429 65.9322L137.253 57.8476C137.51 57.6838 137.725 57.8008 137.725 58.1051C137.725 58.4094 137.514 58.7933 137.253 58.9571L124.429 67.0417C124.172 67.2055 123.957 67.0885 123.957 66.7842C123.957 66.4752 124.167 66.0961 124.429 65.9322Z" fill="white"/>
<path d="M124.429 70.3643L128.779 67.6211C129.041 67.4572 129.251 67.5743 129.251 67.8785C129.251 68.1828 129.041 68.5667 128.779 68.7305L124.429 71.4738C124.172 71.6376 123.957 71.5206 123.957 71.2163C123.957 70.9073 124.167 70.5281 124.429 70.3643Z" fill="url(#paint33_linear_1038_747)"/>
<path opacity="0.6" d="M124.429 70.3643L128.779 67.6211C129.041 67.4572 129.251 67.5743 129.251 67.8785C129.251 68.1828 129.041 68.5667 128.779 68.7305L124.429 71.4738C124.172 71.6376 123.957 71.5206 123.957 71.2163C123.957 70.9073 124.167 70.5281 124.429 70.3643Z" fill="white"/>
<path d="M124.429 74.8096L128.779 72.0664C129.041 71.9025 129.251 72.0196 129.251 72.3239C129.251 72.6281 129.041 73.012 128.779 73.1759L124.429 75.9191C124.172 76.0829 123.957 75.9659 123.957 75.6616C123.957 75.3526 124.167 74.9735 124.429 74.8096Z" fill="url(#paint34_linear_1038_747)"/>
<path opacity="0.6" d="M124.429 74.8096L128.779 72.0664C129.041 71.9025 129.251 72.0196 129.251 72.3239C129.251 72.6281 129.041 73.012 128.779 73.1759L124.429 75.9191C124.172 76.0829 123.957 75.9659 123.957 75.6616C123.957 75.3526 124.167 74.9735 124.429 74.8096Z" fill="white"/>
<path d="M124.429 79.2549L128.779 76.5117C129.041 76.3478 129.251 76.4649 129.251 76.7692C129.251 77.0734 129.041 77.4573 128.779 77.6212L124.429 80.3644C124.172 80.5282 123.957 80.4112 123.957 80.1069C123.957 79.798 124.167 79.4188 124.429 79.2549Z" fill="url(#paint35_linear_1038_747)"/>
<path opacity="0.6" d="M124.429 79.2549L128.779 76.5117C129.041 76.3478 129.251 76.4649 129.251 76.7692C129.251 77.0734 129.041 77.4573 128.779 77.6212L124.429 80.3644C124.172 80.5282 123.957 80.4112 123.957 80.1069C123.957 79.798 124.167 79.4188 124.429 79.2549Z" fill="white"/>
<path d="M124.429 83.6924L128.779 80.9492C129.041 80.7853 129.251 80.9024 129.251 81.2067C129.251 81.5109 129.041 81.8948 128.779 82.0587L124.429 84.8019C124.172 84.9657 123.957 84.8487 123.957 84.5444C123.957 84.2355 124.167 83.8563 124.429 83.6924Z" fill="url(#paint36_linear_1038_747)"/>
<path opacity="0.6" d="M124.429 83.6924L128.779 80.9492C129.041 80.7853 129.251 80.9024 129.251 81.2067C129.251 81.5109 129.041 81.8948 128.779 82.0587L124.429 84.8019C124.172 84.9657 123.957 84.8487 123.957 84.5444C123.957 84.2355 124.167 83.8563 124.429 83.6924Z" fill="white"/>
<path d="M139.077 56.7008L144.655 53.1992C144.912 53.0353 145.127 53.1524 145.127 53.4567C145.127 53.7609 144.917 54.1448 144.655 54.3087L139.077 57.8103C138.82 57.9741 138.605 57.8571 138.605 57.5528C138.605 57.2438 138.816 56.8646 139.077 56.7008Z" fill="url(#paint37_linear_1038_747)"/>
<path opacity="0.6" d="M139.077 56.7008L144.655 53.1992C144.912 53.0353 145.127 53.1524 145.127 53.4567C145.127 53.7609 144.917 54.1448 144.655 54.3087L139.077 57.8103C138.82 57.9741 138.605 57.8571 138.605 57.5528C138.605 57.2438 138.816 56.8646 139.077 56.7008Z" fill="white"/>
<path d="M136.773 80.3541L149.596 72.2695C149.854 72.1057 150.068 72.2227 150.068 72.527C150.068 72.8313 149.858 73.2151 149.596 73.379L136.773 81.4636C136.515 81.6274 136.301 81.5104 136.301 81.2061C136.301 80.8971 136.511 80.5179 136.773 80.3541Z" fill="#F5F5F5"/>
<path d="M144.171 80.1588L156.995 72.0742C157.252 71.9103 157.467 72.0274 157.467 72.3317C157.467 72.6359 157.257 73.0198 156.995 73.1837L144.171 81.2682C143.914 81.4321 143.699 81.3151 143.699 81.0108C143.699 80.7018 143.909 80.3226 144.171 80.1588Z" fill="#F5F5F5"/>
<path d="M151.421 71.1227L156.999 67.6211C157.256 67.4572 157.47 67.5743 157.47 67.8785C157.47 68.1828 157.26 68.5667 156.999 68.7305L151.421 72.2321C151.164 72.396 150.949 72.2789 150.949 71.9747C150.949 71.6657 151.159 71.2865 151.421 71.1227Z" fill="#F5F5F5"/>
<path d="M131.484 65.9244L144.307 57.8398C144.565 57.676 144.779 57.793 144.779 58.0973C144.779 58.4016 144.569 58.7854 144.307 58.9493L131.484 67.0339C131.226 67.1977 131.012 67.0807 131.012 66.7764C131.012 66.4674 131.222 66.0882 131.484 65.9244Z" fill="url(#paint38_linear_1038_747)"/>
<path opacity="0.6" d="M131.484 65.9244L144.307 57.8398C144.565 57.676 144.779 57.793 144.779 58.0973C144.779 58.4016 144.569 58.7854 144.307 58.9493L131.484 67.0339C131.226 67.1977 131.012 67.0807 131.012 66.7764C131.012 66.4674 131.222 66.0882 131.484 65.9244Z" fill="white"/>
<path d="M146.128 56.693L151.706 53.1914C151.963 53.0275 152.178 53.1446 152.178 53.4489C152.178 53.7531 151.967 54.137 151.706 54.3008L146.128 57.8024C145.871 57.9663 145.656 57.8493 145.656 57.545C145.656 57.236 145.866 56.8568 146.128 56.693Z" fill="url(#paint39_linear_1038_747)"/>
<path opacity="0.6" d="M146.128 56.693L151.706 53.1914C151.963 53.0275 152.178 53.1446 152.178 53.4489C152.178 53.7531 151.967 54.137 151.706 54.3008L146.128 57.8024C145.871 57.9663 145.656 57.8493 145.656 57.545C145.656 57.236 145.866 56.8568 146.128 56.693Z" fill="white"/>
<path d="M187.077 25.6714V20.3394L182.954 19.9462C182.889 19.9415 182.829 19.9556 182.782 19.9836C182.623 20.0773 178.719 22.5162 178.668 22.549C178.513 22.6473 178.462 22.8907 178.599 23.0546L182.971 28.2274L187.077 25.6667V25.6714Z" fill="url(#paint40_linear_1038_747)"/>
<path d="M182.973 28.2341L178.601 23.0613C178.412 22.8413 178.575 22.4855 178.85 22.5089L182.973 22.9021V28.2341Z" fill="url(#paint41_linear_1038_747)"/>
<path d="M187.077 20.3363L182.976 22.9016L178.853 22.5084C178.801 22.5084 178.754 22.5084 178.711 22.5318C179.041 22.3212 182.637 20.0741 182.787 19.9852C182.834 19.9571 182.894 19.9384 182.958 19.9477L187.081 20.3363H187.077Z" fill="url(#paint42_linear_1038_747)"/>
<path opacity="0.5" d="M187.077 20.3363L182.976 22.9016L178.853 22.5084C178.801 22.5084 178.754 22.5084 178.711 22.5318C179.041 22.3212 182.637 20.0741 182.787 19.9852C182.834 19.9571 182.894 19.9384 182.958 19.9477L187.081 20.3363H187.077Z" fill="white"/>
<path d="M182.98 16.8877C182.98 15.8532 183.645 14.5939 184.465 14.0789L185.675 13.3159C186.494 12.801 187.829 12.801 188.648 13.3159L201.549 21.4426C202.368 21.9622 203.038 23.2168 203.038 24.2514V40.5142C203.038 41.5487 202.373 42.808 201.549 43.3229L200.339 44.086C199.52 44.6009 198.185 44.6009 197.366 44.086L193.556 41.6845L188.605 38.5621L184.465 35.9546C183.645 35.4397 182.98 34.1804 182.98 33.1458V16.883V16.8877Z" fill="url(#paint43_linear_1038_747)"/>
<path opacity="0.2" d="M203.039 40.5154C203.039 41.5499 202.374 42.8092 201.555 43.3241L200.345 44.0872C199.603 44.5553 198.449 44.5974 197.625 44.2183C198.324 44.5085 198.856 44.0778 198.856 43.1509V26.8881C198.856 26.3732 198.689 25.7974 198.423 25.2918L202.606 22.6562C202.876 23.1665 203.039 23.7376 203.039 24.2526V40.5154Z" fill="black"/>
<path opacity="0.5" d="M183.027 16.4321C183.199 15.7439 183.778 15.5239 184.465 15.9546L197.37 24.086C197.777 24.3435 198.155 24.7835 198.417 25.2984L202.6 22.6676C202.329 22.1526 201.96 21.7126 201.553 21.4551L188.656 13.3237C187.832 12.8088 186.498 12.8088 185.683 13.3237L184.469 14.0868C183.77 14.5268 183.178 15.5099 183.032 16.4321H183.027Z" fill="white"/>
<path d="M190.92 22.8271L186.008 22.0781L186.694 31.965L190.92 37.957V22.8271Z" fill="#455A64"/>
<path d="M190.922 22.8281L195.834 28.2678L195.148 37.2933L190.922 37.958V22.8281Z" fill="#37474F"/>
<path d="M192.946 35.6974L194.07 36.4043L190.93 24.3359L187.789 32.4533L188.913 33.1602L189.591 31.4L192.264 33.0853L192.942 35.6974H192.946ZM190.003 30.342L190.93 27.9312L191.856 31.5077L190.003 30.3373V30.342Z" fill="#FAFAFA"/>
<path d="M187.077 56.023V50.691L182.954 50.2978C182.889 50.2931 182.829 50.3071 182.782 50.3352C182.623 50.4288 178.719 52.8678 178.668 52.9006C178.513 52.9989 178.462 53.2423 178.599 53.4061L182.971 58.579L187.077 56.0183V56.023Z" fill="url(#paint44_linear_1038_747)"/>
<path d="M182.973 58.5857L178.601 53.4129C178.412 53.1928 178.575 52.8371 178.85 52.8605L182.973 53.2537V58.5857Z" fill="#EBEBEB"/>
<path d="M187.077 50.6879L182.976 53.2532L178.853 52.86C178.801 52.86 178.754 52.86 178.711 52.8834C179.041 52.6727 182.637 50.4257 182.787 50.3368C182.834 50.3087 182.894 50.2899 182.958 50.2993L187.081 50.6879H187.077Z" fill="url(#paint45_linear_1038_747)"/>
<path d="M187.077 50.6879L182.976 53.2532L178.853 52.86C178.801 52.86 178.754 52.86 178.711 52.8834C179.041 52.6727 182.637 50.4257 182.787 50.3368C182.834 50.3087 182.894 50.2899 182.958 50.2993L187.081 50.6879H187.077Z" fill="#F5F5F5"/>
<path d="M182.98 47.2471C182.98 46.2125 183.645 44.9533 184.465 44.4383L185.675 43.6753C186.494 43.1603 187.829 43.1603 188.648 43.6753L201.549 51.802C202.368 52.3216 203.038 53.5762 203.038 54.6108V70.8735C203.038 71.9081 202.373 73.1674 201.549 73.6823L200.339 74.4454C199.52 74.9603 198.185 74.9603 197.366 74.4454L193.556 72.0439L188.605 68.9214L184.465 66.314C183.645 65.799 182.98 64.5398 182.98 63.5052V47.2424V47.2471Z" fill="#EBEBEB"/>
<path d="M203.039 70.8669C203.039 71.9015 202.374 73.1608 201.555 73.6757L200.345 74.4387C199.603 74.9069 198.449 74.949 197.625 74.5698C198.324 74.8601 198.856 74.4294 198.856 73.5025V57.2397C198.856 56.7201 198.689 56.149 198.423 55.6434L202.606 53.0078C202.876 53.5181 203.039 54.0892 203.039 54.6041V70.8669Z" fill="#E0E0E0"/>
<path d="M183.027 46.7805C183.199 46.0924 183.778 45.8723 184.465 46.303L197.37 54.4344C197.777 54.6919 198.155 55.1319 198.417 55.6469L202.6 53.0113C202.329 52.4964 201.96 52.0563 201.553 51.7989L188.656 43.6675C187.832 43.1525 186.498 43.1525 185.683 43.6675L184.469 44.4305C183.77 44.8705 183.178 45.8536 183.032 46.7758L183.027 46.7805Z" fill="#F5F5F5"/>
<path d="M190.92 57.1811L192.006 54.9575L195.833 57.3683L190.92 67.4518L186.008 51.1797L189.835 53.5906L190.92 57.1811Z" fill="url(#paint46_linear_1038_747)"/>
<path opacity="0.15" d="M190.92 57.1811L192.006 54.9575L195.833 57.3683L190.92 67.4518L186.008 51.1797L189.835 53.5906L190.92 57.1811Z" fill="black"/>
<path d="M190.922 57.1829L189.836 53.5923L188.129 52.5156C189.498 57.0518 190.922 61.7612 190.922 61.7612L193.715 56.0313L192.007 54.9546L190.922 57.1782V57.1829Z" fill="#37474F"/>
<path d="M187.077 86.3745V81.0426L182.954 80.6493C182.889 80.6446 182.829 80.6587 182.782 80.6868C182.623 80.7804 178.719 83.2194 178.668 83.2521C178.513 83.3504 178.462 83.5939 178.599 83.7577L182.971 88.9305L187.077 86.3699V86.3745Z" fill="url(#paint47_linear_1038_747)"/>
<path d="M182.973 88.9373L178.601 83.7644C178.412 83.5444 178.575 83.1886 178.85 83.212L182.973 83.6053V88.9373Z" fill="#37474F"/>
<path d="M187.077 81.0394L182.976 83.6048L178.853 83.2115C178.801 83.2115 178.754 83.2115 178.711 83.2349C179.041 83.0243 182.637 80.7773 182.787 80.6883C182.834 80.6602 182.894 80.6415 182.958 80.6509L187.081 81.0394H187.077Z" fill="url(#paint48_linear_1038_747)"/>
<path d="M187.077 81.0394L182.976 83.6048L178.853 83.2115C178.801 83.2115 178.754 83.2115 178.711 83.2349C179.041 83.0243 182.637 80.7773 182.787 80.6883C182.834 80.6602 182.894 80.6415 182.958 80.6509L187.081 81.0394H187.077Z" fill="#455A64"/>
<path d="M182.98 77.5943C182.98 76.5598 183.645 75.3005 184.465 74.7856L185.675 74.0225C186.494 73.5029 187.829 73.5029 188.648 74.0225L201.549 82.1492C202.368 82.6689 203.038 83.9235 203.038 84.958V101.221C203.038 102.255 202.373 103.515 201.549 104.03L200.339 104.793C199.52 105.308 198.185 105.308 197.366 104.793L193.556 102.391L188.605 99.2687L184.465 96.6612C183.645 96.1463 182.98 94.887 182.98 93.8525V77.5897V77.5943Z" fill="#37474F"/>
<path d="M203.039 101.218C203.039 102.253 202.374 103.512 201.555 104.027L200.345 104.79C199.603 105.258 198.449 105.301 197.625 104.921C198.324 105.212 198.856 104.781 198.856 103.854V87.5913C198.856 87.0716 198.689 86.5005 198.423 85.9949L202.606 83.3594C202.876 83.8696 203.039 84.4408 203.039 84.9557V101.218Z" fill="#263238"/>
<path d="M183.027 77.1321C183.199 76.4439 183.778 76.2239 184.465 76.6546L197.37 84.786C197.777 85.0434 198.155 85.4835 198.417 85.9984L202.6 83.3629C202.329 82.8479 201.96 82.4079 201.553 82.1504L188.656 74.019C187.832 73.5041 186.498 73.5041 185.683 74.019L184.469 74.7821C183.77 75.2221 183.178 76.2052 183.032 77.1274L183.027 77.1321Z" fill="#455A64"/>
<path d="M193.791 90.0171C194.096 88.3365 193.971 86.7823 193.362 85.9022C193.057 85.4575 192.654 85.2281 192.195 85.2281C192.161 85.2281 192.122 85.2281 192.088 85.2281C191.719 85.2562 191.333 85.4247 190.951 85.715C190.08 83.9454 189.226 82.8594 188.621 82.8594C188.591 82.8594 188.561 82.8594 188.536 82.8687C188.377 82.8968 188.244 83.0045 188.145 83.1871C187.849 83.7254 187.836 84.8864 188.059 86.4218C187.386 86.2814 186.824 86.3095 186.455 86.5482C186.129 86.7542 185.957 87.1053 185.957 87.5687C185.957 88.5846 186.776 89.9796 188.051 91.3091C187.746 92.9944 187.871 94.5439 188.48 95.4239C188.621 95.6299 188.784 95.7891 188.965 95.9014C189.175 96.0325 189.402 96.0981 189.647 96.0981C189.793 96.0981 189.943 96.0746 190.101 96.0278C190.372 95.9483 190.646 95.7891 190.921 95.5784C191.612 96.9922 192.302 98.0033 192.856 98.3497C193.006 98.4434 193.143 98.4902 193.272 98.4902C193.302 98.4902 193.332 98.4902 193.362 98.4808C193.521 98.4527 193.65 98.3451 193.753 98.1625C194.049 97.6242 194.061 96.4538 193.838 94.9137C194.083 94.9605 194.315 94.9886 194.52 94.9886C194.872 94.9886 195.173 94.9184 195.4 94.7732C195.726 94.5673 195.898 94.2162 195.898 93.7527C195.898 92.7369 195.078 91.3419 193.804 90.0124L193.791 90.0171ZM192.32 92.7275C192.169 93.0224 192.011 93.294 191.848 93.5468C191.564 93.397 191.264 93.2284 190.947 93.0271C190.629 92.8258 190.325 92.6199 190.037 92.4045C189.87 91.9364 189.707 91.4402 189.544 90.9252C189.385 90.4196 189.248 89.9328 189.123 89.4647C189.243 89.1744 189.372 88.8842 189.518 88.594C189.668 88.299 189.827 88.0275 189.986 87.7747C190.273 87.9245 190.569 88.0931 190.891 88.2943C191.226 88.505 191.543 88.725 191.848 88.9497C192.015 89.4179 192.178 89.9047 192.337 90.4243C192.483 90.9018 192.616 91.3606 192.736 91.8006C192.611 92.1096 192.474 92.4186 192.32 92.7228V92.7275ZM192.74 90.3354C192.646 90.0264 192.547 89.7221 192.444 89.4272C192.731 89.666 193.002 89.9047 193.255 90.1481C193.178 90.4711 193.088 90.8035 192.976 91.1359C192.899 90.8691 192.822 90.6022 192.736 90.3354H192.74ZM190.947 87.6951C190.728 87.5594 190.513 87.433 190.303 87.316C190.505 87.0444 190.706 86.8104 190.912 86.6138C191.114 87.0585 191.32 87.55 191.526 88.079C191.337 87.9479 191.144 87.8169 190.947 87.6951ZM189.123 88.1071C189.046 88.2616 188.973 88.4161 188.9 88.5752C188.784 88.0884 188.686 87.6249 188.608 87.1942C188.866 87.2738 189.145 87.3815 189.449 87.5173C189.338 87.7045 189.231 87.9011 189.123 88.1071ZM189.14 91.0189C189.239 91.3325 189.338 91.6415 189.441 91.9458C189.132 91.693 188.844 91.4402 188.578 91.1827C188.66 90.8363 188.759 90.4852 188.879 90.1294C188.96 90.4243 189.05 90.7193 189.14 91.0235V91.0189ZM190.891 93.631C191.105 93.7668 191.32 93.8885 191.53 94.0055C191.337 94.263 191.144 94.4924 190.947 94.6843C190.754 94.2536 190.556 93.7808 190.359 93.2752C190.535 93.3969 190.711 93.514 190.891 93.6263V93.631ZM192.714 93.2191C192.8 93.0459 192.882 92.8726 192.963 92.6994C193.088 93.2144 193.19 93.7012 193.272 94.146C193.002 94.0664 192.71 93.954 192.388 93.8136C192.5 93.6263 192.611 93.4297 192.714 93.2191ZM192.131 88.5284C191.839 87.7326 191.539 86.9929 191.238 86.3329C191.479 86.1503 191.719 86.0099 191.955 85.9397C192.084 85.9022 192.208 85.8835 192.324 85.8835C192.504 85.8835 192.671 85.9303 192.813 86.0192C192.924 86.0895 193.023 86.1831 193.105 86.3048C193.517 86.8993 193.624 88.1399 193.371 89.5957C192.989 89.2306 192.573 88.8701 192.131 88.5331V88.5284ZM189.754 87.0351C189.308 86.8197 188.887 86.6512 188.497 86.5342C188.282 85.083 188.308 84.0859 188.523 83.6973C188.578 83.599 188.643 83.5428 188.716 83.5288C188.729 83.5288 188.741 83.5288 188.754 83.5288C188.823 83.5288 188.9 83.5569 188.986 83.6131C189.394 83.8705 189.981 84.7038 190.621 86.0052C190.325 86.2814 190.033 86.6278 189.754 87.0398V87.0351ZM188.63 89.2212C188.437 89.7315 188.278 90.2464 188.158 90.7567C187.055 89.5957 186.403 88.4722 186.403 87.7841C186.403 87.5032 186.515 87.2925 186.729 87.1568C186.892 87.0538 187.137 86.9883 187.459 86.9883C187.66 86.9883 187.896 87.0164 188.162 87.0725C188.282 87.7373 188.437 88.4582 188.634 89.2166L188.63 89.2212ZM189.754 92.8399C190.037 93.6076 190.329 94.3238 190.625 94.9745C190.269 95.2554 189.921 95.4193 189.595 95.4427C189.239 95.4754 188.939 95.3256 188.729 95.0214C188.317 94.4268 188.209 93.1863 188.463 91.7304C188.862 92.1143 189.295 92.4841 189.754 92.8352V92.8399ZM192.079 94.2958C192.538 94.5205 192.976 94.6937 193.379 94.8107C193.594 96.2666 193.568 97.2684 193.358 97.6569C193.302 97.7552 193.238 97.8114 193.165 97.8254C192.774 97.9003 192.041 96.95 191.238 95.3022C191.526 95.026 191.813 94.6937 192.084 94.2958H192.079ZM193.225 92.0487C193.409 91.5572 193.559 91.061 193.675 90.5741C194.778 91.7351 195.43 92.8586 195.43 93.5468C195.43 93.8276 195.318 94.0383 195.104 94.174C194.842 94.3379 194.375 94.4034 193.714 94.2677C193.594 93.5842 193.426 92.8399 193.225 92.0534V92.0487Z" fill="url(#paint49_linear_1038_747)"/>
<path d="M191.789 91.2173C191.789 91.9195 191.398 92.2378 190.918 91.9382C190.437 91.6339 190.047 90.8193 190.047 90.1218C190.047 89.4243 190.437 89.1013 190.918 89.4009C191.398 89.7005 191.789 90.5198 191.789 91.2173Z" fill="url(#paint50_linear_1038_747)"/>
<g opacity="0.65">
<path d="M193.791 90.0171C194.096 88.3365 193.971 86.7823 193.362 85.9022C193.057 85.4575 192.654 85.2281 192.195 85.2281C192.161 85.2281 192.122 85.2281 192.088 85.2281C191.719 85.2562 191.333 85.4247 190.951 85.715C190.08 83.9454 189.226 82.8594 188.621 82.8594C188.591 82.8594 188.561 82.8594 188.536 82.8687C188.377 82.8968 188.244 83.0045 188.145 83.1871C187.849 83.7254 187.836 84.8864 188.059 86.4218C187.386 86.2814 186.824 86.3095 186.455 86.5482C186.129 86.7542 185.957 87.1053 185.957 87.5687C185.957 88.5846 186.776 89.9796 188.051 91.3091C187.746 92.9944 187.871 94.5439 188.48 95.4239C188.621 95.6299 188.784 95.7891 188.965 95.9014C189.175 96.0325 189.402 96.0981 189.647 96.0981C189.793 96.0981 189.943 96.0746 190.101 96.0278C190.372 95.9483 190.646 95.7891 190.921 95.5784C191.612 96.9922 192.302 98.0033 192.856 98.3497C193.006 98.4434 193.143 98.4902 193.272 98.4902C193.302 98.4902 193.332 98.4902 193.362 98.4808C193.521 98.4527 193.65 98.3451 193.753 98.1625C194.049 97.6242 194.061 96.4538 193.838 94.9137C194.083 94.9605 194.315 94.9886 194.52 94.9886C194.872 94.9886 195.173 94.9184 195.4 94.7732C195.726 94.5673 195.898 94.2162 195.898 93.7527C195.898 92.7369 195.078 91.3419 193.804 90.0124L193.791 90.0171ZM192.32 92.7275C192.169 93.0224 192.011 93.294 191.848 93.5468C191.564 93.397 191.264 93.2284 190.947 93.0271C190.629 92.8258 190.325 92.6199 190.037 92.4045C189.87 91.9364 189.707 91.4402 189.544 90.9252C189.385 90.4196 189.248 89.9328 189.123 89.4647C189.243 89.1744 189.372 88.8842 189.518 88.594C189.668 88.299 189.827 88.0275 189.986 87.7747C190.273 87.9245 190.569 88.0931 190.891 88.2943C191.226 88.505 191.543 88.725 191.848 88.9497C192.015 89.4179 192.178 89.9047 192.337 90.4243C192.483 90.9018 192.616 91.3606 192.736 91.8006C192.611 92.1096 192.474 92.4186 192.32 92.7228V92.7275ZM192.74 90.3354C192.646 90.0264 192.547 89.7221 192.444 89.4272C192.731 89.666 193.002 89.9047 193.255 90.1481C193.178 90.4711 193.088 90.8035 192.976 91.1359C192.899 90.8691 192.822 90.6022 192.736 90.3354H192.74ZM190.947 87.6951C190.728 87.5594 190.513 87.433 190.303 87.316C190.505 87.0444 190.706 86.8104 190.912 86.6138C191.114 87.0585 191.32 87.55 191.526 88.079C191.337 87.9479 191.144 87.8169 190.947 87.6951ZM189.123 88.1071C189.046 88.2616 188.973 88.4161 188.9 88.5752C188.784 88.0884 188.686 87.6249 188.608 87.1942C188.866 87.2738 189.145 87.3815 189.449 87.5173C189.338 87.7045 189.231 87.9011 189.123 88.1071ZM189.14 91.0189C189.239 91.3325 189.338 91.6415 189.441 91.9458C189.132 91.693 188.844 91.4402 188.578 91.1827C188.66 90.8363 188.759 90.4852 188.879 90.1294C188.96 90.4243 189.05 90.7193 189.14 91.0235V91.0189ZM190.891 93.631C191.105 93.7668 191.32 93.8885 191.53 94.0055C191.337 94.263 191.144 94.4924 190.947 94.6843C190.754 94.2536 190.556 93.7808 190.359 93.2752C190.535 93.3969 190.711 93.514 190.891 93.6263V93.631ZM192.714 93.2191C192.8 93.0459 192.882 92.8726 192.963 92.6994C193.088 93.2144 193.19 93.7012 193.272 94.146C193.002 94.0664 192.71 93.954 192.388 93.8136C192.5 93.6263 192.611 93.4297 192.714 93.2191ZM192.131 88.5284C191.839 87.7326 191.539 86.9929 191.238 86.3329C191.479 86.1503 191.719 86.0099 191.955 85.9397C192.084 85.9022 192.208 85.8835 192.324 85.8835C192.504 85.8835 192.671 85.9303 192.813 86.0192C192.924 86.0895 193.023 86.1831 193.105 86.3048C193.517 86.8993 193.624 88.1399 193.371 89.5957C192.989 89.2306 192.573 88.8701 192.131 88.5331V88.5284ZM189.754 87.0351C189.308 86.8197 188.887 86.6512 188.497 86.5342C188.282 85.083 188.308 84.0859 188.523 83.6973C188.578 83.599 188.643 83.5428 188.716 83.5288C188.729 83.5288 188.741 83.5288 188.754 83.5288C188.823 83.5288 188.9 83.5569 188.986 83.6131C189.394 83.8705 189.981 84.7038 190.621 86.0052C190.325 86.2814 190.033 86.6278 189.754 87.0398V87.0351ZM188.63 89.2212C188.437 89.7315 188.278 90.2464 188.158 90.7567C187.055 89.5957 186.403 88.4722 186.403 87.7841C186.403 87.5032 186.515 87.2925 186.729 87.1568C186.892 87.0538 187.137 86.9883 187.459 86.9883C187.66 86.9883 187.896 87.0164 188.162 87.0725C188.282 87.7373 188.437 88.4582 188.634 89.2166L188.63 89.2212ZM189.754 92.8399C190.037 93.6076 190.329 94.3238 190.625 94.9745C190.269 95.2554 189.921 95.4193 189.595 95.4427C189.239 95.4754 188.939 95.3256 188.729 95.0214C188.317 94.4268 188.209 93.1863 188.463 91.7304C188.862 92.1143 189.295 92.4841 189.754 92.8352V92.8399ZM192.079 94.2958C192.538 94.5205 192.976 94.6937 193.379 94.8107C193.594 96.2666 193.568 97.2684 193.358 97.6569C193.302 97.7552 193.238 97.8114 193.165 97.8254C192.774 97.9003 192.041 96.95 191.238 95.3022C191.526 95.026 191.813 94.6937 192.084 94.2958H192.079ZM193.225 92.0487C193.409 91.5572 193.559 91.061 193.675 90.5741C194.778 91.7351 195.43 92.8586 195.43 93.5468C195.43 93.8276 195.318 94.0383 195.104 94.174C194.842 94.3379 194.375 94.4034 193.714 94.2677C193.594 93.5842 193.426 92.8399 193.225 92.0534V92.0487Z" fill="white"/>
<path d="M191.789 91.2173C191.789 91.9195 191.398 92.2378 190.918 91.9382C190.437 91.6339 190.047 90.8193 190.047 90.1218C190.047 89.4243 190.437 89.1013 190.918 89.4009C191.398 89.7005 191.789 90.5198 191.789 91.2173Z" fill="white"/>
</g>
<path d="M173.309 109.367C174.986 109.723 175.75 110.346 176.702 112.883C177.655 115.42 179.354 121.599 179.753 123.299C179.929 124.057 175.522 130.854 175.711 130.756C175.771 130.723 173.991 127.479 173.991 127.479L176.153 122.962L174.613 118.856L173.309 109.367Z" fill="#FFA8A7"/>
<path d="M172.738 109.406C172.738 109.406 174.27 109.107 175.282 110.024C176.295 110.942 176.449 111.55 177.131 113.437C177.813 115.323 178.942 119.237 178.942 119.237C178.942 119.237 178.62 121.343 175.475 121.76L172.781 115.136C172.781 115.136 171.841 111.129 172.742 109.401L172.738 109.406Z" fill="url(#paint51_linear_1038_747)"/>
<path d="M169.581 163.755C169.538 164.349 169.47 164.883 169.68 165.538C169.984 166.475 170.624 166.905 171.001 167.275C171.379 167.645 171.799 168.193 172.099 168.726C172.365 169.199 172.67 169.747 173.245 170.29C173.601 170.627 174.609 170.66 175.098 170.435C175.583 170.21 175.746 170.014 175.716 169.166C175.686 168.338 173.335 168.029 173.335 168.029L169.581 163.75V163.755Z" fill="#455A64"/>
<path d="M175.412 166.645C175.613 166.73 175.665 167.146 175.695 167.975C175.716 168.602 175.961 169.52 175.167 169.918C174.528 170.236 173.507 170.025 173.074 169.431C172.533 168.691 172.173 168.04 171.4 167.142C170.735 166.36 170.04 166.098 169.744 164.534C169.555 163.532 169.706 163.116 170.323 162.825C171.173 162.427 172.511 163.724 173.181 163.926C173.756 164.099 175.214 166.556 175.412 166.641V166.645Z" fill="url(#paint52_linear_1038_747)"/>
<path opacity="0.2" d="M175.412 166.645C175.613 166.73 175.665 167.146 175.695 167.975C175.716 168.602 175.961 169.52 175.167 169.918C174.528 170.236 173.507 170.025 173.074 169.431C172.533 168.691 172.173 168.04 171.4 167.142C170.735 166.36 170.04 166.098 169.744 164.534C169.555 163.532 169.706 163.116 170.323 162.825C171.173 162.427 172.511 163.724 173.181 163.926C173.756 164.099 175.214 166.556 175.412 166.641V166.645Z" fill="black"/>
<path d="M173.177 163.933C173.143 163.923 173.104 163.905 173.066 163.891C171.839 164.008 171.345 164.93 171.221 165.211C171.109 165.482 171.457 165.698 171.667 165.482C172.143 164.452 173.121 164.223 173.507 164.172C173.383 164.05 173.267 163.961 173.177 163.933Z" fill="#FAFAFA"/>
<path d="M173.729 164.406C172.593 164.575 172.138 165.445 172.018 165.712C171.906 165.984 172.254 166.199 172.464 165.984C172.841 165.165 173.536 164.851 174 164.734C173.91 164.617 173.82 164.505 173.729 164.406Z" fill="#FAFAFA"/>
<path d="M158.881 176.583C158.752 177.285 158.984 177.65 159.816 178.175C160.648 178.699 161.953 178.877 163.326 178.442C164.699 178.006 165.355 177.351 165.926 177.196C166.496 177.042 167.908 177.028 168.47 176.845C169.032 176.667 169.023 176.349 169.023 175.609L158.885 176.578L158.881 176.583Z" fill="#455A64"/>
<path d="M168.466 172.055C168.466 172.055 168.732 172.939 168.878 173.717C168.993 174.334 169.156 175.36 168.959 175.823C168.762 176.287 167.989 176.586 166.797 176.577C166.024 176.572 164.819 177.143 163.991 177.649C163.137 178.168 162.215 178.168 161.309 178.056C160.245 177.92 159.147 177.246 158.971 176.769C158.8 176.287 158.757 175.926 161.258 174.765C161.279 174.756 164.167 173.595 165.377 172.134L168.461 172.064L168.466 172.055Z" fill="url(#paint53_linear_1038_747)"/>
<g opacity="0.2">
<path d="M168.466 172.055C168.466 172.055 168.732 172.939 168.878 173.717C168.993 174.334 169.156 175.36 168.959 175.823C168.762 176.287 167.989 176.586 166.797 176.577C166.024 176.572 164.819 177.143 163.991 177.649C163.137 178.168 162.215 178.168 161.309 178.056C160.245 177.92 159.147 177.246 158.971 176.769C158.8 176.287 158.757 175.926 161.258 174.765C161.279 174.756 164.167 173.595 165.377 172.134L168.461 172.064L168.466 172.055Z" fill="black"/>
</g>
<path d="M163.65 177.825C163.65 177.825 163.435 175.48 161.685 174.806C160.106 174.197 158.725 175.475 158.879 176.589C158.982 177.338 160.908 179.033 163.65 177.825Z" fill="#FAFAFA"/>
<path d="M162.129 174.365C162.129 174.365 162.691 174.365 163.322 174.946C163.828 175.409 163.841 175.718 163.841 175.718C163.957 175.91 164.326 175.807 164.296 175.479C164.296 175.479 164.18 174.295 162.751 174.051C162.751 174.051 162.356 173.944 162.129 174.365Z" fill="#FAFAFA"/>
<path d="M163.129 173.842C163.129 173.842 163.704 173.785 164.334 174.366C164.841 174.829 164.841 175.194 164.841 175.194C164.957 175.386 165.326 175.283 165.296 174.956C165.296 174.956 165.18 173.771 163.751 173.528C163.751 173.528 163.356 173.42 163.129 173.842Z" fill="#FAFAFA"/>
<path d="M164.121 173.225C164.121 173.225 164.692 173.126 165.357 173.655C165.889 174.081 165.914 174.442 165.914 174.442C166.043 174.624 166.404 174.493 166.356 174.17C166.356 174.17 166.163 173 164.726 172.864C164.726 172.864 164.327 172.789 164.125 173.225H164.121Z" fill="#FAFAFA"/>
<path d="M175.413 165.305V166.896C175.413 166.896 174.443 167.711 173.053 166.967C173.01 166.868 172.895 165.305 172.895 165.305H175.413Z" fill="#FFA8A7"/>
<path d="M168.465 170.961C168.465 170.961 168.465 171.715 168.465 172.15C168.465 172.581 168.001 173.227 166.791 173.18C165.942 173.147 165.35 172.899 165.38 172.136V171.036L168.465 170.966V170.961Z" fill="#FFA8A7"/>
<path d="M176.988 151.792C176.91 148.436 176.275 146.961 176.275 146.961C176.275 146.961 176.511 142.814 177.022 137.734C177.803 130.001 177.442 128.503 176.044 125.025C176.044 125.025 164.117 123.705 163.752 129.116C163.297 135.853 163.246 149.555 163.409 151.933C163.572 154.311 163.572 152.115 164.099 156.932C164.52 160.743 165.387 171.028 165.387 171.028C166.97 171.959 168.471 170.958 168.471 170.958C168.471 170.958 169.445 158.37 169.342 155.626C169.218 152.275 169.042 151.423 169.042 151.423C169.042 151.423 170.436 140.571 170.651 138.821C170.651 138.821 170.844 141.948 171.007 144.326C171.17 146.704 171.157 148.623 171.616 153.543C171.976 157.405 172.847 165.738 172.847 165.738C174.259 166.389 175.447 165.527 175.447 165.527C175.447 165.527 177.043 154.507 176.979 151.792H176.988Z" fill="#455A64"/>
<path d="M170.136 165.696C170.136 165.696 170.205 163.838 172.504 163.58L172.637 163.66C172.637 163.66 172.268 162.929 171.505 162.705C170.737 162.48 170.136 162.695 169.733 163.262C169.329 163.828 169.737 165.336 170.136 165.696Z" fill="#FAFAFA"/>
<path d="M167.199 107.614L167.757 112.647L171.811 112.244L171.348 106.664L167.199 107.614Z" fill="#FFA8A7"/>
<path d="M175.764 111.798C175.318 110.473 174.297 109.087 172.739 109.406C172.332 109.49 171.976 109.551 171.594 109.635C171.56 110.791 169.556 111.395 167.565 110.688C166.965 110.875 166.416 111.067 165.918 111.259C164.493 111.816 163.919 114.4 163.889 118.726C163.859 123.051 163.301 131.735 163.301 131.735C163.301 131.735 166.3 133.472 171.911 132.363C177.523 131.253 177.424 129.17 177.424 129.17C177.424 129.17 177.313 126.633 174.782 122.373C176.931 116.137 176.425 113.759 175.764 111.793V111.798Z" fill="#37474F"/>
<path d="M164.188 101.23C164.188 101.23 163.338 99.47 164.493 97.4899C165.853 95.1586 168.474 94.7607 171.584 95.6688C173.125 96.1182 175.278 97.9065 175.471 101.132C175.622 103.618 169.263 105.453 169.409 107.157L164.188 101.23Z" fill="#263238"/>
<path d="M164.051 102.172C164.051 102.172 163.188 103.679 163.308 103.834C163.428 103.988 164.003 104.138 164.003 104.138L164.046 102.172H164.051Z" fill="#F28F8F"/>
<path d="M166.68 97.3922C165.817 97.9118 164.329 98.8668 164.028 102.387C163.719 106.006 164.487 107.237 164.946 107.696C165.26 108.005 166.83 108.075 167.641 107.775C168.658 107.396 170.846 106.137 171.841 104.246C173.012 102.022 173.192 99.0962 171.751 97.9914C169.722 96.4419 167.409 96.9521 166.68 97.3922Z" fill="#FFA8A7"/>
<path d="M166.724 101.648C166.724 101.648 164.948 101.054 164.622 98.7597C164.296 96.4659 166.926 95.4922 166.926 95.4922L166.728 101.648H166.724Z" fill="#263238"/>
<path d="M166.429 97.5544C166.429 97.5544 165.747 100.864 166.712 102.919C166.712 102.919 167.214 101.618 168.235 101.959C169.261 102.301 169.205 103.785 168.424 104.562C167.643 105.344 166.854 104.974 166.854 104.974C166.854 104.974 167.322 106.369 168.368 107.474C168.368 107.474 171.389 108.944 174.006 105.723C176.378 102.802 175.937 97.7042 172.303 96.5011C168.669 95.298 166.429 97.5591 166.429 97.5591V97.5544Z" fill="#263238"/>
<path d="M178.943 110.528C176.665 110.528 174.82 108.515 174.82 106.029V98.4922C177.098 98.4922 178.943 100.505 178.943 102.991V110.528Z" fill="#263238"/>
<path d="M175.278 97.5139C174.905 97.645 174.699 98.0851 174.819 98.4923L176.175 98.0148C176.055 97.6076 175.652 97.3829 175.278 97.5139Z" fill="#263238"/>
<path d="M155.663 119.233C155.075 118.498 154.977 116.878 154.191 115.764C153.428 114.678 153.552 113.526 153.059 114.027C152.531 114.561 152.934 116.354 152.934 116.354C152.934 116.354 152.021 118.203 151.943 119.148C151.866 120.094 154.157 122.467 154.157 122.467L155.659 119.233H155.663Z" fill="#FFA8A7"/>
<path d="M153.059 116.225C153.059 116.225 152.132 117.644 147.949 115.79C146.795 115.28 147.571 117.99 148.991 119.109C150.304 120.148 151.943 120.471 153.256 121.44C153.256 121.304 153.063 116.221 153.063 116.221L153.059 116.225Z" fill="#FFA8A7"/>
<path d="M166.274 111.125C165.081 111.579 164.038 112.099 162.927 114.378C161.498 117.309 158.899 123.048 158.899 123.048L155.659 119.224C155.659 119.224 155.187 118.498 154.312 120.08C153.437 121.663 153.823 122.098 153.823 122.098C153.823 122.098 157.59 127.603 158.281 128.305C158.971 129.008 160.108 128.46 160.851 127.36C161.593 126.26 165.424 118.681 165.424 118.681C165.424 118.681 167.955 113.896 166.269 111.125H166.274Z" fill="#FFA8A7"/>
<path d="M166.848 110.922C166.552 111.025 164.497 111.025 163.219 113.557C161.794 116.366 160.297 119.54 160.297 119.54C160.297 119.54 161.327 122.255 163.961 122.466C163.965 122.185 166.115 118.019 166.925 116.235C167.736 114.452 167.659 111.727 166.852 110.927L166.848 110.922Z" fill="url(#paint54_linear_1038_747)"/>
<path d="M170.648 138.821L170.876 136.19C170.876 136.19 172.626 136.008 174.514 134.688C174.514 134.688 173.737 136.04 171.614 136.658L171.133 139.219L171.009 144.326L170.653 138.821H170.648Z" fill="#37474F"/>
<defs>
<filter id="filter0_f_1038_747" x="164.9" y="83.9" width="55.2" height="72.2" filterUnits="userSpaceOnUse" color-interpolation-filters="sRGB">
<feFlood flood-opacity="0" result="BackgroundImageFix"/>
<feBlend mode="normal" in="SourceGraphic" in2="BackgroundImageFix" result="shape"/>
<feGaussianBlur stdDeviation="3.05" result="effect1_foregroundBlur_1038_747"/>
</filter>
<filter id="filter1_d_1038_747" x="0.6" y="72.7172" width="221.8" height="146.683" filterUnits="userSpaceOnUse" color-interpolation-filters="sRGB">
<feFlood flood-opacity="0" result="BackgroundImageFix"/>
<feColorMatrix in="SourceAlpha" type="matrix" values="0 0 0 0 0 0 0 0 0 0 0 0 0 0 0 0 0 0 127 0" result="hardAlpha"/>
<feOffset dy="4"/>
<feGaussianBlur stdDeviation="4.7"/>
<feComposite in2="hardAlpha" operator="out"/>
<feColorMatrix type="matrix" values="0 0 0 0 0 0 0 0 0 0.0823529 0 0 0 0 0.180392 0 0 0 0.2 0"/>
<feBlend mode="normal" in2="BackgroundImageFix" result="effect1_dropShadow_1038_747"/>
<feBlend mode="normal" in="SourceGraphic" in2="effect1_dropShadow_1038_747" result="shape"/>
</filter>
<linearGradient id="paint0_linear_1038_747" x1="67.7954" y1="136.369" x2="107.052" y2="114.093" gradientUnits="userSpaceOnUse">
<stop stop-color="#4EC4F0"/>
<stop offset="1" stop-color="#3A58A7"/>
</linearGradient>
<linearGradient id="paint1_linear_1038_747" x1="65.9875" y1="133.005" x2="72.9938" y2="132.051" gradientUnits="userSpaceOnUse">
<stop stop-color="#4EC4F0"/>
<stop offset="1" stop-color="#3A58A7"/>
</linearGradient>
<linearGradient id="paint2_linear_1038_747" x1="69.3453" y1="135.377" x2="105.62" y2="113.19" gradientUnits="userSpaceOnUse">
<stop stop-color="#4EC4F0"/>
<stop offset="1" stop-color="#3A58A7"/>
</linearGradient>
<linearGradient id="paint3_linear_1038_747" x1="68.7404" y1="129.436" x2="96.0873" y2="115.095" gradientUnits="userSpaceOnUse">
<stop stop-color="#4EC4F0"/>
<stop offset="1" stop-color="#3A58A7"/>
</linearGradient>
<linearGradient id="paint4_linear_1038_747" x1="87.605" y1="142.944" x2="102.442" y2="130.24" gradientUnits="userSpaceOnUse">
<stop stop-color="#4EC4F0"/>
<stop offset="1" stop-color="#3A58A7"/>
</linearGradient>
<linearGradient id="paint5_linear_1038_747" x1="32.6812" y1="119.908" x2="138.363" y2="76.9418" gradientUnits="userSpaceOnUse">
<stop stop-color="#4EC4F0"/>
<stop offset="1" stop-color="#3A58A7"/>
</linearGradient>
<linearGradient id="paint6_linear_1038_747" x1="35.6922" y1="120.208" x2="138.442" y2="79.1359" gradientUnits="userSpaceOnUse">
<stop stop-color="#4EC4F0"/>
<stop offset="1" stop-color="#3A58A7"/>
</linearGradient>
<linearGradient id="paint7_linear_1038_747" x1="35.6922" y1="120.208" x2="138.442" y2="79.1359" gradientUnits="userSpaceOnUse">
<stop stop-color="#4EC4F0"/>
<stop offset="1" stop-color="#3A58A7"/>
</linearGradient>
<linearGradient id="paint8_linear_1038_747" x1="27.9366" y1="149.558" x2="33.4555" y2="148.358" gradientUnits="userSpaceOnUse">
<stop stop-color="#4EC4F0"/>
<stop offset="1" stop-color="#3A58A7"/>
</linearGradient>
<linearGradient id="paint9_linear_1038_747" x1="35.6848" y1="137.048" x2="105.254" y2="78.3005" gradientUnits="userSpaceOnUse">
<stop stop-color="#4EC4F0"/>
<stop offset="1" stop-color="#3A58A7"/>
</linearGradient>
<linearGradient id="paint10_linear_1038_747" x1="76.9534" y1="118.377" x2="80.2614" y2="116.895" gradientUnits="userSpaceOnUse">
<stop stop-color="#4EC4F0"/>
<stop offset="1" stop-color="#3A58A7"/>
</linearGradient>
<linearGradient id="paint11_linear_1038_747" x1="27.8888" y1="123.666" x2="32.4811" y2="123.536" gradientUnits="userSpaceOnUse">
<stop stop-color="#4EC4F0"/>
<stop offset="1" stop-color="#3A58A7"/>
</linearGradient>
<linearGradient id="paint12_linear_1038_747" x1="69.7789" y1="171.979" x2="129.067" y2="115.095" gradientUnits="userSpaceOnUse">
<stop stop-color="#4EC4F0"/>
<stop offset="1" stop-color="#3A58A7"/>
</linearGradient>
<linearGradient id="paint13_linear_1038_747" x1="69.7828" y1="169.99" x2="126.608" y2="113.056" gradientUnits="userSpaceOnUse">
<stop stop-color="#4EC4F0"/>
<stop offset="1" stop-color="#3A58A7"/>
</linearGradient>
<linearGradient id="paint14_linear_1038_747" x1="66.3644" y1="181.046" x2="83.1975" y2="166.654" gradientUnits="userSpaceOnUse">
<stop stop-color="#4EC4F0"/>
<stop offset="1" stop-color="#3A58A7"/>
</linearGradient>
<linearGradient id="paint15_linear_1038_747" x1="46.6644" y1="57.5658" x2="108.574" y2="1.55657" gradientUnits="userSpaceOnUse">
<stop stop-color="#4EC4F0"/>
<stop offset="1" stop-color="#3A58A7"/>
</linearGradient>
<linearGradient id="paint16_linear_1038_747" x1="48.2922" y1="57.7859" x2="109.189" y2="2.54663" gradientUnits="userSpaceOnUse">
<stop stop-color="#4EC4F0"/>
<stop offset="1" stop-color="#3A58A7"/>
</linearGradient>
<linearGradient id="paint17_linear_1038_747" x1="121.138" y1="45.0504" x2="151.748" y2="20.1915" gradientUnits="userSpaceOnUse">
<stop stop-color="#4EC4F0"/>
<stop offset="1" stop-color="#3A58A7"/>
</linearGradient>
<linearGradient id="paint18_linear_1038_747" x1="122.765" y1="45.2746" x2="152.371" y2="21.1795" gradientUnits="userSpaceOnUse">
<stop stop-color="#4EC4F0"/>
<stop offset="1" stop-color="#3A58A7"/>
</linearGradient>
<linearGradient id="paint19_linear_1038_747" x1="124.092" y1="56.4565" x2="125.541" y2="56.1958" gradientUnits="userSpaceOnUse">
<stop stop-color="#4EC4F0"/>
<stop offset="1" stop-color="#3A58A7"/>
</linearGradient>
<linearGradient id="paint20_linear_1038_747" x1="125.995" y1="56.2941" x2="128.796" y2="55.81" gradientUnits="userSpaceOnUse">
<stop stop-color="#4EC4F0"/>
<stop offset="1" stop-color="#3A58A7"/>
</linearGradient>
<linearGradient id="paint21_linear_1038_747" x1="128.9" y1="54.0671" x2="130.35" y2="53.8065" gradientUnits="userSpaceOnUse">
<stop stop-color="#4EC4F0"/>
<stop offset="1" stop-color="#3A58A7"/>
</linearGradient>
<linearGradient id="paint22_linear_1038_747" x1="132.134" y1="53.1357" x2="132.953" y2="52.8985" gradientUnits="userSpaceOnUse">
<stop stop-color="#4EC4F0"/>
<stop offset="1" stop-color="#3A58A7"/>
</linearGradient>
<linearGradient id="paint23_linear_1038_747" x1="133.634" y1="52.1904" x2="134.453" y2="51.9531" gradientUnits="userSpaceOnUse">
<stop stop-color="#4EC4F0"/>
<stop offset="1" stop-color="#3A58A7"/>
</linearGradient>
<linearGradient id="paint24_linear_1038_747" x1="135.134" y1="51.2451" x2="135.953" y2="51.0078" gradientUnits="userSpaceOnUse">
<stop stop-color="#4EC4F0"/>
<stop offset="1" stop-color="#3A58A7"/>
</linearGradient>
<linearGradient id="paint25_linear_1038_747" x1="125.119" y1="59.4347" x2="140.12" y2="45.0681" gradientUnits="userSpaceOnUse">
<stop stop-color="#4EC4F0"/>
<stop offset="1" stop-color="#3A58A7"/>
</linearGradient>
<linearGradient id="paint26_linear_1038_747" x1="148.257" y1="46.2139" x2="154.974" y2="40.1598" gradientUnits="userSpaceOnUse">
<stop stop-color="#4EC4F0"/>
<stop offset="1" stop-color="#3A58A7"/>
</linearGradient>
<linearGradient id="paint27_linear_1038_747" x1="125.119" y1="108.31" x2="140.12" y2="93.9431" gradientUnits="userSpaceOnUse">
<stop stop-color="#4EC4F0"/>
<stop offset="1" stop-color="#3A58A7"/>
</linearGradient>
<linearGradient id="paint28_linear_1038_747" x1="148.257" y1="95.0889" x2="154.974" y2="89.0348" gradientUnits="userSpaceOnUse">
<stop stop-color="#4EC4F0"/>
<stop offset="1" stop-color="#3A58A7"/>
</linearGradient>
<linearGradient id="paint29_linear_1038_747" x1="148.257" y1="81.7842" x2="154.974" y2="75.7302" gradientUnits="userSpaceOnUse">
<stop stop-color="#4EC4F0"/>
<stop offset="1" stop-color="#3A58A7"/>
</linearGradient>
<linearGradient id="paint30_linear_1038_747" x1="148.257" y1="86.2217" x2="154.974" y2="80.1677" gradientUnits="userSpaceOnUse">
<stop stop-color="#4EC4F0"/>
<stop offset="1" stop-color="#3A58A7"/>
</linearGradient>
<linearGradient id="paint31_linear_1038_747" x1="140.59" y1="86.9903" x2="144.863" y2="83.3602" gradientUnits="userSpaceOnUse">
<stop stop-color="#4EC4F0"/>
<stop offset="1" stop-color="#3A58A7"/>
</linearGradient>
<linearGradient id="paint32_linear_1038_747" x1="124.655" y1="65.1237" x2="133.914" y2="56.5113" gradientUnits="userSpaceOnUse">
<stop stop-color="#4EC4F0"/>
<stop offset="1" stop-color="#3A58A7"/>
</linearGradient>
<linearGradient id="paint33_linear_1038_747" x1="124.225" y1="70.6948" x2="128.138" y2="67.4274" gradientUnits="userSpaceOnUse">
<stop stop-color="#4EC4F0"/>
<stop offset="1" stop-color="#3A58A7"/>
</linearGradient>
<linearGradient id="paint34_linear_1038_747" x1="124.225" y1="75.1401" x2="128.138" y2="71.8727" gradientUnits="userSpaceOnUse">
<stop stop-color="#4EC4F0"/>
<stop offset="1" stop-color="#3A58A7"/>
</linearGradient>
<linearGradient id="paint35_linear_1038_747" x1="124.225" y1="79.5854" x2="128.138" y2="76.318" gradientUnits="userSpaceOnUse">
<stop stop-color="#4EC4F0"/>
<stop offset="1" stop-color="#3A58A7"/>
</linearGradient>
<linearGradient id="paint36_linear_1038_747" x1="124.225" y1="84.0229" x2="128.138" y2="80.7555" gradientUnits="userSpaceOnUse">
<stop stop-color="#4EC4F0"/>
<stop offset="1" stop-color="#3A58A7"/>
</linearGradient>
<linearGradient id="paint37_linear_1038_747" x1="138.936" y1="56.8696" x2="143.616" y2="52.8222" gradientUnits="userSpaceOnUse">
<stop stop-color="#4EC4F0"/>
<stop offset="1" stop-color="#3A58A7"/>
</linearGradient>
<linearGradient id="paint38_linear_1038_747" x1="131.709" y1="65.1159" x2="140.969" y2="56.5035" gradientUnits="userSpaceOnUse">
<stop stop-color="#4EC4F0"/>
<stop offset="1" stop-color="#3A58A7"/>
</linearGradient>
<linearGradient id="paint39_linear_1038_747" x1="145.987" y1="56.8618" x2="150.667" y2="52.8144" gradientUnits="userSpaceOnUse">
<stop stop-color="#4EC4F0"/>
<stop offset="1" stop-color="#3A58A7"/>
</linearGradient>
<linearGradient id="paint40_linear_1038_747" x1="178.953" y1="26.4614" x2="186.485" y2="21.55" gradientUnits="userSpaceOnUse">
<stop stop-color="#4EC4F0"/>
<stop offset="1" stop-color="#3A58A7"/>
</linearGradient>
<linearGradient id="paint41_linear_1038_747" x1="178.745" y1="27.0131" x2="183.247" y2="24.8035" gradientUnits="userSpaceOnUse">
<stop stop-color="#4EC4F0"/>
<stop offset="1" stop-color="#3A58A7"/>
</linearGradient>
<linearGradient id="paint42_linear_1038_747" x1="179.135" y1="22.2712" x2="181.639" y2="17.7968" gradientUnits="userSpaceOnUse">
<stop stop-color="#4EC4F0"/>
<stop offset="1" stop-color="#3A58A7"/>
</linearGradient>
<linearGradient id="paint43_linear_1038_747" x1="183.997" y1="37.7462" x2="205.666" y2="29.0496" gradientUnits="userSpaceOnUse">
<stop stop-color="#4EC4F0"/>
<stop offset="1" stop-color="#3A58A7"/>
</linearGradient>
<linearGradient id="paint44_linear_1038_747" x1="178.953" y1="56.8129" x2="186.485" y2="51.9015" gradientUnits="userSpaceOnUse">
<stop stop-color="#4EC4F0"/>
<stop offset="1" stop-color="#3A58A7"/>
</linearGradient>
<linearGradient id="paint45_linear_1038_747" x1="179.135" y1="52.6228" x2="181.639" y2="48.1483" gradientUnits="userSpaceOnUse">
<stop stop-color="#4EC4F0"/>
<stop offset="1" stop-color="#3A58A7"/>
</linearGradient>
<linearGradient id="paint46_linear_1038_747" x1="186.506" y1="63.982" x2="197.267" y2="59.8811" gradientUnits="userSpaceOnUse">
<stop stop-color="#4EC4F0"/>
<stop offset="1" stop-color="#3A58A7"/>
</linearGradient>
<linearGradient id="paint47_linear_1038_747" x1="178.953" y1="87.1645" x2="186.485" y2="82.2531" gradientUnits="userSpaceOnUse">
<stop stop-color="#4EC4F0"/>
<stop offset="1" stop-color="#3A58A7"/>
</linearGradient>
<linearGradient id="paint48_linear_1038_747" x1="179.135" y1="82.9744" x2="181.639" y2="78.4999" gradientUnits="userSpaceOnUse">
<stop stop-color="#4EC4F0"/>
<stop offset="1" stop-color="#3A58A7"/>
</linearGradient>
<linearGradient id="paint49_linear_1038_747" x1="186.461" y1="95.1571" x2="197.2" y2="90.8465" gradientUnits="userSpaceOnUse">
<stop stop-color="#4EC4F0"/>
<stop offset="1" stop-color="#3A58A7"/>
</linearGradient>
<linearGradient id="paint50_linear_1038_747" x1="190.135" y1="91.4618" x2="192.021" y2="90.711" gradientUnits="userSpaceOnUse">
<stop stop-color="#4EC4F0"/>
<stop offset="1" stop-color="#3A58A7"/>
</linearGradient>
<linearGradient id="paint51_linear_1038_747" x1="172.685" y1="119.116" x2="180.116" y2="116.623" gradientUnits="userSpaceOnUse">
<stop stop-color="#4EC4F0"/>
<stop offset="1" stop-color="#3A58A7"/>
</linearGradient>
<linearGradient id="paint52_linear_1038_747" x1="169.976" y1="168.506" x2="175.956" y2="165.369" gradientUnits="userSpaceOnUse">
<stop stop-color="#4EC4F0"/>
<stop offset="1" stop-color="#3A58A7"/>
</linearGradient>
<linearGradient id="paint53_linear_1038_747" x1="159.417" y1="176.824" x2="165.431" y2="170.468" gradientUnits="userSpaceOnUse">
<stop stop-color="#4EC4F0"/>
<stop offset="1" stop-color="#3A58A7"/>
</linearGradient>
<linearGradient id="paint54_linear_1038_747" x1="160.662" y1="120.004" x2="168.482" y2="116.926" gradientUnits="userSpaceOnUse">
<stop stop-color="#4EC4F0"/>
<stop offset="1" stop-color="#3A58A7"/>
</linearGradient>
</defs>
</svg>
